<?xml version="1.0" standalone="no"?>
<!DOCTYPE svg PUBLIC "-//W3C//DTD SVG 1.1//EN" "http://www.w3.org/Graphics/SVG/1.1/DTD/svg11.dtd" >
<svg>
<metadata>
Created by FontForge 20090914 at Thu May  9 10:57:39 2013
 By www-data
Copyright 2008 Dalton Maag Ltd. This typeface is for exclusive use by Toyota Motor Corporation only. The typeface may only be used in projects relating to Toyota Motor Corporation. All rights reserved.
</metadata>
<defs>
<font id="ToyotaDisplay-Regular" horiz-adv-x="500" >
  <font-face 
    font-family="Toyota Display"
    font-weight="400"
    font-stretch="normal"
    units-per-em="1000"
    panose-1="2 0 5 3 0 0 0 2 0 3"
    ascent="800"
    descent="-200"
    x-height="501"
    cap-height="721"
    bbox="-217 -274.003 1083 1031"
    underline-thickness="50"
    underline-position="-50"
    unicode-range="U+0020-U+FB04"
  />
<missing-glyph horiz-adv-x="475" 
 />
    <glyph glyph-name="ff" unicode="ff" horiz-adv-x="695" 
d="M96 427l-71 -0.00195312v74h71v66c0 24 3.33301 46.167 10 66.5s17.334 38 32.001 53s33.5 26.667 56.5 35s50.833 12.5 83.5 12.5c18.667 0 36.667 -1.16699 54 -3.5s35.666 -6.16602 54.999 -11.499l-16 -70c-16.667 4.66699 -31.667 8 -45 10s-28.666 3 -45.999 3
c-19.333 0 -34.833 -2.66699 -46.5 -8s-20.834 -12.5 -27.501 -21.5s-11.167 -19.833 -13.5 -32.5s-3.5 -26 -3.5 -40v-59h230v66c0 24 3.33301 46.167 10 66.5s17.334 38 32.001 53s33.5 26.667 56.5 35s50.833 12.5 83.5 12.5c18.667 0 36.667 -1.16699 54 -3.5
s35.666 -6.16602 54.999 -11.499l-16 -70c-16.667 4.66699 -31.667 8 -45 10s-28.666 3 -45.999 3c-19.333 0 -34.833 -2.66699 -46.5 -8s-20.834 -12.5 -27.501 -21.5s-11.167 -19.833 -13.5 -32.5s-3.5 -26 -3.5 -40v-59h168v-74h-168v-427h-93v427h-230v-427h-93v427z
" />
    <glyph glyph-name="fi" unicode="fi" horiz-adv-x="582" 
d="M96 427h-71.002v74h71v66c0 24 4.33301 46.167 13 66.5s21.834 38 39.501 53s39.334 26.667 65.001 35s55.5 12.5 89.5 12.5c38 0 71.167 -3.83301 99.5 -11.5s53.166 -15.834 74.499 -24.501l-26 -67c-21.333 9.33301 -44.666 16.833 -69.999 22.5s-49 8.5 -71 8.5
c-42 0 -72.667 -8.66699 -92 -26s-29 -42.666 -29 -75.999v-59h322v-501h-93v427h-229v-427h-93v427z" />
    <glyph glyph-name="fl" unicode="fl" horiz-adv-x="587" 
d="M96 427l-70.998 -0.00195312v74h71v66c0 24 4.5 46.167 13.5 66.5s22.167 38 39.5 53s39.166 26.667 65.499 35s57.166 12.5 92.499 12.5c40 0 76.667 -3.66699 110 -11s66.333 -17.666 99 -30.999v-692h-93v643c-20 6.66699 -38.167 11.5 -54.5 14.5
s-35.833 4.5 -58.5 4.5c-42 0 -72.667 -8.66699 -92 -26s-29 -42.666 -29 -75.999v-59h162v-74h-162v-427h-93v427z" />
    <glyph glyph-name="ffi" unicode="ffi" horiz-adv-x="911" 
d="M96 427l-71 -0.000976562v74h71v66c0 24 3.33301 46.167 10 66.5s17.334 38 32.001 53s33.5 26.667 56.5 35s50.833 12.5 83.5 12.5c18.667 0 36.667 -1.16699 54 -3.5s35.666 -6.16602 54.999 -11.499l-16 -70c-16.667 4.66699 -31.667 8 -45 10s-28.666 3 -45.999 3
c-19.333 0 -34.833 -2.66699 -46.5 -8s-20.834 -12.5 -27.501 -21.5s-11.167 -19.833 -13.5 -32.5s-3.5 -26 -3.5 -40v-59h236v66c0 24 4.16699 46.167 12.5 66.5s21 38 38 53s38.333 26.667 64 35s55.5 12.5 89.5 12.5c38 0 71.667 -3.83301 101 -11.5
s54.666 -15.834 75.999 -24.501l-26 -67c-21.333 9.33301 -44.666 16.833 -69.999 22.5s-49 8.5 -71 8.5c-42 0 -72.667 -8.66699 -92 -26s-29 -42.666 -29 -75.999v-59h322v-501h-93v427h-229v-427h-93v427h-236v-427h-93v427z" />
    <glyph glyph-name="ffl" unicode="ffl" horiz-adv-x="910" 
d="M96 427l-70.998 -0.00292969v74h71v66c0 24 3.33301 46.167 10 66.5s17.334 38 32.001 53s33.5 26.667 56.5 35s50.833 12.5 83.5 12.5c18.667 0 36.667 -1.16699 54 -3.5s35.666 -6.16602 54.999 -11.499l-16 -70c-16.667 4.66699 -31.667 8 -45 10s-28.666 3 -45.999 3
c-19.333 0 -34.833 -2.66699 -46.5 -8s-20.834 -12.5 -27.501 -21.5s-11.167 -19.833 -13.5 -32.5s-3.5 -26 -3.5 -40v-59h230v66c0 24 4.5 46.167 13.5 66.5s22.167 38 39.5 53s39.166 26.667 65.499 35s57.166 12.5 92.499 12.5c40 0 76.667 -3.66699 110 -11
s66.333 -17.666 99 -30.999v-692h-93v643c-20 6.66699 -38.167 11.5 -54.5 14.5s-35.833 4.5 -58.5 4.5c-42 0 -72.667 -8.66699 -92 -26s-29 -42.666 -29 -75.999v-59h162v-74h-162v-427h-93v427h-230v-427h-93v427z" />
    <glyph glyph-name=".notdef" horiz-adv-x="475" 
 />
    <glyph glyph-name="space" unicode=" " horiz-adv-x="200" 
 />
    <glyph glyph-name="exclam" unicode="!" horiz-adv-x="282" 
d="M86 721h112l-17 -516h-78zM91 2c-10.667 13.333 -16 30 -16 50s5.33301 36.5 16 49.5s27.334 19.5 50.001 19.5s39.334 -6.5 50.001 -19.5s16 -29.5 16 -49.5s-5.33301 -36.5 -16 -49.5s-27.334 -19.5 -50.001 -19.5s-39.334 6.33301 -50.001 19z" />
    <glyph glyph-name="quotedbl" unicode="&#x22;" horiz-adv-x="348" 
d="M52 721h86v-289h-86v289zM210 721h86v-289h-86v289z" />
    <glyph glyph-name="numbersign" unicode="#" horiz-adv-x="712" 
d="M150 199h-115v75h130l37 178h-113v76h129l29 142h86l-29 -142h172l30 142h85l-29 -142h120v-76h-136l-37 -178h118v-75h-133l-33 -160h-85l32 160h-172l-32 -160h-87zM424 274l37 178h-172l-37 -178h172z" />
    <glyph glyph-name="dollar" unicode="$" horiz-adv-x="635" 
d="M65 119c35.333 -14.667 71.499 -25.835 108.499 -33.502s75.5 -11.5 115.5 -11.5c64.667 0 112.334 11.5 143.001 34.5s46 53.5 46 91.5c0 23.333 -5.33301 42.333 -16 57s-24.667 26.5 -42 35.5s-37.333 16.167 -60 21.5l-71 16
c-25.333 4.66699 -51.333 10.834 -78 18.501s-51 18.334 -73 32.001s-40 31.667 -54 54s-21 50.833 -21 85.5c0 25.333 4 49.166 12 71.499s20.5 42.333 37.5 60s38.833 32.334 65.5 44.001s59 19.5 97 23.5v96h87v-93c40.667 -2 76.834 -6.83301 108.501 -14.5
s61.5 -17.167 89.5 -28.5l-23 -75c-34.667 12.667 -67.667 22.667 -99 30s-66 11 -104 11c-57.333 0 -100.333 -10.5 -129 -31.5s-43 -49.5 -43 -85.5c0 -20.667 4.83301 -37.5 14.5 -50.5s22.5 -23.667 38.5 -32s34.5 -15 55.5 -20s42.833 -9.83301 65.5 -14.5
c27.333 -6 55.333 -12.667 84 -20s54.667 -18.333 78 -33s42.5 -33.667 57.5 -57s22.5 -54 22.5 -92c0 -56.667 -18.333 -103.5 -55 -140.5s-90.334 -60.167 -161.001 -69.5v-103h-87v98c-58 1.33301 -106.667 7 -146 17s-69 19.333 -89 28z" />
    <glyph glyph-name="percent" unicode="%" horiz-adv-x="1001" 
d="M89 382c-14 18 -24.5029 38.833 -31.5029 62.5s-10.5 49.167 -10.5 76.5c0 28 4 54 12 78s19.833 45 35.5 63s35.334 32.167 59.001 42.5s51.167 15.5 82.5 15.5c28 0 52.833 -5 74.5 -15s39.834 -23.833 54.501 -41.5s25.834 -38.667 33.501 -63s11.5 -50.5 11.5 -78.5
s-4 -54.167 -12 -78.5s-19.667 -45.166 -35 -62.499s-34.333 -31 -57 -41s-48.667 -15 -78 -15c-32 0 -59.5 5.16699 -82.5 15.5s-41.833 24.166 -56.5 41.499zM229.997 393c30 0 53.333 10.833 70 32.5s25 53.834 25 96.501s-8.33301 75 -25 97s-40 33 -70 33
c-32 0 -56.167 -11.833 -72.5 -35.5s-24.5 -55.167 -24.5 -94.5c0 -38.667 8.16699 -69.834 24.5 -93.501s40.5 -35.5 72.5 -35.5zM633.997 48c-14.667 18 -25.502 39 -32.502 63s-10.5 49.667 -10.5 77s4 53 12 77s19.833 45 35.5 63s35.334 32.167 59.001 42.5
s51.167 15.5 82.5 15.5c28 0 52.833 -5 74.5 -15s39.834 -23.833 54.501 -41.5s25.834 -38.5 33.501 -62.5s11.5 -50 11.5 -78c0 -28.667 -4 -55.167 -12 -79.5s-19.667 -45.166 -35 -62.499s-34.333 -31 -57 -41s-48.667 -15 -78 -15c-32 0 -59.333 5.16699 -82 15.5
s-41.334 24.166 -56.001 41.499zM773.995 59c62.667 0 94 43.333 94 130c0 42 -8 74 -24 96s-39.333 33 -70 33c-32 0 -56.333 -12 -73 -36s-25 -55 -25 -93c0 -39.333 8.33301 -70.833 25 -94.5s41 -35.5 73 -35.5zM728.995 712h96l-552 -712h-97z" />
    <glyph glyph-name="ampersand" unicode="&#x26;" horiz-adv-x="745" 
d="M523 100c-36 -38 -73.502 -67.1611 -112.502 -87.4941s-82.833 -30.5 -131.5 -30.5c-42 0 -77.333 6 -106 18s-51.834 27.5 -69.501 46.5s-30.167 40.167 -37.5 63.5s-11 46 -11 68c0 24.667 4.33301 48.167 13 70.5s20.834 43.666 36.501 63.999s34.5 40.333 56.5 60
s46.333 39.5 73 59.5c-18.667 23.333 -31.5 45.666 -38.5 66.999s-10.5 44 -10.5 68c0 23.333 4.83301 45.166 14.5 65.499s23.334 38 41.001 53s38.667 26.833 63 35.5s51.5 13 81.5 13c35.333 0 65.833 -4.16699 91.5 -12.5s50.167 -17.833 73.5 -28.5l-31 -72
c-21.333 11.333 -41.833 20.166 -61.5 26.499s-42.167 9.5 -67.5 9.5c-13.333 0 -26.333 -1.83301 -39 -5.5s-24 -9.33398 -34 -17.001s-18.167 -17.334 -24.5 -29.001s-9.5 -25.5 -9.5 -41.5c0 -21.333 4.33301 -40.333 13 -57s21.334 -34.667 38.001 -54l190 -216l118 150
l68 -51l-128 -167l111 -125l-67 -60zM287.998 368.006c-23.333 -17.333 -43.3301 -33.335 -59.9971 -48.002s-30.334 -29 -41.001 -43s-18.667 -28.667 -24 -44s-8 -32 -8 -50c0 -14 2.16699 -28.167 6.5 -42.5s11.666 -27.166 21.999 -38.499s23.666 -20.5 39.999 -27.5
s36.5 -10.5 60.5 -10.5c32 0 62.333 8.33301 91 25s58.667 42.334 90 77.001z" />
    <glyph glyph-name="quotesingle" unicode="'" horiz-adv-x="190" 
d="M52 721h86v-289h-86v289z" />
    <glyph glyph-name="parenleft" unicode="(" horiz-adv-x="389" 
d="M108 132c-15.333 23.333 -29.168 48.333 -41.501 75s-18.5 53.667 -18.5 81s6.33301 54.333 19 81s26.334 51.667 41.001 75l182 293l74 -48l-169 -277c-12 -19.333 -23.333 -39.333 -34 -60s-16 -41.667 -16 -63c0 -22 5.33301 -43.5 16 -64.5s21.667 -40.833 33 -59.5
l170 -277l-74 -48z" />
    <glyph glyph-name="parenright" unicode=")" horiz-adv-x="388" 
d="M193 165c12 18.667 23.333 38.5 34 59.5s16 42.5 16 64.5c0 21.333 -5.33301 42.333 -16 63s-22 40.667 -34 60l-169 277l74 48l182 -293c14 -23.333 27.333 -48.333 40 -75s19 -53.667 19 -81s-6.16699 -54.333 -18.5 -81s-25.833 -51.667 -40.5 -75l-182 -292l-74 48z
" />
    <glyph glyph-name="asterisk" unicode="*" horiz-adv-x="518" 
d="M201 496l-151 46l25 76l147 -54l-3 157h80l-2 -157l146 54l25 -76l-151 -46l100 -124l-65 -48l-93 129l-93 -129l-65 48z" />
    <glyph glyph-name="plus" unicode="+" horiz-adv-x="670" 
d="M292 300h-200v80h200v205h84v-205h201v-80h-201v-205h-84v205z" />
    <glyph glyph-name="comma" unicode="," horiz-adv-x="215" 
d="M84 104l94 -21l-64 -231l-77 17z" />
    <glyph glyph-name="hyphen" unicode="-" horiz-adv-x="463" 
d="M75 359h313v-89h-313v89z" />
    <glyph glyph-name="period" unicode="." horiz-adv-x="253" 
d="M76 2c-10.667 13.333 -16 30 -16 50s5.33301 36.5 16 49.5s27.667 19.5 51 19.5c22.667 0 39.334 -6.5 50.001 -19.5s16 -29.5 16 -49.5s-5.33301 -36.5 -16 -49.5s-27.334 -19.5 -50.001 -19.5c-23.333 0 -40.333 6.33301 -51 19z" />
    <glyph glyph-name="slash" unicode="/" horiz-adv-x="463" 
d="M356 764h95l-344 -842h-95z" />
    <glyph glyph-name="zero" unicode="0" horiz-adv-x="684" 
d="M116 90c-23.333 32.667 -40.5 71.165 -51.5 115.498s-16.5 92.833 -16.5 145.5s5.5 101.5 16.5 146.5s28.333 84 52 117s54.167 59 91.5 78s82 28.5 134 28.5s96.667 -9.5 134 -28.5s67.833 -45 91.5 -78s41 -72 52 -117s16.5 -93.833 16.5 -146.5
s-5.5 -101.167 -16.5 -145.5s-28.333 -82.666 -52 -114.999s-54.167 -57.666 -91.5 -75.999s-82 -27.5 -134 -27.5s-96.667 9.16699 -134 27.5s-68 43.5 -92 75.5zM254 83.998c24.667 -12.667 54 -19 88 -19s63.167 6.5 87.5 19.5s44.166 32 59.499 57
s26.5 55.167 33.5 90.5s10.5 75.666 10.5 120.999c0 44.667 -3.5 85 -10.5 121s-18.167 66.5 -33.5 91.5s-35.166 44.167 -59.499 57.5s-53.5 20 -87.5 20s-63.167 -6.66699 -87.5 -20s-44 -32.5 -59 -57.5s-26 -55.5 -33 -91.5s-10.5 -76.333 -10.5 -121
c0 -45.333 3.5 -85.666 10.5 -120.999s18 -65.5 33 -90.5s34.5 -44.167 58.5 -57.5z" />
    <glyph glyph-name="one" unicode="1" horiz-adv-x="534" 
d="M79 79h181.999v520c0 14.667 -3.66699 22 -11 22c-4 0 -7.5 -1 -10.5 -3s-6.16699 -4 -9.5 -6l-140 -100l-50 62l162 115c14.667 10.667 29 18.667 43 24s29 8 45 8c18.667 0 34.334 -5.83301 47.001 -17.5s19 -31.167 19 -58.5v-566h173v-79h-450v79z" />
    <glyph glyph-name="two" unicode="2" horiz-adv-x="591" 
d="M550 80v-80.001h-437c-26.667 0 -48.5 7 -65.5 21s-25.5 34 -25.5 60c0 13.333 3.66699 27.333 11 42s20.666 29.667 39.999 45l236 187c20.667 16 38.834 30.833 54.501 44.5s28.834 27.334 39.501 41.001s18.834 27.667 24.501 42s8.5 30.5 8.5 48.5
c0 21.333 -4.33301 39 -13 53s-19.667 25 -33 33s-28.333 13.667 -45 17s-33.334 5 -50.001 5c-40 0 -75.333 -5.83301 -106 -17.5s-60.334 -25.834 -89.001 -42.501l-39 66c13.333 10 29 19.5 47 28.5s37.5 17 58.5 24s43 12.667 66 17s46.167 6.5 69.5 6.5
c72.667 0 129.667 -16.667 171 -50s62 -78.333 62 -135c0 -44 -12.833 -84.167 -38.5 -120.5s-59.5 -71.166 -101.5 -104.499l-249 -194c-6 -5.33301 -10.167 -9.33301 -12.5 -12s-3.5 -6 -3.5 -10c0 -10 8 -15 24 -15h396z" />
    <glyph glyph-name="three" unicode="3" horiz-adv-x="556" 
d="M25 112c35.333 -14.667 68.1699 -25.4971 98.5029 -32.4971s65.166 -10.5 104.499 -10.5c24 0 47.167 2.66699 69.5 8s42.333 13.833 60 25.5s31.667 26.667 42 45s15.5 40.166 15.5 65.499c0 14.667 -2.5 29.834 -7.5 45.501s-14.167 30 -27.5 43
s-31.833 23.5 -55.5 31.5s-54.167 12 -91.5 12h-62v62l199 190c8.66699 8 13 15.333 13 22c0 8.66699 -6.66699 13 -20 13h-323v80h359c33.333 0 56.833 -6.83301 70.5 -20.5s20.5 -30.834 20.5 -51.501c0 -14 -4 -28.833 -12 -44.5s-20.667 -31.167 -38 -46.5l-148 -135
c45.333 -1.33301 82.5 -8.83301 111.5 -22.5s51.833 -30.5 68.5 -50.5s28.167 -41.5 34.5 -64.5s9.5 -43.833 9.5 -62.5c0 -32 -6.16699 -61.667 -18.5 -89s-30.5 -51.333 -54.5 -72s-53.833 -36.834 -89.5 -48.501s-76.834 -17.5 -123.501 -17.5c-30.667 0 -58 1.5 -82 4.5
s-45.333 6.66699 -64 11s-34.834 9.16602 -48.501 14.499l-35.5 14z" />
    <glyph glyph-name="four" unicode="4" horiz-adv-x="652" 
d="M407 180h-265.999c-37.333 0 -65.5 8.83301 -84.5 26.5s-28.5 40.5 -28.5 68.5c0 17.333 3.66699 34.333 11 51s20.666 34.667 39.999 54l333 332h89v-451h121v-81h-121v-180h-94v180zM407.001 261v327.001l-258 -254c-8 -8 -14.333 -15.333 -19 -22
s-7 -14.334 -7 -23.001c0 -7.33301 3 -13.833 9 -19.5s16 -8.5 30 -8.5h245z" />
    <glyph glyph-name="five" unicode="5" horiz-adv-x="581" 
d="M45 111c36 -14.667 69.8379 -25.6641 101.505 -32.9971s67.5 -11 107.5 -11c57.333 0 101.166 14.5 131.499 43.5s45.5 67.5 45.5 115.5c0 25.333 -4.16699 47 -12.5 65s-19.833 32.667 -34.5 44s-32.167 19.5 -52.5 24.5s-42.833 7.5 -67.5 7.5
c-22.667 0 -44.834 -2 -66.501 -6s-44.5 -11 -68.5 -21l-51 31l12 341h411v-80h-322l-8 -198c16.667 5.33301 34.667 9.16602 54 11.499s42.333 3.5 69 3.5c28 0 56.333 -4 85 -12s54.334 -20.833 77.001 -38.5s41.167 -40.334 55.5 -68.001s21.5 -60.834 21.5 -99.501
c0 -33.333 -5.33301 -64.833 -16 -94.5s-27.334 -55.5 -50.001 -77.5s-51.834 -39.5 -87.501 -52.5s-78.834 -19.5 -129.501 -19.5c-30.667 0 -58 1.5 -82 4.5s-45.333 6.83301 -64 11.5s-34.834 9.66699 -48.501 15l-35.5 14z" />
    <glyph glyph-name="six" unicode="6" horiz-adv-x="634" 
d="M529 608c-28.667 11.333 -54.833 19.6631 -78.5 24.9961s-49.834 8 -78.501 8c-39.333 0 -72 -6.16699 -98 -18.5s-47.333 -29.166 -64 -50.499s-29.167 -46.166 -37.5 -74.499s-14.5 -58.166 -18.5 -89.499c30 21.333 61 36.5 93 45.5s64 13.5 96 13.5
c37.333 0 71 -5.66699 101 -17s55.5 -27.166 76.5 -47.499s37.167 -44.5 48.5 -72.5s17 -58.667 17 -92c0 -36.667 -6.33301 -70.334 -19 -101.001s-30.5 -57.167 -53.5 -79.5s-50.333 -39.666 -82 -51.999s-66.167 -18.5 -103.5 -18.5c-86 0 -153.833 27.167 -203.5 81.5
s-74.5 134.166 -74.5 239.499c0 52 5.16699 102.833 15.5 152.5s28 93.834 53 132.501s58 69.667 99 93s92.167 35 153.5 35c40.667 0 75.834 -3.5 105.501 -10.5s57.167 -17.167 82.5 -30.5zM239.001 88.9971c23.333 -14.667 53.333 -22.001 90 -22.001
c49.333 0 87.5 14.667 114.5 44s40.5 69.666 40.5 120.999c0 26 -4 48.667 -12 68s-19.167 35.333 -33.5 48s-31.333 22 -51 28s-41.5 9 -65.5 9c-17.333 0 -34.5 -2.16699 -51.5 -6.5s-33 -9.83301 -48 -16.5s-28.667 -14.167 -41 -22.5s-22.5 -16.166 -30.5 -23.499
c0 -29.333 2.5 -58.666 7.5 -87.999s14 -56 27 -80s30.833 -43.667 53.5 -59z" />
    <glyph glyph-name="seven" unicode="7" horiz-adv-x="568" 
d="M432 602c1.33301 3.33301 2.83301 6.66797 4.5 10.001s2.5 6.66602 2.5 9.99902c0 6.66699 -5 10 -15 10h-404v80h443c26.667 0 47.5 -6 62.5 -18s22.5 -27.667 22.5 -47c0 -9.33301 -1.5 -18.5 -4.5 -27.5s-8.16699 -20.167 -15.5 -33.5l-322 -586h-106z" />
    <glyph glyph-name="eight" unicode="8" horiz-adv-x="635" 
d="M553 301c22.667 -27.333 34.001 -62.332 34.001 -104.999c0 -30 -6.33301 -57.833 -19 -83.5s-31 -47.834 -55 -66.501s-53.333 -33.167 -88 -43.5s-74.334 -15.5 -119.001 -15.5c-46 0 -85.333 5 -118 15s-59.5 23.833 -80.5 41.5s-36.333 38.5 -46 62.5
s-14.5 49.667 -14.5 77c0 21.333 3.66699 41.5 11 60.5s17 36.5 29 52.5s25.667 30.5 41 43.5s31.333 24.167 48 33.5c-28 16 -50.833 37 -68.5 63s-26.5 57.333 -26.5 94c0 28 5.66699 53.667 17 77s27.666 43.5 48.999 60.5s47 30.167 77 39.5s64 14 102 14
c40 0 74.667 -4.66699 104 -14s53.833 -22.166 73.5 -38.499s34.334 -35.333 44.001 -57s14.5 -44.5 14.5 -68.5c0 -38 -9.83301 -71.833 -29.5 -101.5s-43.167 -54.834 -70.5 -75.501c38 -15.333 68.333 -37 91 -65zM259.001 340.001
c-32.667 -19.333 -59.501 -40.667 -80.501 -64s-31.5 -53.333 -31.5 -90c0 -34 13.5 -62.5 40.5 -85.5s67.5 -34.5 121.5 -34.5c55.333 0 98.333 12.333 129 37s46.334 56 47.001 94c0 34 -11 59.5 -33 76.5s-52.333 30.5 -91 40.5zM373 394
c26 15.333 47.6689 35.667 65.002 61s26.333 52.666 27 81.999c0 14 -2.83301 27.333 -8.5 40s-14.334 23.834 -26.001 33.501s-26.334 17.5 -44.001 23.5s-38.834 9 -63.501 9c-46 0 -82 -10.333 -108 -31s-39 -46.667 -39 -78c0 -30 9.33301 -54.667 28 -74
s48.334 -34.333 89.001 -45z" />
    <glyph glyph-name="nine" unicode="9" horiz-adv-x="636" 
d="M94 101c28.667 -12 56 -20.665 82 -25.998s53.333 -8 82 -8c40.667 0 74.667 6.33301 102 19s49.166 29.667 65.499 51s28.5 45.833 36.5 73.5s13.667 56.5 17 86.5c-25.333 -20 -55.166 -34.333 -89.499 -43s-67.5 -13 -99.5 -13c-37.333 0 -71 5.66699 -101 17
s-55.5 27 -76.5 47s-37.167 44 -48.5 72s-17 58.667 -17 92c0 36.667 6.5 70.5 19.5 101.5s31 57.667 54 80s50.333 39.666 82 51.999s66.167 18.5 103.5 18.5c42 0 80 -6.83301 114 -20.5s63.167 -34 87.5 -61s43 -60.5 56 -100.5s19.5 -86.333 19.5 -139
c0 -52 -4.83301 -102.833 -14.5 -152.5s-26.5 -93.834 -50.5 -132.501s-56.667 -69.667 -98 -93s-94 -35 -158 -35c-40.667 0 -77.5 3.5 -110.5 10.5s-61.833 16.833 -86.5 29.5zM194 360.002c14.667 -12.667 31.834 -22 51.501 -28s41.5 -9 65.5 -9
c17.333 0 34.5 2.16699 51.5 6.5s33 9.83301 48 16.5s28.667 14 41 22s22.5 16 30.5 24c0 28.667 -2.33301 57.667 -7 87s-13.5 56 -26.5 80s-30.833 43.5 -53.5 58.5s-52.334 22.5 -89.001 22.5c-49.333 0 -87.833 -14.5 -115.5 -43.5s-41.5 -69.167 -41.5 -120.5
c0 -26 4 -48.667 12 -68s19 -35.333 33 -48z" />
    <glyph glyph-name="colon" unicode=":" horiz-adv-x="253" 
d="M76 2c-10.667 13.333 -16 30 -16 50s5.33301 36.5 16 49.5s27.667 19.5 51 19.5c22.667 0 39.334 -6.5 50.001 -19.5s16 -29.5 16 -49.5s-5.33301 -36.5 -16 -49.5s-27.334 -19.5 -50.001 -19.5c-23.333 0 -40.333 6.33301 -51 19zM76 390
c-10.667 13.333 -16 29.666 -16 48.999c0 20 5.33301 36.5 16 49.5s27.667 19.5 51 19.5c22.667 0 39.334 -6.5 50.001 -19.5s16 -29.5 16 -49.5c0 -19.333 -5.33301 -35.666 -16 -48.999s-27.334 -20 -50.001 -20c-23.333 0 -40.333 6.66699 -51 20z" />
    <glyph glyph-name="semicolon" unicode=";" horiz-adv-x="252" 
d="M75 106l95 -23l-70 -231l-70 17zM75 390c-10 13.333 -14.999 29.666 -14.999 48.999c0 20 5.16699 36.5 15.5 49.5s27.166 19.5 50.499 19.5c22.667 0 39.334 -6.5 50.001 -19.5s16 -29.5 16 -49.5c0 -19.333 -5.33301 -35.666 -16 -48.999s-27.334 -20 -50.001 -20
c-23.333 0 -40.333 6.66699 -51 20z" />
    <glyph glyph-name="less" unicode="&#x3c;" horiz-adv-x="670" 
d="M599 146l-32 -80.999l-373 157c-34.667 14.667 -61.5 30.167 -80.5 46.5s-28.5 39.166 -28.5 68.499c0 28 9.5 50.667 28.5 68s45.833 33 80.5 47l373 154l32 -79l-375 -155c-14 -6 -24.333 -11.333 -31 -16s-10 -11 -10 -19c0 -10 4.16699 -17 12.5 -21l30.5 -14z" />
    <glyph glyph-name="equal" unicode="=" horiz-adv-x="670" 
d="M95 299h485v-80h-485v80zM95 460h485v-80h-485v80z" />
    <glyph glyph-name="greater" unicode="&#x3e;" horiz-adv-x="670" 
d="M71 146l373 155.999l30.5 14c8.33301 4 12.5 11 12.5 21c0 8 -3.33301 14.333 -10 19s-17 10 -31 16l-375 155l32 79l373 -154c34.667 -14 61.5 -29.667 80.5 -47s28.5 -40 28.5 -68c0 -29.333 -9.5 -52.166 -28.5 -68.499s-45.833 -31.833 -80.5 -46.5l-373 -157z" />
    <glyph glyph-name="question" unicode="?" horiz-adv-x="575" 
d="M219 257c0 16 1.83105 29.8359 5.49805 41.5029s8.66699 22.167 15 31.5s14 18 23 26s18.833 16 29.5 24l72 56c23.333 18 40.833 35.667 52.5 53s17.5 35.666 17.5 54.999c0 34.667 -12.667 61.167 -38 79.5s-63.666 27.5 -114.999 27.5c-38 0 -73.333 -6 -106 -18
s-64 -27.333 -94 -46l-41 70c13.333 10 29.5 19.5 48.5 28.5s39.5 17 61.5 24s44.833 12.667 68.5 17s46.834 6.5 69.501 6.5c42.667 0 79.5 -4.83301 110.5 -14.5s56.667 -22.667 77 -39s35.333 -35.333 45 -57s14.5 -44.834 14.5 -69.501
c0 -38.667 -9.33301 -71.334 -28 -98.001s-43 -51 -73 -73l-55 -40c-12.667 -9.33301 -23.334 -17.5 -32.001 -24.5s-15.667 -14 -21 -21s-9.16602 -14.5 -11.499 -22.5s-3.5 -17.333 -3.5 -28v-41h-92v52zM215.998 2.00293c-10.667 13.333 -16 30 -16 50
s5.33301 36.5 16 49.5s27.667 19.5 51 19.5c22.667 0 39.334 -6.5 50.001 -19.5s16 -29.5 16 -49.5s-5.33301 -36.5 -16 -49.5s-27.334 -19.5 -50.001 -19.5c-23.333 0 -40.333 6.33301 -51 19z" />
    <glyph glyph-name="at" unicode="@" horiz-adv-x="983" 
d="M471 0c-23.333 0 -45.0029 2.49609 -65.0029 7.49609s-37.5 12.833 -52.5 23.5s-26.667 24.5 -35 41.5s-12.5 37.167 -12.5 60.5c0 31.333 6.83301 56.166 20.5 74.499s31.334 32 53.001 41s45.5 14.667 71.5 17s51.667 3.5 77 3.5h53v16c0 32 -6.66699 54.833 -20 68.5
s-35.333 20.5 -66 20.5c-21.333 0 -41.5 -2 -60.5 -6s-41.5 -10.667 -67.5 -20l-26 65c21.333 8.66699 45.333 16.167 72 22.5s57 9.5 91 9.5s61.667 -4.16699 83 -12.5s37.833 -20.166 49.5 -35.499s19.5 -33.5 23.5 -54.5s6 -44.5 6 -70.5v-198
c54.667 1.33301 97.334 20.833 128.001 58.5s46 91.5 46 161.5c0 45.333 -7.16699 86.666 -21.5 123.999s-35.833 69.166 -64.5 95.499s-64 46.833 -106 61.5s-90.333 22 -145 22c-54 0 -103 -8.66699 -147 -26s-81.5 -42.166 -112.5 -74.499s-54.833 -71.5 -71.5 -117.5
s-25 -97.333 -25 -154c0 -61.333 9.5 -114.666 28.5 -159.999s45.5 -83 79.5 -113s74.833 -52.333 122.5 -67s100.167 -22 157.5 -22c30 0 56.5 1.33301 79.5 4s43.5 5.83398 61.5 9.50098s33.833 7.83398 47.5 12.501l37.5 13l27 -67c-8 -4 -20.167 -8.66699 -36.5 -14
s-35.666 -10.666 -57.999 -15.999s-47.333 -9.83301 -75 -13.5s-56.834 -5.5 -87.501 -5.5c-69.333 0 -133.666 9 -192.999 27s-110.666 45.333 -153.999 82s-77.333 82.334 -102 137.001s-37 119 -37 193c0 68 11.667 130 35 186s55.5 103.667 96.5 143
s89.5 69.833 145.5 91.5s116.333 32.5 181 32.5c65.333 0 124.666 -9 177.999 -27s99 -43.667 137 -77s67.333 -73.5 88 -120.5s31 -99.5 31 -157.5c0 -47.333 -7.16699 -89.333 -21.5 -126s-35 -67.5 -62 -92.5s-59.5 -44.167 -97.5 -57.5s-80.333 -20 -127 -20h-158z
M582.997 71.9961l-0.00292969 129h-110c-21.333 0 -40 -5 -56 -15s-24 -26 -24 -48c0 -12.667 2.33301 -23.167 7 -31.5s10.834 -15 18.501 -20s16.334 -8.66699 26.001 -11s19.834 -3.5 30.501 -3.5h108z" />
    <glyph glyph-name="A" unicode="A" horiz-adv-x="713" 
d="M200 608c6 19.333 13.001 36.6689 21.001 52.002s18.167 28.5 30.5 39.5s27 19.5 44 25.5s37.5 9 61.5 9s44.5 -3 61.5 -9s31.667 -14.333 44 -25s22.666 -23.834 30.999 -39.501s15.5 -32.834 21.5 -51.501l186 -597l-94 -22l-77 242h-350l-76 -242l-92 22z
M505.001 314.003l-87.0029 278c-7.33301 23.333 -15.666 39.166 -24.999 47.499s-21.666 12.5 -36.999 12.5c-16 0 -28.667 -4.16699 -38 -12.5s-17.666 -24.166 -24.999 -47.499l-88 -278h300z" />
    <glyph glyph-name="B" unicode="B" horiz-adv-x="660" 
d="M75 721l261.001 0.00292969c33.333 0 65 -3.16699 95 -9.5s56.5 -16.833 79.5 -31.5s41.167 -33.834 54.5 -57.501s20 -52.834 20 -87.501c0 -16.667 -2.66699 -32.667 -8 -48s-12.333 -29.5 -21 -42.5s-18.834 -24.5 -30.501 -34.5s-23.5 -18 -35.5 -24
c14.667 -4.66699 30 -11.5 46 -20.5s30.5 -20.833 43.5 -35.5s23.833 -32.334 32.5 -53.001s13 -44.667 13 -72c0 -32.667 -5.83301 -61.667 -17.5 -87s-28 -46.833 -49 -64.5s-46.167 -31 -75.5 -40s-62 -13.5 -98 -13.5h-310v721zM339.001 416.003
c20.667 0 40 2.16699 58 6.5s33.5 11.166 46.5 20.499s23.167 21.5 30.5 36.5s11 33.167 11 54.5c0 40.667 -15.333 68.834 -46 84.501s-73 23.5 -127 23.5h-139v-226h166zM374.001 79.0029c44 0 80 9.66797 108 29.001s42 52 42 98c0 17.333 -2.5 32.666 -7.5 45.999
s-11.5 25 -19.5 35s-17.333 18.167 -28 24.5s-21.667 11.166 -33 14.499c-14.667 4.66699 -29 7.33398 -43 8.00098s-29.667 1 -47 1h-173v-256h201z" />
    <glyph glyph-name="C" unicode="C" horiz-adv-x="691" 
d="M653 36c-38.667 -17.333 -77.498 -30.6699 -116.498 -40.0029s-83.5 -14 -133.5 -14c-66.667 0 -122.667 9.5 -168 28.5s-81.833 45.167 -109.5 78.5s-47.5 73.166 -59.5 119.499s-18 96.5 -18 150.5s7.66699 103.833 23 149.5s38.166 85.334 68.499 119.001
s68.166 59.834 113.499 78.501s98 28 158 28c52 0 96.833 -4.66699 134.5 -14s71.5 -20 101.5 -32l-29 -76c-21.333 8 -40.833 14.667 -58.5 20s-34.5 9.5 -50.5 12.5s-31.667 5.16699 -47 6.5s-31.333 2 -48 2c-85.333 0 -150.333 -25.667 -195 -77
s-67 -123.666 -67 -216.999c0 -99.333 21.333 -173.666 64 -222.999s106 -74 190 -74c22.667 0 43.167 1 61.5 3s35.833 4.83301 52.5 8.5s33.5 8.5 50.5 14.5s35.5 13 55.5 21z" />
    <glyph glyph-name="D" unicode="D" horiz-adv-x="751" 
d="M75 721l276.998 -0.00195312c56.667 0 106.834 -8.66699 150.501 -26s80.334 -41.666 110.001 -72.999s52.167 -69 67.5 -113s23 -92.667 23 -146c0 -52.667 -7 -101.167 -21 -145.5s-35.333 -82.666 -64 -114.999s-65 -57.5 -109 -75.5s-96.333 -27 -157 -27h-277v721z
M343.998 80.998c80.667 0 143.334 21.667 188.001 65s67 114 67 212s-22.333 169.5 -67 214.5s-107.334 67.5 -188.001 67.5h-171v-559h171z" />
    <glyph glyph-name="E" unicode="E" horiz-adv-x="616" 
d="M75 721h496v-81h-399v-223h309v-81h-309v-255h407v-81h-504v721z" />
    <glyph glyph-name="F" unicode="F" horiz-adv-x="591" 
d="M75 721h496v-81h-399v-223h309v-81h-309v-336h-97v721z" />
    <glyph glyph-name="G" unicode="G" horiz-adv-x="754" 
d="M384 383l299.005 -0.00292969v-324c-15.333 -11.333 -33.5 -21.666 -54.5 -30.999s-43.833 -17.333 -68.5 -24s-50.334 -12 -77.001 -16s-53.667 -6 -81 -6c-66 0 -121.667 9.5 -167 28.5s-81.833 45.167 -109.5 78.5s-47.5 73.166 -59.5 119.499s-18 96.5 -18 150.5
s7.66699 103.833 23 149.5s38.166 85.334 68.499 119.001s68 59.834 113 78.501s97.5 28 157.5 28c52 0 97 -4.66699 135 -14s72 -20 102 -32l-29 -76c-21.333 8 -40.833 14.667 -58.5 20s-34.5 9.5 -50.5 12.5s-31.833 5.16699 -47.5 6.5s-31.834 2 -48.501 2
c-84.667 0 -149.334 -25.667 -194.001 -77s-67 -123.666 -67 -216.999c0 -99.333 21.333 -173.5 64 -222.5s104.667 -73.5 186 -73.5c42 0 78.167 4.16699 108.5 12.5s55.166 17.5 74.499 27.5v199h-201v81z" />
    <glyph glyph-name="H" unicode="H" horiz-adv-x="718" 
d="M75 721h98v-304h372v304h98v-721h-98v335h-372v-335h-98v721z" />
    <glyph glyph-name="I" unicode="I" horiz-adv-x="252" 
d="M77 721h98v-721h-98v721z" />
    <glyph glyph-name="J" unicode="J" horiz-adv-x="495" 
d="M43 95c14 -7.33301 34 -14.5 60 -21.5s54.333 -10.5 85 -10.5c42.667 0 76.167 11.833 100.5 35.5s36.5 65.5 36.5 125.5v497h98v-501c0 -77.333 -19.667 -136.333 -59 -177s-98 -61 -176 -61c-46 0 -83.667 4 -113 12s-52 16 -68 24z" />
    <glyph glyph-name="K" unicode="K" horiz-adv-x="672" 
d="M75 721l98 -0.000976562v-310h56c20.667 0 35.667 2.16699 45 6.5s19 12.5 29 24.5l241 292l74 -53l-257 -306l301 -331l-71 -59l-273 300c-7.33301 8 -14 14.833 -20 20.5s-12.167 10.334 -18.5 14.001s-13.5 6.16699 -21.5 7.5s-17.333 2 -28 2h-57v-329h-98v721z" />
    <glyph glyph-name="L" unicode="L" horiz-adv-x="599" 
d="M75 721h98v-640h406v-81h-504v721z" />
    <glyph glyph-name="M" unicode="M" horiz-adv-x="836" 
d="M75 721l98.0029 -0.000976562l200 -346c10 -17.333 18.167 -29.333 24.5 -36s13.5 -10 21.5 -10s15.333 3.16699 22 9.5s15 18.166 25 35.499l200 347h95v-721h-96v550l-129 -226c-10.667 -18.667 -21 -34 -31 -46s-19.833 -21.333 -29.5 -28
s-19.334 -11.167 -29.001 -13.5s-19.5 -3.5 -29.5 -3.5s-19.833 1.33301 -29.5 4s-19.334 7.33398 -29.001 14.001s-19.334 15.834 -29.001 27.501s-19.5 26.5 -29.5 44.5l-129 226v-549h-96v721z" />
    <glyph glyph-name="N" unicode="N" horiz-adv-x="743" 
d="M75 721l108.002 -0.000976562l361 -610l8.5 -13.5c2.33301 -3.66699 5.5 -5.5 9.5 -5.5c5.33301 0 8.66602 2.33301 9.99902 7s2 12.334 2 23.001v599h94v-598c0 -25.333 -2.66699 -46.333 -8 -63s-12.5 -30 -21.5 -40s-19.333 -17.167 -31 -21.5s-23.5 -6.5 -35.5 -6.5
c-15.333 0 -28.5 2 -39.5 6s-20.833 10 -29.5 18s-16.834 17.667 -24.501 29l-24.5 38l-284 482v-565h-95v721z" />
    <glyph glyph-name="O" unicode="O" horiz-adv-x="772" 
d="M126 96c-26.667 34.667 -46.333 74.667 -59 120s-19 92.666 -19 141.999s6.66699 96.666 20 141.999s33.666 85.333 60.999 120s62.333 62.334 105 83.001s93.334 31 152.001 31c60 0 111.5 -10.333 154.5 -31s78 -48.334 105 -83.001s46.833 -74.667 59.5 -120
s19 -92.666 19 -141.999s-6.66699 -96.666 -20 -141.999s-33.666 -85.333 -60.999 -120s-62.333 -62.334 -105 -83.001s-93.334 -31 -152.001 -31c-60 0 -111.5 10.333 -154.5 31s-78.167 48.334 -105.5 83.001zM283.001 86c29.333 -15.333 63.666 -23 102.999 -23
s73.666 7.66699 102.999 23s53.666 36.166 72.999 62.499s33.833 57.5 43.5 93.5s14.5 74.667 14.5 116s-4.83301 80 -14.5 116s-24.167 67.167 -43.5 93.5s-43.666 47.166 -72.999 62.499s-63.666 23 -102.999 23s-73.666 -7.66699 -102.999 -23
s-53.666 -36.166 -72.999 -62.499s-33.833 -57.5 -43.5 -93.5s-14.5 -74.667 -14.5 -116s4.83301 -80 14.5 -116s24.167 -67.167 43.5 -93.5s43.666 -47.166 72.999 -62.499z" />
    <glyph glyph-name="P" unicode="P" horiz-adv-x="622" 
d="M75 721l266 -0.000976562c33.333 0 64.833 -4.16699 94.5 -12.5s55.667 -21.833 78 -40.5s40 -42.5 53 -71.5s19.5 -63.833 19.5 -104.5c0 -33.333 -6.5 -63.666 -19.5 -90.999s-30.667 -50.833 -53 -70.5s-48.833 -35 -79.5 -46s-64 -16.5 -100 -16.5h-161v-268h-98v721
zM318 345.999c20 0 40 2.33301 60 7s37.667 12.667 53 24s28 26.333 38 45s15 42 15 70c0 32.667 -4.66699 59 -14 79s-21.833 35.333 -37.5 46s-33.5 17.667 -53.5 21s-40.667 5 -62 5h-144v-297h145z" />
    <glyph glyph-name="Q" unicode="Q" horiz-adv-x="772" 
d="M520 4c-19.333 -6.66699 -40.168 -11.999 -62.501 -15.999s-46.166 -6 -71.499 -6c-60 0 -111.5 10.167 -154.5 30.5s-78 47.5 -105 81.5s-46.833 73.5 -59.5 118.5s-19 92.167 -19 141.5c0 48.667 6.33301 95.834 19 141.501s32.5 86.167 59.5 121.5
s62 63.666 105 84.999s94.5 32 154.5 32s111.333 -10.667 154 -32s77.667 -49.666 105 -84.999s47.333 -75.833 60 -121.5s19 -92.834 19 -141.501c0 -60.667 -9.83301 -117.334 -29.5 -170.001s-50.5 -96.667 -92.5 -132l109 -133l-71 -58zM282.998 85.001
c29.333 -14.667 63.666 -22.001 102.999 -22.001c40.667 0 75.834 7.5 105.501 22.5s54 35.667 73 62s33 57.333 42 93s13.5 74.167 13.5 115.5s-4.83301 80 -14.5 116s-24.334 67.5 -44.001 94.5s-44.167 48.167 -73.5 63.5s-63.333 23 -102 23
c-39.333 0 -73.666 -7.66699 -102.999 -23s-53.666 -36.5 -72.999 -63.5s-33.833 -58.5 -43.5 -94.5s-14.5 -74.667 -14.5 -116s4.83301 -79.833 14.5 -115.5s24.167 -66.667 43.5 -93s43.666 -47.166 72.999 -62.499z" />
    <glyph glyph-name="R" unicode="R" horiz-adv-x="651" 
d="M75 721l258 -0.00195312c33.333 0 64.666 -3.66699 93.999 -11s55 -19.166 77 -35.499s39.5 -38 52.5 -65s19.5 -60.167 19.5 -99.5c0 -26 -5.16699 -50.5 -15.5 -73.5s-23.833 -43.5 -40.5 -61.5s-35.5 -33 -56.5 -45s-42.5 -20 -64.5 -24
c14 -8.66699 27.167 -18.667 39.5 -30s25.5 -25 39.5 -41l164 -192l-69 -59l-186 215c-16.667 18.667 -31 33.834 -43 45.501s-23.167 20.667 -33.5 27s-20.666 10.5 -30.999 12.5s-21.833 3 -34.5 3h-72v-287h-98v721zM311 365.998c22 0 43 2.83301 63 8.5
s37.5 14.334 52.5 26.001s27 26.167 36 43.5s13.5 37.666 13.5 60.999c0 28.667 -4 52 -12 70s-19.333 32 -34 42s-32.167 16.833 -52.5 20.5s-42.833 5.5 -67.5 5.5h-137v-277h138z" />
    <glyph glyph-name="S" unicode="S" horiz-adv-x="632" 
d="M56 109c74 -30 151.665 -45.002 232.998 -45.002c68.667 0 119.167 11.833 151.5 35.5s48.5 55.5 48.5 95.5c0 24 -5.16699 43.333 -15.5 58s-24.333 26.834 -42 36.501s-38.167 17.167 -61.5 22.5l-73 16c-27.333 5.33301 -55.333 11.833 -84 19.5
s-54.5 18.667 -77.5 33s-41.833 33 -56.5 56s-22 52.5 -22 88.5c0 30 5.33301 57.667 16 83s27.5 47.333 50.5 66s52.833 33.334 89.5 44.001s81.334 16 134.001 16c47.333 0 89.5 -4.33301 126.5 -13s71.5 -18.667 103.5 -30l-25 -78
c-34.667 12.667 -68.667 22.667 -102 30s-70 11 -110 11c-60.667 0 -106.167 -10.667 -136.5 -32s-45.5 -51 -45.5 -89c0 -21.333 5 -38.666 15 -51.999s23.333 -24.333 40 -33s36.167 -15.5 58.5 -20.5s45.5 -9.83301 69.5 -14.5c28.667 -5.33301 57.834 -12 87.501 -20
s56.667 -19.5 81 -34.5s44.166 -34.833 59.499 -59.5s23 -56.334 23 -95.001c0 -68 -25.667 -122 -77 -162s-126.666 -60 -225.999 -60c-62.667 0 -116.167 5.33301 -160.5 16s-77.5 20.667 -99.5 30z" />
    <glyph glyph-name="T" unicode="T" horiz-adv-x="601" 
d="M250 641h-230v80h561v-80h-233v-641h-98v641z" />
    <glyph glyph-name="U" unicode="U" horiz-adv-x="726" 
d="M72 721l98 0.000976562v-398c0 -40 2.33301 -76 7 -108s14 -59.167 28 -81.5s33.5 -39.666 58.5 -51.999s57.833 -18.5 98.5 -18.5s73.667 6 99 18s45 29.167 59 51.5s23.5 49.166 28.5 80.499s7.5 66.333 7.5 105v403h98v-407c0 -48 -4 -92.167 -12 -132.5
s-22.833 -75.333 -44.5 -105s-51.5 -52.834 -89.5 -69.501s-86.667 -25 -146 -25c-60 0 -108.833 7.66699 -146.5 23s-67.167 36.833 -88.5 64.5s-35.833 61 -43.5 100s-11.5 82.5 -11.5 130.5v421z" />
    <glyph glyph-name="V" unicode="V" horiz-adv-x="713" 
d="M12 709l93 20.999l190 -606c7.33301 -24 15.5 -40.167 24.5 -48.5s21.5 -12.5 37.5 -12.5c15.333 0 27.666 4.16699 36.999 12.5s17.666 24.5 24.999 48.5l190 606l92 -21l-186 -603c-6 -18.667 -13 -35.667 -21 -51s-18.333 -28.5 -31 -39.5s-27.5 -19.5 -44.5 -25.5
s-37.5 -9 -61.5 -9s-44.667 2.83301 -62 8.5s-32.166 13.834 -44.499 24.501s-22.666 23.667 -30.999 39s-15.5 33 -21.5 53z" />
    <glyph glyph-name="W" unicode="W" horiz-adv-x="955" 
d="M45 713l97.0029 14l62 -530c3.33301 -27.333 9.16602 -49.5 17.499 -66.5s18.5 -30.167 30.5 -39.5s25 -15.666 39 -18.999s28.667 -5 44 -5c38.667 0 70 11 94 33v621h97v-621c12 -11.333 26.333 -19.666 43 -24.999s34.667 -8 54 -8c14.667 0 29 1.66699 43 5
s26.833 9.66602 38.5 18.999s21.5 22.5 29.5 39.5s13.667 39.167 17 66.5l62 530l97 -14l-65 -534c-3.33301 -30 -9.66602 -56.833 -18.999 -80.5s-22.333 -43.667 -39 -60s-37.167 -29 -61.5 -38s-53.5 -13.5 -87.5 -13.5c-64.667 0 -118.334 14.333 -161.001 43
c-25.333 -14 -50.333 -24.667 -75 -32s-53.334 -11 -86.001 -11c-67.333 0 -116.833 17.167 -148.5 51.5s-50.834 81.166 -57.501 140.499z" />
    <glyph glyph-name="X" unicode="X" horiz-adv-x="696" 
d="M257 371l-219.002 310l76 49l184 -265c12.667 -17.333 22 -29.333 28 -36s13.333 -10 22 -10s16 3.33301 22 10s15.333 18.667 28 36l184 265l76 -50l-216 -308l244 -335l-76 -50l-210 288c-12.667 17.333 -22.167 29.333 -28.5 36s-14.166 10 -23.499 10
s-17.166 -3.33301 -23.499 -10s-15.833 -18.667 -28.5 -36l-210 -288l-76 50z" />
    <glyph glyph-name="Y" unicode="Y" horiz-adv-x="664" 
d="M279 251c-15.333 4 -28.5 9.66895 -39.5 17.002s-21 16.666 -30 27.999s-17.5 24.666 -25.5 39.999s-16.667 33 -26 53l-146 305l87 36l156 -330c7.33301 -16 14 -28.667 20 -38s12 -16.5 18 -21.5s12 -8.33301 18 -10s12.667 -2.5 20 -2.5c8 0 15 0.833008 21 2.5
s12 5 18 10s12 12.5 18 22.5s13 23 21 39l156 327l87 -35l-142 -290l-28.5 -55.5c-9 -17 -18.5 -32 -28.5 -45s-21 -23.833 -33 -32.5s-26 -15 -42 -19v-252h-99v251z" />
    <glyph glyph-name="Z" unicode="Z" horiz-adv-x="616" 
d="M448 641h-391.001v80h525v-61l-449 -541c-5.33301 -6 -9.16602 -10.833 -11.499 -14.5s-3.5 -7.5 -3.5 -11.5c0 -8.66699 6.66699 -13 20 -13h446v-80h-481c-32.667 0 -56.334 6.5 -71.001 19.5s-22 31.5 -22 55.5c0 10 2.33301 21.167 7 33.5s15.334 28.5 32.001 48.5z
" />
    <glyph glyph-name="bracketleft" unicode="[" horiz-adv-x="349" 
d="M74 720h255v-74h-161v-716h161v-75h-255v865z" />
    <glyph glyph-name="backslash" unicode="\" horiz-adv-x="463" 
d="M12 764h97l343 -842h-96z" />
    <glyph glyph-name="bracketright" unicode="]" horiz-adv-x="349" 
d="M20 -70h162v716h-162v74h255v-865h-255v75z" />
    <glyph glyph-name="asciicircum" unicode="^" horiz-adv-x="553" 
d="M163 633c16 35.333 31.832 61 47.499 77s37.5 24 65.5 24s49.833 -7.83301 65.5 -23.5s31.5 -41.167 47.5 -76.5l113 -252l-77 -29l-115 259c-4.66699 10.667 -9.16699 18.667 -13.5 24s-11.166 8 -20.499 8s-16 -2.66699 -20 -8s-8.33301 -13.333 -13 -24l-115 -259
l-77 29z" />
    <glyph glyph-name="underscore" unicode="_" horiz-adv-x="601" 
d="M50 0h501v-79h-501v79z" />
    <glyph glyph-name="grave" unicode="`" 
d="M153 745l77 53l131 -188l-57 -40z" />
    <glyph glyph-name="a" unicode="a" horiz-adv-x="544" 
d="M402 36c-10 -6 -21.1689 -12.1709 -33.502 -18.5039s-26 -12.166 -41 -17.499s-31.167 -9.66602 -48.5 -12.999s-35.666 -5 -54.999 -5c-25.333 0 -49.166 3 -71.499 9s-42 15.333 -59 28s-30.5 28.834 -40.5 48.501s-15 43.5 -15 71.5c0 29.333 5.66699 54.333 17 75
s26.166 37.667 44.499 51s39.333 23 63 29s47.834 9 72.501 9h142v24c0 43.333 -8.5 73.5 -25.5 90.5s-45.5 25.5 -85.5 25.5c-27.333 0 -52.833 -2 -76.5 -6s-50.5 -11.333 -80.5 -22l-24 69c23.333 8.66699 50.5 16.667 81.5 24s67.5 11 109.5 11
c41.333 0 74.833 -5 100.5 -15s45.5 -24 59.5 -42s23.5 -39.667 28.5 -65s7.5 -53.666 7.5 -84.999v-215l42 -63l-64 -51zM378.998 228.996l-139.001 0.000976562c-29.333 0 -54.166 -7 -74.499 -21s-30.5 -35.667 -30.5 -65c0 -16 3 -29.5 9 -40.5
s13.833 -19.833 23.5 -26.5s21 -11.334 34 -14.001s26.5 -4 40.5 -4c30 0 55.833 5.16699 77.5 15.5s41.5 21.5 59.5 33.5v122z" />
    <glyph glyph-name="b" unicode="b" horiz-adv-x="586" 
d="M71 721l93 -0.00195312v-229c18 8.66699 39.333 15.334 64 20.001s49.667 7 75 7c34.667 0 66.667 -5.83301 96 -17.5s54.666 -28.667 75.999 -51s37.833 -50.166 49.5 -83.499s17.5 -71.333 17.5 -114c0 -40.667 -5.83301 -77.667 -17.5 -111s-29 -61.833 -52 -85.5
s-51.167 -42 -84.5 -55s-71.666 -19.5 -114.999 -19.5c-28 0 -59.167 1.5 -93.5 4.5s-70.5 9.83301 -108.5 20.5v714zM164 69.998c15.333 -4.66699 31.332 -7.66504 47.999 -8.99805s38 -2 64 -2c22.667 0 44 3.5 64 10.5s37.667 18.167 53 33.5
s27.666 35.166 36.999 59.499s14 54.166 14 89.499s-4.33301 65 -13 89s-20.167 43.333 -34.5 58s-31.166 25.167 -50.499 31.5s-39.666 9.5 -60.999 9.5c-22 0 -42.833 -1.83301 -62.5 -5.5s-39.167 -10.5 -58.5 -20.5v-344z" />
    <glyph glyph-name="c" unicode="c" horiz-adv-x="529" 
d="M494 19c-25.333 -10.667 -53.6689 -19.5 -85.002 -26.5s-66 -10.5 -104 -10.5c-48 0 -88.667 6.5 -122 19.5s-60.166 31 -80.499 54s-35.166 50.667 -44.499 83s-14 68.166 -14 107.499c0 38.667 5.66699 74.667 17 108s28.166 62.166 50.499 86.499s50 43.333 83 57
s71.167 20.5 114.5 20.5c40 0 74.833 -3.66699 104.5 -11s55.167 -15.333 76.5 -24l-29 -73c-29.333 10.667 -55.333 18.334 -78 23.001s-46.334 7 -71.001 7c-28 0 -52.667 -4.83301 -74 -14.5s-39.166 -23 -53.499 -40s-25.166 -37.5 -32.499 -61.5s-11 -50 -11 -78
c0 -61.333 14 -107.666 42 -138.999s69 -47 123 -47c26 0 52.167 2.16699 78.5 6.5s53.833 12.5 82.5 24.5z" />
    <glyph glyph-name="d" unicode="d" horiz-adv-x="593" 
d="M446 36c-21.333 -13.333 -45.8311 -25.666 -73.498 -36.999s-59.167 -17 -94.5 -17c-40.667 0 -75.834 6.5 -105.501 19.5s-54 31.167 -73 54.5s-33 50.833 -42 82.5s-13.5 66.5 -13.5 104.5c0 41.333 6.16699 79 18.5 113s30.166 63 53.499 87s51.833 42.667 85.5 56
s72.167 20 115.5 20c24 0 43.5 -0.833008 58.5 -2.5s31.167 -3.83398 48.5 -6.50098v211h93v-624l43 -64l-64 -50zM424.002 429c-16 4 -31.999 7.16797 -47.999 9.50098s-36.333 3.5 -61 3.5c-22 0 -43.333 -3.83301 -64 -11.5s-39 -19.5 -55 -35.5s-29 -36.5 -39 -61.5
s-15 -55.167 -15 -90.5c0 -34.667 4 -63.667 12 -87s18.833 -42 32.5 -56s29.167 -24 46.5 -30s35 -9 53 -9c33.333 0 61.166 5.66699 83.499 17s40.5 21.666 54.5 30.999v320z" />
    <glyph glyph-name="e" unicode="e" horiz-adv-x="563" 
d="M419 297c0 27.333 -3.33105 50.333 -9.99805 69s-15.834 33.667 -27.501 45s-25.334 19.333 -41.001 24s-32.5 7 -50.5 7c-45.333 0 -80.333 -13.167 -105 -39.5s-38.667 -61.5 -42 -105.5h276zM506.002 20c-24 -8.66699 -51.999 -17.1699 -83.999 -25.5029
s-71 -12.5 -117 -12.5c-48 0 -88.5 6.33301 -121.5 19s-59.833 30.667 -80.5 54s-35.667 51.333 -45 84s-14 69 -14 109c0 36.667 5 71.334 15 104.001s25.167 61.334 45.5 86.001s46 44.334 77 59.001s67.5 22 109.5 22c75.333 0 131.5 -22 168.5 -66
s55.5 -106.333 55.5 -187l-45 -44h-328c1.33301 -50 16.166 -89.5 44.499 -118.5s68.5 -43.5 120.5 -43.5c16.667 0 31.667 0.666992 45 2s26.5 3.33301 39.5 6s26.5 6 40.5 10l48 14z" />
    <glyph glyph-name="f" unicode="f" horiz-adv-x="372" 
d="M96 427l-71 -0.000976562v74h71v66c0 24 3.33301 46.167 10 66.5s17.334 38 32.001 53s33.5 26.667 56.5 35s50.833 12.5 83.5 12.5c18.667 0 36.667 -1.16699 54 -3.5s35.666 -6.16602 54.999 -11.499l-16 -70c-16.667 4.66699 -31.667 8 -45 10s-28.666 3 -45.999 3
c-19.333 0 -34.833 -2.66699 -46.5 -8s-20.834 -12.5 -27.501 -21.5s-11.167 -19.833 -13.5 -32.5s-3.5 -26 -3.5 -40v-59h167v-74h-167v-427h-93v427z" />
    <glyph glyph-name="g" unicode="g" horiz-adv-x="589" 
d="M423 396c-14.667 12.667 -32.832 23 -54.499 31s-45.5 12 -71.5 12c-20.667 0 -40.334 -3.16699 -59.001 -9.5s-35 -17 -49 -32s-25.333 -34.5 -34 -58.5s-13 -53.667 -13 -89c0 -68 14 -116.833 42 -146.5s64.667 -44.5 110 -44.5c25.333 0 48.333 2.16699 69 6.5
s40.667 10.5 60 18.5v312zM118.002 -120c20 -6 43.6689 -12.1709 71.002 -18.5039s57 -9.5 89 -9.5c16 0 32.5 1.16699 49.5 3.5s32.5 7.33301 46.5 15s25.667 18.334 35 32.001s14 32.167 14 55.5v45c-20 -5.33301 -40.667 -10.166 -62 -14.499s-44.333 -6.5 -69 -6.5
c-46 0 -84.833 6.83301 -116.5 20.5s-57.334 32.5 -77.001 56.5s-33.667 52.333 -42 85s-12.5 68 -12.5 106c0 42.667 6.5 80.834 19.5 114.501s30.667 61.834 53 84.501s48.666 40 78.999 52s62.5 18 96.5 18c24 0 49 -3.33301 75 -10s50 -16.667 72 -30l28 46l80 -37
l-31 -84v-442c0 -37.333 -6.83301 -68 -20.5 -92s-31.667 -43 -54 -57s-47.833 -23.833 -76.5 -29.5s-58 -8.5 -88 -8.5c-34 0 -66.667 2.66699 -98 8s-59 12.333 -83 21z" />
    <glyph glyph-name="h" unicode="h" horiz-adv-x="589" 
d="M68 721l93.002 0.000976562v-245c26 12.667 52.667 23 80 31s57.666 12 90.999 12c34.667 0 64 -5.16699 88 -15.5s43.167 -24.333 57.5 -42s24.666 -38.334 30.999 -62.001s9.5 -48.5 9.5 -74.5v-325h-93v321c0 42 -10.5 72.167 -31.5 90.5s-48.5 27.5 -82.5 27.5
c-30.667 0 -58.667 -4.33301 -84 -13s-47.333 -17.667 -66 -27v-399h-93v721z" />
    <glyph glyph-name="i" unicode="i" horiz-adv-x="258" 
d="M94 427h-58v74h151v-501h-93v427zM88 616c-10.667 12.667 -16 28 -16 46s5.33301 33.5 16 46.5s26.667 19.5 48 19.5s37.333 -6.5 48 -19.5s16 -28.5 16 -46.5s-5.33301 -33.333 -16 -46s-26.667 -19 -48 -19s-37.333 6.33301 -48 19z" />
    <glyph glyph-name="j" unicode="j" horiz-adv-x="250" 
d="M-104 -128c13.333 -4.66699 28.666 -8.83398 45.999 -12.501s36.666 -5.5 57.999 -5.5c20.667 0 36.834 2.66699 48.501 8s20.5 12.666 26.5 21.999s9.83301 20.333 11.5 33s2.5 26.334 2.5 41.001v543h93v-560c0 -23.333 -2.83301 -45.166 -8.5 -65.499
s-15.167 -38 -28.5 -53s-31.666 -26.667 -54.999 -35s-52.333 -12.5 -87 -12.5c-18.667 0 -40.5 1.83301 -65.5 5.5s-45.833 9.5 -62.5 17.5zM87 616c-10.667 12.667 -16 28 -16 46s5.33301 33.5 16 46.5s26.667 19.5 48 19.5s37.333 -6.5 48 -19.5s16 -28.5 16 -46.5
s-5.33301 -33.333 -16 -46s-26.667 -19 -48 -19s-37.333 6.33301 -48 19z" />
    <glyph glyph-name="k" unicode="k" horiz-adv-x="541" 
d="M71 721h93.001v-414h32c15.333 0 27.333 1.33301 36 4s17.334 8.66699 26.001 18l167 191l71 -52l-175 -195l220 -229l-66 -59l-202 209c-10.667 11.333 -20.334 19.5 -29.001 24.5s-21.334 7.5 -38.001 7.5h-42v-226h-93v721z" />
    <glyph glyph-name="l" unicode="l" horiz-adv-x="248" 
d="M84 643h-58v78h151v-721h-93v643z" />
    <glyph glyph-name="m" unicode="m" horiz-adv-x="853" 
d="M73 404l-31.001 84.0029l80 37l31 -53c19.333 11.333 43 22 71 32s56.333 15 85 15c32.667 0 60.5 -4.33301 83.5 -13s41.5 -19.667 55.5 -33c24.667 11.333 51.5 21.833 80.5 31.5s58.5 14.5 88.5 14.5c34.667 0 63 -5.16699 85 -15.5s39.333 -24.5 52 -42.5
s21.167 -38.833 25.5 -62.5s6.5 -48.5 6.5 -74.5v-324h-93v319c0 43.333 -7.5 74.166 -22.5 92.499s-39.833 27.5 -74.5 27.5c-23.333 0 -46 -3 -68 -9s-40.667 -13 -56 -21c2 -8 3.66699 -19.833 5 -35.5s2 -32.5 2 -50.5v-323h-93v319c0 22 -1.16699 40.667 -3.5 56
s-7 27.666 -14 36.999s-16.667 16.166 -29 20.499s-28.166 6.5 -47.499 6.5c-28.667 0 -53 -3.66699 -73 -11s-37.667 -15.333 -53 -24v-404h-93v404z" />
    <glyph glyph-name="n" unicode="n" horiz-adv-x="586" 
d="M73 404l-30.999 84.001l80 37l31 -53c28 13.333 56.5 24.5 85.5 33.5s61.167 13.5 96.5 13.5s64.833 -5.16699 88.5 -15.5s42.5 -24.333 56.5 -42s24 -38.334 30 -62.001s9 -48.5 9 -74.5v-325h-93v320c0 42 -10 72.333 -30 91s-47 28 -81 28
c-30.667 0 -58.334 -4.33301 -83.001 -13s-46.667 -17.667 -66 -27v-399h-93v404z" />
    <glyph glyph-name="o" unicode="o" horiz-adv-x="591" 
d="M296 59c50 0 88.333 16.167 115 48.5s40 79.833 40 142.5c0 63.333 -13.5 111.166 -40.5 143.499s-65.167 48.5 -114.5 48.5c-50.667 0 -89.5 -16.167 -116.5 -48.5s-40.5 -80.166 -40.5 -143.499c0 -62.667 13.667 -110.167 41 -142.5s66 -48.5 116 -48.5zM100 59
c-19.333 24 -33.501 52.333 -42.501 85s-13.5 68 -13.5 106s5.16699 73.5 15.5 106.5s26 61.5 47 85.5s47.333 42.833 79 56.5s68.5 20.5 110.5 20.5c43.333 0 80.833 -6.83301 112.5 -20.5s57.667 -32.5 78 -56.5s35.5 -52.333 45.5 -85s15 -68 15 -106
s-4.66699 -73.5 -14 -106.5s-24.166 -61.5 -44.499 -85.5s-46.5 -42.833 -78.5 -56.5s-70.333 -20.5 -115 -20.5c-46 0 -85 6.83301 -117 20.5s-58 32.5 -78 56.5z" />
    <glyph glyph-name="p" unicode="p" horiz-adv-x="590" 
d="M166 80c9.33301 -3.33301 18.333 -6.33008 27 -8.99707s17.667 -4.83398 27 -6.50098s19.666 -3 30.999 -4s24.333 -1.5 39 -1.5c20.667 0 40.5 3.5 59.5 10.5s35.833 18.167 50.5 33.5s26.334 35.166 35.001 59.499s13 54.166 13 89.499c0 34.667 -4 64 -12 88
s-18.667 43.333 -32 58s-29.333 25.167 -48 31.5s-38.667 9.5 -60 9.5c-24 0 -45.833 -3.66699 -65.5 -11s-41.167 -17.333 -64.5 -30v-318zM73 404.003l-30.9971 83.998l80 37l31 -53c22.667 11.333 47.5 22 74.5 32s57.5 15 91.5 15c32.667 0 63 -5.83301 91 -17.5
s52 -28.667 72 -51s35.667 -50.166 47 -83.499s17 -71.666 17 -114.999c0 -40 -5.33301 -76.667 -16 -110s-26.834 -61.833 -48.501 -85.5s-48.834 -42 -81.501 -55s-71 -19.5 -115 -19.5c-17.333 0 -36.333 1.33301 -57 4s-41.334 6.66699 -62.001 12v-216h-93v622z" />
    <glyph glyph-name="q" unicode="q" horiz-adv-x="585" 
d="M421 2c-20.667 -6 -42.501 -10.8359 -65.501 -14.5029s-44.167 -5.5 -63.5 -5.5c-43.333 0 -80.666 6.33301 -111.999 19s-57 30.5 -77 53.5s-34.833 50.833 -44.5 83.5s-14.5 69.334 -14.5 110.001c0 42.667 6.83301 80.834 20.5 114.501s32.667 62.167 57 85.5
s53.5 41 87.5 53s71.333 18 112 18c33.333 0 65.333 -2.16699 96 -6.5s63 -11.166 97 -20.499v-710h-93v220zM420.999 428.997c-15.333 4 -33.0049 6.83203 -53.0049 8.49902s-36 2.5 -48 2.5c-22.667 0 -44.667 -3.5 -66 -10.5s-40.166 -18.167 -56.499 -33.5
s-29.666 -35.166 -39.999 -59.499s-15.5 -53.833 -15.5 -88.5c0 -35.333 3.83301 -65 11.5 -89s18.334 -43.5 32.001 -58.5s29.667 -25.667 48 -32s38.5 -9.5 60.5 -9.5c26.667 0 49.834 2.33301 69.501 7s38.834 10.667 57.501 18v345z" />
    <glyph glyph-name="r" unicode="r" horiz-adv-x="396" 
d="M94 427l-57.9971 0.000976562v74h127l12 -51c6.66699 5.33301 15.334 11.333 26.001 18s22.667 13 36 19s28.166 11 44.499 15s33.166 6 50.499 6c12 0 21.833 -0.5 29.5 -1.5s15.834 -2.83301 24.501 -5.5l-16 -82c-6 1.33301 -12.667 2.66602 -20 3.99902
s-18.333 2 -33 2c-12 0 -24.333 -1.5 -37 -4.5s-24.834 -6.83301 -36.501 -11.5s-22.334 -10.167 -32.001 -16.5s-17.834 -12.833 -24.501 -19.5v-373h-93v427z" />
    <glyph glyph-name="s" unicode="s" horiz-adv-x="479" 
d="M51 91c2.66699 -1.33301 9.66992 -3.66406 21.0029 -6.99707s25 -6.83301 41 -10.5s33.833 -7 53.5 -10s39.167 -4.5 58.5 -4.5c42 0 72.667 7.33301 92 22s29 34 29 58c0 13.333 -2.66699 24.333 -8 33s-13.5 15.834 -24.5 21.501s-24.5 10.5 -40.5 14.5
s-34.333 8 -55 12c-16 2.66699 -34 6.33398 -54 11.001s-38.833 12.167 -56.5 22.5s-32.5 24.166 -44.5 41.499s-18 40.666 -18 69.999c0 22 4 42.333 12 61s20.5 35 37.5 49s38.667 24.833 65 32.5s57.5 11.5 93.5 11.5c40 0 76 -4 108 -12s55.667 -15.667 71 -23l-28 -70
c-23.333 8 -47.5 15 -72.5 21s-53.167 9 -84.5 9c-39.333 0 -67.333 -6.33301 -84 -19s-25 -29.667 -25 -51c0 -14.667 3.83301 -26.5 11.5 -35.5s18 -16.333 31 -22s27.667 -10.167 44 -13.5s33.5 -6.33301 51.5 -9c20 -3.33301 39.833 -7.83301 59.5 -13.5
s37.5 -13.834 53.5 -24.501s28.833 -24.834 38.5 -42.501s14.5 -40.5 14.5 -68.5c0 -50 -18.167 -89.667 -54.5 -119s-91.5 -44 -165.5 -44c-23.333 0 -45.833 1.5 -67.5 4.5s-41.334 6.33301 -59.001 10s-32.334 7.16699 -44.001 10.5s-18.834 5.66602 -21.501 6.99902z
" />
    <glyph glyph-name="t" unicode="t" horiz-adv-x="398" 
d="M99 427h-71v74h71v149h92v-149h168v-74h-168v-259c0 -40 7.33301 -67.667 22 -83s37 -23 67 -23c17.333 0 33.333 1.16699 48 3.5s30.334 5.83301 47.001 10.5l18 -71c-22.667 -6 -43.834 -10.5 -63.501 -13.5s-42.167 -4.5 -67.5 -4.5c-24 0 -46 2.66699 -66 8
s-37.167 14.333 -51.5 27s-25.5 29 -33.5 49s-12 45 -12 75v281z" />
    <glyph glyph-name="u" unicode="u" horiz-adv-x="584" 
d="M65 501l93 -0.000976562v-320c0 -43.333 10 -74 30 -92s47 -27 81 -27c30.667 0 58.334 4.83301 83.001 14.5s45.667 20.167 63 31.5v393h93v-405l43 -62l-65 -51l-50 52c-24 -15.333 -51.667 -28 -83 -38s-63.666 -15 -96.999 -15
c-36.667 0 -67.334 5.16699 -92.001 15.5s-44.334 24.333 -59.001 42s-25 38.334 -31 62.001s-9 48.5 -9 74.5v325z" />
    <glyph glyph-name="v" unicode="v" horiz-adv-x="579" 
d="M15 487l88.0029 22l138 -395c7.33301 -20.667 14.666 -34.667 21.999 -42s16.333 -11 27 -11c10 0 18.667 3.66699 26 11s14.666 21 21.999 41l138 396l88 -22l-137 -390c-6.66699 -18.667 -13.834 -35.167 -21.501 -49.5s-16.834 -26.333 -27.501 -36
s-23.334 -17 -38.001 -22s-32 -7.5 -52 -7.5s-37.167 2.5 -51.5 7.5s-26.666 12.5 -36.999 22.5s-19.166 22.167 -26.499 36.5s-14.333 30.833 -21 49.5z" />
    <glyph glyph-name="w" unicode="w" horiz-adv-x="791" 
d="M43 490l93.999 11.001l39 -368c2 -16.667 6.16699 -29.834 12.5 -39.501s14 -17 23 -22s18.5 -8.33301 28.5 -10s19.667 -2.5 29 -2.5c14 0 28.167 1.83301 42.5 5.5s27.833 10.167 40.5 19.5v417h88v-417c12.667 -9.33301 26.167 -15.833 40.5 -19.5
s28.5 -5.5 42.5 -5.5c8.66699 0 18 0.833008 28 2.5s19.5 5 28.5 10s16.833 12.333 23.5 22s11 22.5 13 38.5l39 369l93 -11l-41 -369c-2 -20 -6.66699 -38.333 -14 -55s-17.666 -31.334 -30.999 -44.001s-29.833 -22.5 -49.5 -29.5s-43.167 -10.5 -70.5 -10.5
c-28.667 0 -54.5 3.5 -77.5 10.5s-45.833 16.167 -68.5 27.5c-22.667 -11.333 -45.667 -20.5 -69 -27.5s-49.333 -10.5 -78 -10.5c-28 0 -52 3.5 -72 10.5s-36.5 16.833 -49.5 29.5s-23 27.334 -30 44.001s-11.5 35 -13.5 55z" />
    <glyph glyph-name="x" unicode="x" horiz-adv-x="536" 
d="M185 252l-158 211l67 51l142 -192c8 -10.667 14 -17.334 18 -20.001s8.66699 -4 14 -4s10 1.33301 14 4s10 9.33398 18 20.001l142 192l67 -51l-158 -211l180 -218l-68 -51l-162 196c-8.66699 10 -15 16.5 -19 19.5s-8.66699 4.5 -14 4.5s-10 -1.5 -14 -4.5
s-10.333 -9.5 -19 -19.5l-162 -196l-68 51z" />
    <glyph glyph-name="y" unicode="y" horiz-adv-x="554" 
d="M76 -132c21.333 -5.33301 40.999 -9.5 58.999 -12.5s37 -4.5 57 -4.5c26.667 0 48.834 5.33301 66.501 16s30.834 30.334 39.501 59.001l16 60c-16 -2 -30.667 -3 -44 -3c-24.667 0 -45.667 3 -63 9s-32 15.167 -44 27.5s-22.167 27.666 -30.5 45.999
s-15.5 39.5 -21.5 63.5l-94 362l90 22l94 -364c4 -14.667 8.16699 -27.5 12.5 -38.5s10 -20.167 17 -27.5s15.667 -12.833 26 -16.5s23.166 -5.5 38.499 -5.5c10.667 0 23.667 1 39 3l118 449l85 -22l-148 -568c-7.33301 -29.333 -17.5 -53.5 -30.5 -72.5s-28 -34 -45 -45
s-35.833 -18.833 -56.5 -23.5s-43 -7 -67 -7c-19.333 0 -41 1.66699 -65 5s-45.333 8 -64 14z" />
    <glyph glyph-name="z" unicode="z" horiz-adv-x="507" 
d="M347 424h-295v77h418v-75l-325 -316c-4 -4 -7 -7.33301 -9 -10s-3 -5.66699 -3 -9c0 -8.66699 7 -13 21 -13h324v-78h-359c-32 0 -55.333 7.5 -70 22.5s-22 32.833 -22 53.5c0 14 3 26.5 9 37.5s14 21.167 24 30.5z" />
    <glyph glyph-name="braceleft" unicode="{" horiz-adv-x="421" 
d="M144 266l-96 -0.00390625v74h96v264c0 20 1.83301 37.333 5.5 52s10 26.834 19 36.501s20.833 16.834 35.5 21.501s33.334 7 56.001 7h141v-74h-125c-14 0 -24.5 -2.66699 -31.5 -8s-10.5 -15.333 -10.5 -30v-642c0 -14.667 3.5 -24.667 10.5 -30s17.5 -8 31.5 -8h125
v-74h-141c-22.667 0 -41.334 2.33301 -56.001 7s-26.5 11.834 -35.5 21.501s-15.333 21.834 -19 36.501s-5.5 32 -5.5 52v294z" />
    <glyph glyph-name="bar" unicode="|" horiz-adv-x="247" 
d="M77 791h93v-1018h-93v1018z" />
    <glyph glyph-name="braceright" unicode="}" horiz-adv-x="421" 
d="M20 -71l125 -0.00195312c14 0 24.5 2.66699 31.5 8s10.5 15.333 10.5 30v642c0 14.667 -3.5 24.667 -10.5 30s-17.5 8 -31.5 8h-125v74h140c44.667 0 75.334 -9.66699 92.001 -29s25 -48.666 25 -87.999v-264h95v-74h-95v-294c0 -39.333 -8.33301 -68.666 -25 -87.999
s-47.334 -29 -92.001 -29h-140v74z" />
    <glyph glyph-name="asciitilde" unicode="~" horiz-adv-x="634" 
d="M64 352c7.33301 8.66699 16.8291 17.8311 28.4961 27.498s24.5 18.5 38.5 26.5s28.333 14.667 43 20s29 8 43 8c17.333 0 33.833 -2.5 49.5 -7.5s31.334 -10.333 47.001 -16s31.334 -11 47.001 -16s32.167 -7.5 49.5 -7.5c20.667 0 39.834 6 57.501 18
s32.834 23.667 45.501 35l52 -60c-7.33301 -9.33301 -17 -18.666 -29 -27.999s-25 -17.833 -39 -25.5s-28.333 -14 -43 -19s-29 -7.5 -43 -7.5c-17.333 0 -34 2.33301 -50 7s-31.833 9.83398 -47.5 15.501s-31.5 10.834 -47.5 15.501s-32.333 7 -49 7
c-20.667 0 -39.5 -5.83301 -56.5 -17.5s-31.833 -22.834 -44.5 -33.501z" />
    <glyph glyph-name="uni00A0" unicode="&#xa0;" horiz-adv-x="200" 
 />
    <glyph glyph-name="exclamdown" unicode="&#xa1;" horiz-adv-x="267" 
d="M76 297h78l17 -516h-112zM66 400c-10.667 13.333 -16 30 -16 50s5.33301 36.5 16 49.5s27.334 19.5 50.001 19.5s39.334 -6.5 50.001 -19.5s16 -29.5 16 -49.5s-5.33301 -36.5 -16 -49.5s-27.334 -19.5 -50.001 -19.5s-39.334 6.33301 -50.001 19z" />
    <glyph glyph-name="cent" unicode="&#xa2;" horiz-adv-x="570" 
d="M297 57c-40 4 -73.666 12.999 -100.999 26.999s-49.666 32.5 -66.999 55.5s-29.833 49.667 -37.5 80s-11.5 63.5 -11.5 99.5c0 35.333 4.66699 68.166 14 98.499s23 57.333 41 81s40.5 43.167 67.5 58.5s58.5 25.333 94.5 30v114h85v-111
c31.333 -2.66699 58.666 -7.16699 81.999 -13.5s44 -13.166 62 -20.499l-29 -71c-14.667 5.33301 -28 9.83301 -40 13.5s-23.833 6.5 -35.5 8.5s-23.334 3.33301 -35.001 4s-24.5 1 -38.5 1c-28 0 -52.667 -4.83301 -74 -14.5s-39.166 -23 -53.499 -40
s-25.166 -37.333 -32.499 -61s-11 -49.5 -11 -77.5c0 -61.333 14 -107.666 42 -138.999s69 -47 123 -47c26 0 52.167 2.16699 78.5 6.5s53.833 12.5 82.5 24.5l27 -72c-20.667 -8.66699 -43.334 -16.167 -68.001 -22.5s-51.334 -10.833 -80.001 -13.5v-117h-85v118z" />
    <glyph glyph-name="sterling" unicode="&#xa3;" horiz-adv-x="601" 
d="M143 309l-101.002 0.000976562v81h124l40 142c8 30 17.833 56.667 29.5 80s26.334 43 44.001 59s38.834 28.333 63.501 37s54.334 13 89.001 13c32 0 63.833 -4.33301 95.5 -13s59.5 -19.334 83.5 -32.001l-35 -72c-17.333 9.33301 -38.166 17.5 -62.499 24.5
s-50.166 10.5 -77.499 10.5c-12.667 0 -25.334 -0.833008 -38.001 -2.5s-24.834 -5.83398 -36.501 -12.501s-22.334 -16.5 -32.001 -29.5s-17.5 -30.833 -23.5 -53.5l-43 -151h221v-81h-243l-49 -174c-1.33301 -6 -2.66602 -11.667 -3.99902 -17s-2 -10.333 -2 -15
c0 -15.333 10 -23 30 -23h346v-80h-397c-16.667 0 -30.334 1.66699 -41.001 5s-19.167 8 -25.5 14s-10.833 12.833 -13.5 20.5s-4 16.167 -4 25.5c0 12.667 1.83301 25.834 5.5 39.501l10.5 40.5z" />
    <glyph glyph-name="currency" unicode="&#xa4;" horiz-adv-x="732" 
d="M180 233c-14.667 19.333 -25.6689 39.3311 -33.002 59.998s-11 44.334 -11 71.001c0 25.333 3.5 48 10.5 68s17.167 39.333 30.5 58l-147 149l65 60l143 -146c18.667 12.667 38.834 22.5 60.501 29.5s44.5 10.5 68.5 10.5c23.333 0 45.666 -3.33301 66.999 -10
s41.333 -16.334 60 -29.001l142 145l66 -60l-145 -147c13.333 -19.333 23.5 -39.166 30.5 -59.499s10.5 -43.166 10.5 -68.499c0 -27.333 -3.66699 -51.333 -11 -72s-18.666 -40.667 -33.999 -60l149 -151l-63 -57l-147 149c-37.333 -24.667 -79 -37 -125 -37
c-23.333 0 -45.666 3.33301 -66.999 10s-41 16 -59 28l-149 -150l-62 57zM309.998 229.998c18 -7.33301 37 -11 57 -11s38.833 3.83301 56.5 11.5s33 18 46 31s23.333 28.333 31 46s11.5 36.5 11.5 56.5s-3.83301 38.833 -11.5 56.5s-18 33 -31 46s-28.333 23.333 -46 31
s-36.5 11.5 -56.5 11.5s-38.833 -3.83301 -56.5 -11.5s-33 -18 -46 -31s-23.333 -28.333 -31 -46s-11.5 -36.5 -11.5 -56.5s3.83301 -38.833 11.5 -56.5s18 -33 31 -46s28.167 -23.5 45.5 -31.5z" />
    <glyph glyph-name="yen" unicode="&#xa5;" horiz-adv-x="660" 
d="M103 223h174v83h-174v72h91c-7.33301 8 -14.166 17.5 -20.499 28.5s-12.5 22.833 -18.5 35.5l-120 252l87 36l130 -276c7.33301 -16 14 -28.667 20 -38s12 -16.5 18 -21.5s12.167 -8.33301 18.5 -10s13.166 -2.5 20.499 -2.5c8 0 15 0.833008 21 2.5s12 5 18 10
s12.167 12.5 18.5 22.5s13.5 23 21.5 39l130 273l87 -35l-116 -237c-7.33301 -15.333 -15 -30.333 -23 -45s-16.667 -26 -26 -34h98v-72h-182v-83h182v-72h-182v-151h-99v151h-174v72z" />
    <glyph glyph-name="brokenbar" unicode="&#xa6;" horiz-adv-x="247" 
d="M77 196h93v-423h-93v423zM77 791h93v-363h-93v363z" />
    <glyph glyph-name="section" unicode="&#xa7;" horiz-adv-x="605" 
d="M101 -23c23.333 -8 48.334 -15.499 75.001 -22.499s60 -10.5 100 -10.5c16.667 0 33.667 1.66699 51 5s33 8.66602 47 15.999s25.5 16.833 34.5 28.5s13.5 26.167 13.5 43.5c0 15.333 -4.33301 28.166 -13 38.499s-20.167 19 -34.5 26s-31 12.833 -50 17.5l-59.5 14
c-26.667 6 -52 12.5 -76 19.5s-45 16.167 -63 27.5s-32.333 26 -43 44s-16 40.667 -16 68c0 26 6.5 51.167 19.5 75.5s34.833 48.833 65.5 73.5c-16 12 -29.167 27 -39.5 45s-15.5 39.667 -15.5 65c0 27.333 6 51.5 18 72.5s28.167 38.833 48.5 53.5s44.333 25.667 72 33
s57.167 11 88.5 11c42.667 0 80.167 -4 112.5 -12s56.166 -15.667 71.499 -23l-28 -70c-23.333 8 -47.5 15 -72.5 21s-53.167 9 -84.5 9c-16.667 0 -33 -1.5 -49 -4.5s-30.333 -8.16699 -43 -15.5s-23 -16.833 -31 -28.5s-12 -26.167 -12 -43.5s4.33301 -31.166 13 -41.499
s20.167 -19 34.5 -26s31 -12.833 50 -17.5l59.5 -14c27.333 -6.66699 53.166 -13.5 77.499 -20.5s45.5 -16 63.5 -27s32.333 -24.833 43 -41.5s16 -37.667 16 -63c0 -27.333 -6 -54 -18 -80s-33.333 -51.333 -64 -76c14 -12 25.833 -26.5 35.5 -43.5
s14.5 -37.833 14.5 -62.5c0 -27.333 -6.5 -51.666 -19.5 -72.999s-30.5 -39.333 -52.5 -54s-47.333 -25.834 -76 -33.501s-58.667 -11.5 -90 -11.5c-52.667 0 -95.667 4.5 -129 13.5s-57.666 17.167 -72.999 24.5zM169.001 353.001
c-10.667 -17.333 -15.999 -35.9941 -15.999 -55.9941c0 -14 3.33301 -25.5 10 -34.5s16.667 -16.833 30 -23.5s30 -12.5 50 -17.5s43.667 -10.167 71 -15.5c11.333 -2.66699 24 -5.33398 38 -8.00098s27.667 -6.33398 41 -11.001c25.333 17.333 42.166 34.666 50.499 51.999
s12.5 35.666 12.5 54.999c0 13.333 -3.33301 24.666 -10 33.999s-16.5 17.333 -29.5 24s-29.667 12.667 -50 18s-43.833 10.666 -70.5 15.999c-24.667 4 -49 10 -73 18c-24.667 -16.667 -42.667 -33.667 -54 -51z" />
    <glyph glyph-name="dieresis" unicode="&#xa8;" 
d="M88 624c-10 12.667 -14.999 27.667 -14.999 45c0 18 5.16699 33.333 15.5 46s26.166 19 47.499 19c20.667 0 36.167 -6.33301 46.5 -19s15.5 -28 15.5 -46c0 -17.333 -5.16699 -32.333 -15.5 -45s-25.833 -19 -46.5 -19c-21.333 0 -37.333 6.33301 -48 19zM314.001 624
c-10 12.667 -14.999 27.667 -14.999 45c0 18 5.16699 33.333 15.5 46s26.166 19 47.499 19c20.667 0 36.167 -6.33301 46.5 -19s15.5 -28 15.5 -46c0 -17.333 -5.16699 -32.333 -15.5 -45s-25.833 -19 -46.5 -19c-21.333 0 -37.333 6.33301 -48 19z" />
    <glyph glyph-name="copyright" unicode="&#xa9;" horiz-adv-x="863" 
d="M310 87c36.667 -15.333 77.666 -23.001 122.999 -23.001c46 0 87 7.83301 123 23.5s66.5 36.834 91.5 63.501s44 58 57 94s19.5 74.333 19.5 115s-6.5 79 -19.5 115s-32 67.333 -57 94s-55.5 47.667 -91.5 63s-77 23 -123 23c-45.333 0 -86.166 -7.66699 -122.499 -23
s-67 -36.333 -92 -63s-44.167 -58 -57.5 -94s-20 -74.333 -20 -115s6.66699 -79 20 -115s32.5 -67.333 57.5 -94s55.5 -48 91.5 -64zM164.999 104.999c-30.667 32.667 -54.168 70.833 -70.501 114.5s-24.5 90.5 -24.5 140.5s8.66699 96.833 26 140.5s41.833 81.667 73.5 114
s69.834 58 114.501 77s94.334 28.5 149.001 28.5s104.334 -9.5 149.001 -28.5s82.5 -44.667 113.5 -77s55 -70.333 72 -114s25.5 -90.5 25.5 -140.5s-8.66699 -96.833 -26 -140.5s-41.833 -81.667 -73.5 -114s-69.834 -58 -114.501 -77s-94.334 -28.5 -149.001 -28.5
c-56 0 -106.333 9.5 -151 28.5s-82.667 44.5 -114 76.5zM581.998 185.998c-19.333 -7.33301 -40.998 -14.1689 -64.998 -20.502s-50.667 -9.5 -80 -9.5c-37.333 0 -68.833 5 -94.5 15s-46.667 24 -63 42s-28.166 39.5 -35.499 64.5s-11 52.833 -11 83.5c0 30 4.5 58 13.5 84
s22.167 48.5 39.5 67.5s39 33.833 65 44.5s55.667 16 89 16c31.333 0 58.166 -3.16699 80.499 -9.5s42.166 -13.166 59.499 -20.499l-24 -63c-22 8 -41 13.667 -57 17s-35 5 -57 5c-42 0 -73 -12.667 -93 -38s-30 -59.666 -30 -102.999c0 -44.667 9.33301 -78.5 28 -101.5
s48.667 -34.5 90 -34.5c20.667 0 41.167 1.83301 61.5 5.5s41.166 10.167 62.499 19.5z" />
    <glyph glyph-name="ordfeminine" unicode="&#xaa;" horiz-adv-x="507" 
d="M335 314c-12.667 -7.33301 -29.1689 -15.333 -49.502 -24s-43.833 -13 -70.5 -13c-18 0 -35.167 2.16699 -51.5 6.5s-30.666 11 -42.999 20s-22.166 20.833 -29.499 35.5s-11 32 -11 52c0 21.333 4 39.333 12 54s18.833 26.5 32.5 35.5s29 15.333 46 19
s34.5 5.5 52.5 5.5h87v13c0 25.333 -5.16699 43.166 -15.5 53.499s-27.166 15.5 -50.499 15.5c-18.667 0 -36.334 -1.66699 -53.001 -5s-36.334 -8.66602 -59.001 -15.999l-23 62c18.667 7.33301 40.834 13.833 66.501 19.5s52.167 8.5 79.5 8.5c28.667 0 52 -3.5 70 -10.5
s32 -17 42 -30s16.833 -28.5 20.5 -46.5s5.5 -38.333 5.5 -61v-143l34 -47l-59 -43zM310.998 443h-85c-18 0 -32.833 -3.83301 -44.5 -11.5s-17.5 -20.167 -17.5 -37.5c0 -18 6.16699 -30.833 18.5 -38.5s27.5 -11.5 45.5 -11.5s33.5 2.83301 46.5 8.5
s25.167 12.167 36.5 19.5v71z" />
    <glyph glyph-name="guillemotleft" unicode="&#xab;" horiz-adv-x="654" 
d="M385 176c-23.333 15.333 -41.167 29.8301 -53.5 43.4971s-18.5 31.834 -18.5 54.501s7.66699 42.334 23 59.001s34.666 33.334 57.999 50.001l138 98l45 -64l-133 -95c-15.333 -10.667 -25.666 -18.5 -30.999 -23.5s-8 -11.167 -8 -18.5
c0 -9.33301 3.16699 -16.5 9.5 -21.5l32.5 -24.5l134 -95l-46 -63zM139.999 175.997c-23.333 15.333 -41.167 29.8301 -53.5 43.4971s-18.5 31.834 -18.5 54.501s7.66699 42.334 23 59.001s34.666 33.334 57.999 50.001l138 98l45 -64l-133 -95
c-15.333 -10.667 -25.666 -18.5 -30.999 -23.5s-8 -11.167 -8 -18.5c0 -9.33301 3.16699 -16.5 9.5 -21.5l32.5 -24.5l134 -95l-46 -63z" />
    <glyph glyph-name="logicalnot" unicode="&#xac;" horiz-adv-x="710" 
d="M122 380h465v-207h-83v127h-382v80z" />
    <glyph glyph-name="uni00AD" unicode="&#xad;" horiz-adv-x="470" 
d="M79 359h313v-89h-313v89z" />
    <glyph glyph-name="registered" unicode="&#xae;" horiz-adv-x="614" 
d="M220 607l93.998 0.000976562c24 0 44.667 -5.33301 62 -16s26 -29.334 26 -56.001c0 -17.333 -4.16699 -31.833 -12.5 -43.5s-19.833 -21.167 -34.5 -28.5l74 -82l-43 -32l-73 84c-5.33301 6.66699 -9.66602 11.167 -12.999 13.5s-7.66602 3.5 -12.999 3.5h-11v-93h-56
v250zM302.998 497.001c13.333 0 23.833 2.33203 31.5 6.99902s11.5 13.334 11.5 26.001s-3.83301 21 -11.5 25s-18.167 6 -31.5 6h-27v-64h27zM226.998 301c23.333 -9.33301 50 -13.998 80 -13.998c32 0 59.833 5 83.5 15s43.334 23.667 59.001 41s27.334 37.5 35.001 60.5
s11.5 47.167 11.5 72.5c0 26 -3.83301 50.5 -11.5 73.5s-19.334 43.167 -35.001 60.5s-35.334 31.166 -59.001 41.499s-51.5 15.5 -83.5 15.5s-59.833 -5.33301 -83.5 -16s-43.167 -24.834 -58.5 -42.501s-26.833 -38.167 -34.5 -61.5s-11.5 -48 -11.5 -74
c0 -25.333 4.16699 -49.333 12.5 -72s20.5 -42.5 36.5 -59.5s35.667 -30.5 59 -40.5zM73.998 377.002c-12 30 -18 61.999 -18 95.999s5.83301 66.167 17.5 96.5s28.334 56.833 50.001 79.5s48 40.667 79 54s65.833 20 104.5 20c40 0 75.667 -6.5 107 -19.5
s57.666 -30.667 78.999 -53s37.5 -48.5 48.5 -78.5s16.5 -62 16.5 -96s-6.16699 -66 -18.5 -96s-29.666 -56 -51.999 -78s-48.833 -39.5 -79.5 -52.5s-64.334 -19.5 -101.001 -19.5c-37.333 0 -71.333 6.33301 -102 19s-57 29.834 -79 51.501s-39.333 47.167 -52 76.5z" />
    <glyph glyph-name="macron" unicode="&#xaf;" 
d="M93 696h313v-81h-313v81z" />
    <glyph glyph-name="degree" unicode="&#xb0;" horiz-adv-x="358" 
d="M179 527c18.667 0 33.832 6.5 45.499 19.5s17.5 28.5 17.5 46.5s-6 33.5 -18 46.5s-27 19.5 -45 19.5s-33 -6.5 -45 -19.5s-18 -28.5 -18 -46.5s5.83301 -33.5 17.5 -46.5s26.834 -19.5 45.501 -19.5zM83.998 501c-10.667 12 -18.999 25.835 -24.999 41.502
s-9 32.5 -9 50.5s3.16699 34.833 9.5 50.5s15.166 29.334 26.499 41.001s24.833 20.834 40.5 27.501s33.167 10 52.5 10c18.667 0 36 -3.33301 52 -10s29.667 -15.834 41 -27.501s20.166 -25.334 26.499 -41.001s9.5 -32.5 9.5 -50.5s-3.16699 -34.833 -9.5 -50.5
s-15.166 -29.334 -26.499 -41.001s-25 -20.834 -41 -27.501s-33.333 -10 -52 -10c-20 0 -38 3.33301 -54 10s-29.667 15.667 -41 27z" />
    <glyph glyph-name="plusminus" unicode="&#xb1;" horiz-adv-x="670" 
d="M92 400h200v175h84v-175h201v-80h-201v-175h-84v175h-200v80zM92 80h485v-80h-485v80z" />
    <glyph glyph-name="twosuperior" unicode="&#xb2;" 
d="M411 352v-68h-262c-18.667 0 -33.667 5.16699 -45 15.5s-17 24.5 -17 42.5c0 9.33301 2.83301 19 8.5 29s13.834 19.667 24.501 29c21.333 18.667 44.166 36.667 68.499 54s47.166 35 68.499 53c19.333 16 35.333 31.333 48 46s19 30.667 19 48c0 19.333 -8 33 -24 41
s-33.667 12 -53 12c-21.333 0 -40.166 -4 -56.499 -12l-52.5 -26l-32 55c17.333 10.667 38.5 21.5 63.5 32.5s53.167 16.5 84.5 16.5c46 0 82.167 -10.833 108.5 -32.5s39.5 -49.5 39.5 -83.5c0 -28 -7 -53.333 -21 -76s-34.333 -44 -61 -64l-141 -106
c-2.66699 -2 -4 -3.33301 -4 -4c0 -1.33301 1 -2 3 -2h233z" />
    <glyph glyph-name="threesuperior" unicode="&#xb3;" 
d="M109 371c23.333 -9.33301 44.168 -16.3301 62.501 -20.9971s39.166 -7 62.499 -7c12 0 23.833 1.33301 35.5 4s22 7 31 13s16.167 13.5 21.5 22.5s8 19.833 8 32.5c0 7.33301 -1.16699 15 -3.5 23s-7 15.167 -14 21.5s-16.5 11.5 -28.5 15.5s-27.667 6 -47 6h-46v48
l116 109c1.33301 1.33301 2 2.66602 2 3.99902c0 2 -1.33301 3 -4 3h-190v67h217c22.667 0 38.667 -4.83301 48 -14.5s14 -21.834 14 -36.501c0 -8.66699 -3.16699 -18.334 -9.5 -29.001s-13.5 -20.334 -21.5 -29.001l-71 -65c24 -2.66699 43.5 -8.5 58.5 -17.5
s27 -19.5 36 -31.5s15.167 -24.667 18.5 -38s5 -25.333 5 -36c0 -20 -3.66699 -38.5 -11 -55.5s-18.333 -31.667 -33 -44s-33 -22.166 -55 -29.499s-47.333 -11 -76 -11c-38 0 -68.333 3.33301 -91 10s-41 13 -55 19z" />
    <glyph glyph-name="acute" unicode="&#xb4;" 
d="M291 798l75 -53l-151 -175l-55 40z" />
    <glyph glyph-name="mu" unicode="&#xb5;" horiz-adv-x="587" 
d="M75 501l93 -0.00195312v-320c0 -21.333 3 -39.666 9 -54.999s14.5 -27.666 25.5 -36.999s23.667 -16.166 38 -20.499s30.166 -6.5 47.499 -6.5c30.667 0 56.834 4.83301 78.501 14.5s41.167 20.167 58.5 31.5v393h93v-405l44 -64l-66 -49l-50 52
c-24 -15.333 -48.333 -28 -73 -38s-54.334 -15 -89.001 -15c-21.333 0 -42.666 3.16699 -63.999 9.5s-39.333 17.166 -54 32.499v-242h-91v719z" />
    <glyph glyph-name="paragraph" unicode="&#xb6;" horiz-adv-x="584" 
d="M130 -86c13.333 -4 30.3311 -8 50.998 -12s39.667 -6 57 -6c42.667 0 74.667 11.667 96 35s32 65 32 125v586h-74v-370c-80 0 -141.167 17.167 -183.5 51.5s-63.5 90.166 -63.5 167.499c0 46.667 8.83301 84.834 26.5 114.501s39.5 53 65.5 70s53.5 28.833 82.5 35.5
s54.833 10 77.5 10h247v-79h-80v-590c0 -77.333 -18.667 -136.333 -56 -177s-94.666 -61 -171.999 -61c-30 0 -56.167 2.33301 -78.5 7s-39.166 9.66699 -50.499 15z" />
    <glyph glyph-name="periodcentered" unicode="&#xb7;" horiz-adv-x="350" 
d="M124 321c-10.667 13.333 -16 30 -16 50s5.33301 36.5 16 49.5s27.667 19.5 51 19.5c22.667 0 39.334 -6.5 50.001 -19.5s16 -29.5 16 -49.5s-5.33301 -36.5 -16 -49.5s-27.334 -19.5 -50.001 -19.5c-23.333 0 -40.333 6.33301 -51 19z" />
    <glyph glyph-name="cedilla" unicode="&#xb8;" 
d="M154 -146c10.667 -5.33301 23.333 -10.833 38 -16.5s30.334 -8.5 47.001 -8.5c14.667 0 25.834 3.16699 33.501 9.5s11.5 14.833 11.5 25.5c0 9.33301 -2.66699 16.833 -8 22.5s-12.5 10 -21.5 13s-19.333 5.16699 -31 6.5s-23.834 2 -36.501 2l26 102h80l-15 -60
c12 -1.33301 23.5 -4 34.5 -8s20.833 -9.33301 29.5 -16s15.667 -15.167 21 -25.5s8 -22.833 8 -37.5c0 -30 -10.5 -54.667 -31.5 -74s-52.5 -29 -94.5 -29c-20.667 0 -42.334 3 -65.001 9s-40.667 13.667 -54 23z" />
    <glyph glyph-name="onesuperior" unicode="&#xb9;" 
d="M123 352h105v279c0 2.66699 -0.666992 4 -2 4s-3.33301 -1 -6 -3l-81 -58l-44 53l103 73c8.66699 6 18 10.833 28 14.5s19.667 5.5 29 5.5c14 0 25.5 -4.16699 34.5 -12.5s13.5 -22.5 13.5 -42.5v-313h100v-68h-280v68z" />
    <glyph glyph-name="ordmasculine" unicode="&#xba;" horiz-adv-x="515" 
d="M258 346c31.333 0 54.666 10.167 69.999 30.5s23 50.166 23 89.499s-7.66699 69.166 -23 89.499s-38.666 30.5 -69.999 30.5s-54.666 -10.167 -69.999 -30.5s-23 -50.166 -23 -89.499s7.66699 -69.166 23 -89.499s38.666 -30.5 69.999 -30.5zM121 331
c-14 16.667 -24.333 36.499 -31 59.499s-10 48.167 -10 75.5s3.66699 52.5 11 75.5s18.333 43 33 60s33.167 30.333 55.5 40s48.5 14.5 78.5 14.5s56.167 -4.66699 78.5 -14s40.833 -22.5 55.5 -39.5s25.5 -37 32.5 -60s10.5 -48.167 10.5 -75.5s-3.33301 -52.5 -10 -75.5
s-17 -43 -31 -60s-32.333 -30.333 -55 -40s-50 -14.5 -82 -14.5s-59.167 4.83301 -81.5 14.5s-40.5 22.834 -54.5 39.501z" />
    <glyph glyph-name="guillemotright" unicode="&#xbb;" horiz-adv-x="654" 
d="M77 140l133.001 95.0029c15.333 10.667 25.666 18.5 30.999 23.5s8 11.167 8 18.5c0 9.33301 -3.16699 16.5 -9.5 21.5l-32.5 24.5l-134 95l46 63l150 -100c23.333 -15.333 41.166 -29.833 53.499 -43.5s18.5 -31.834 18.5 -54.501s-7.66699 -42.334 -23 -59.001
s-34.666 -33.334 -57.999 -50.001l-138 -98zM322.001 140.003l133.001 95.0029c15.333 10.667 25.666 18.5 30.999 23.5s8 11.167 8 18.5c0 9.33301 -3.16699 16.5 -9.5 21.5l-32.5 24.5l-134 95l46 63l150 -100c23.333 -15.333 41.166 -29.833 53.499 -43.5
s18.5 -31.834 18.5 -54.501s-7.66699 -42.334 -23 -59.001s-34.666 -33.334 -57.999 -50.001l-138 -98z" />
    <glyph glyph-name="onequarter" unicode="&#xbc;" horiz-adv-x="1000" 
d="M75 352h105v279c0 2.66699 -0.666992 4 -2 4s-3.33301 -1 -6 -3l-81 -58l-44 53l103 73c8.66699 6 18 10.833 28 14.5s19.667 5.5 29 5.5c14 0 25.5 -4.16699 34.5 -12.5s13.5 -22.5 13.5 -42.5v-313h100v-68h-280v68zM695 721h89l-439 -721h-90zM807 101h-139.001
c-24.667 0 -43.5 6 -56.5 18s-19.5 27.667 -19.5 47c0 13.333 2.83301 25.333 8.5 36s13.834 21.667 24.501 33l190 193h67v-259h70v-68h-70v-101h-75v101zM806.999 169v156l-137 -138c-4 -4 -6 -7.33301 -6 -10c0 -5.33301 3.66699 -8 11 -8h132z" />
    <glyph glyph-name="onehalf" unicode="&#xbd;" horiz-adv-x="1000" 
d="M72 352h105v279c0 2.66699 -0.666992 4 -2 4s-3.33301 -1 -6 -3l-81 -58l-44 53l103 73c8.66699 6 18 10.833 28 14.5s19.667 5.5 29 5.5c14 0 25.5 -4.16699 34.5 -12.5s13.5 -22.5 13.5 -42.5v-313h100v-68h-280v68zM689 721h89l-439 -721h-90zM954 68v-68h-262
c-18.667 0 -33.667 5.16699 -45 15.5s-17 24.5 -17 42.5c0 9.33301 2.83301 19 8.5 29s13.834 19.667 24.501 29c21.333 18.667 44.166 36.667 68.499 54s47.166 35 68.499 53c19.333 16 35.333 31.333 48 46s19 30.667 19 48c0 19.333 -8 33 -24 41s-33.667 12 -53 12
c-21.333 0 -40.166 -4 -56.499 -12l-52.5 -26l-32 55c17.333 10.667 38.5 21.5 63.5 32.5s53.167 16.5 84.5 16.5c46 0 82.167 -10.833 108.5 -32.5s39.5 -49.5 39.5 -83.5c0 -28 -7 -53.333 -21 -76s-34.333 -44 -61 -64l-141 -106c-2.66699 -2 -4 -3.33301 -4 -4
c0 -1.33301 1 -2 3 -2h233z" />
    <glyph glyph-name="threequarters" unicode="&#xbe;" horiz-adv-x="1000" 
d="M65 371c23.333 -9.33301 44.168 -16.3301 62.501 -20.9971s39.166 -7 62.499 -7c12 0 23.833 1.33301 35.5 4s22 7 31 13s16.167 13.5 21.5 22.5s8 19.833 8 32.5c0 7.33301 -1.16699 15 -3.5 23s-7 15.167 -14 21.5s-16.5 11.5 -28.5 15.5s-27.667 6 -47 6h-46v48
l116 109c1.33301 1.33301 2 2.66602 2 3.99902c0 2 -1.33301 3 -4 3h-190v67h217c22.667 0 38.667 -4.83301 48 -14.5s14 -21.834 14 -36.501c0 -8.66699 -3.16699 -18.334 -9.5 -29.001s-13.5 -20.334 -21.5 -29.001l-71 -65c24 -2.66699 43.5 -8.5 58.5 -17.5
s27 -19.5 36 -31.5s15.167 -24.667 18.5 -38s5 -25.333 5 -36c0 -20 -3.66699 -38.5 -11 -55.5s-18.333 -31.667 -33 -44s-33 -22.166 -55 -29.499s-47.333 -11 -76 -11c-38 0 -68.333 3.33301 -91 10s-41 13 -55 19zM686.002 721.003h89l-439 -721h-90zM810.002 101.003
h-139.001c-24.667 0 -43.5 6 -56.5 18s-19.5 27.667 -19.5 47c0 13.333 2.83301 25.333 8.5 36s13.834 21.667 24.501 33l190 193h67v-259h70v-68h-70v-101h-75v101zM810.001 169.003v156l-137 -138c-4 -4 -6 -7.33301 -6 -10c0 -5.33301 3.66699 -8 11 -8h132z" />
    <glyph glyph-name="questiondown" unicode="&#xbf;" horiz-adv-x="587" 
d="M237 160c12.667 9.33301 23.3389 17.4971 32.0059 24.4971s15.667 14 21 21s9.16602 14.333 11.499 22s3.5 17.167 3.5 28.5v41h92v-52c0 -16 -1.83301 -29.833 -5.5 -41.5s-8.83398 -22.167 -15.501 -31.5s-14.334 -18 -23.001 -26s-18.334 -16 -29.001 -24l-72 -56
c-23.333 -18 -40.833 -35.667 -52.5 -53s-17.5 -35.666 -17.5 -54.999c0 -34.667 12.667 -61.167 38 -79.5s63.666 -27.5 114.999 -27.5c38 0 73.333 6 106 18s64 27.333 94 46l41 -70c-13.333 -10 -29.5 -19.667 -48.5 -29s-39.5 -17.5 -61.5 -24.5
s-44.833 -12.5 -68.5 -16.5s-46.834 -6 -69.501 -6c-42.667 0 -79.5 4.83301 -110.5 14.5s-56.667 22.667 -77 39s-35.333 35.333 -45 57s-14.5 44.834 -14.5 69.501c0 38.667 9.33301 71.334 28 98.001s43 51 73 73zM299.005 399.997c-10.667 13.333 -16 30 -16 50
s5.33301 36.5 16 49.5s27.334 19.5 50.001 19.5c23.333 0 40.333 -6.5 51 -19.5s16 -29.5 16 -49.5s-5.33301 -36.5 -16 -49.5s-27.667 -19.5 -51 -19.5c-22.667 0 -39.334 6.33301 -50.001 19z" />
    <glyph glyph-name="Agrave" unicode="&#xc0;" horiz-adv-x="713" 
d="M200 608c6 19.333 13.001 36.6689 21.001 52.002s18.167 28.5 30.5 39.5s27 19.5 44 25.5s37.5 9 61.5 9s44.5 -3 61.5 -9s31.667 -14.333 44 -25s22.666 -23.834 30.999 -39.501s15.5 -32.834 21.5 -51.501l186 -597l-94 -22l-77 242h-350l-76 -242l-92 22z
M505.001 314.003l-87.0029 278c-7.33301 23.333 -15.666 39.166 -24.999 47.499s-21.666 12.5 -36.999 12.5c-16 0 -28.667 -4.16699 -38 -12.5s-17.666 -24.166 -24.999 -47.499l-88 -278h300zM295.998 962.003l150 -156l-50 -43l-166 139z" />
    <glyph glyph-name="Aacute" unicode="&#xc1;" horiz-adv-x="713" 
d="M200 608c6 19.333 13.001 36.6689 21.001 52.002s18.167 28.5 30.5 39.5s27 19.5 44 25.5s37.5 9 61.5 9s44.5 -3 61.5 -9s31.667 -14.333 44 -25s22.666 -23.834 30.999 -39.501s15.5 -32.834 21.5 -51.501l186 -597l-94 -22l-77 242h-350l-76 -242l-92 22z
M505.001 314.003l-87.0029 278c-7.33301 23.333 -15.666 39.166 -24.999 47.499s-21.666 12.5 -36.999 12.5c-16 0 -28.667 -4.16699 -38 -12.5s-17.666 -24.166 -24.999 -47.499l-88 -278h300zM421.998 962.003l67 -60l-166 -139l-51 43z" />
    <glyph glyph-name="Acircumflex" unicode="&#xc2;" horiz-adv-x="713" 
d="M200 608c6 19.333 13.001 36.6689 21.001 52.002s18.167 28.5 30.5 39.5s27 19.5 44 25.5s37.5 9 61.5 9s44.5 -3 61.5 -9s31.667 -14.333 44 -25s22.666 -23.834 30.999 -39.501s15.5 -32.834 21.5 -51.501l186 -597l-94 -22l-77 242h-350l-76 -242l-92 22z
M505.001 314.003l-87.0029 278c-7.33301 23.333 -15.666 39.166 -24.999 47.499s-21.666 12.5 -36.999 12.5c-16 0 -28.667 -4.16699 -38 -12.5s-17.666 -24.166 -24.999 -47.499l-88 -278h300zM320.998 924.003h77l108 -115l-52 -44l-96 83l-98 -83l-51 43z" />
    <glyph glyph-name="Atilde" unicode="&#xc3;" horiz-adv-x="713" 
d="M200 608c6 19.333 13.001 36.6689 21.001 52.002s18.167 28.5 30.5 39.5s27 19.5 44 25.5s37.5 9 61.5 9s44.5 -3 61.5 -9s31.667 -14.333 44 -25s22.666 -23.834 30.999 -39.501s15.5 -32.834 21.5 -51.501l186 -597l-94 -22l-77 242h-350l-76 -242l-92 22z
M505.001 314.003l-87.0029 278c-7.33301 23.333 -15.666 39.166 -24.999 47.499s-21.666 12.5 -36.999 12.5c-16 0 -28.667 -4.16699 -38 -12.5s-17.666 -24.166 -24.999 -47.499l-88 -278h300zM169.998 782.003c0 39.333 6.83398 70.999 20.501 94.999
s36.834 36.333 69.501 37c17.333 0 34.666 -3.16699 51.999 -9.5s35 -13.166 53 -20.499l26 -10c13.333 -5.33301 24.666 -9.5 33.999 -12.5s17 -4.5 23 -4.5c11.333 0 19.166 4 23.499 12s6.5 23 6.5 45h71c0 -40 -7 -72 -21 -96s-37.667 -36 -71 -36
c-14 0 -30.333 3.33301 -49 10s-34.667 12.667 -48 18l-34 12l-33 12c-9.33301 3.33301 -16.666 5 -21.999 5c-11.333 0 -19.333 -4 -24 -12s-7 -23 -7 -45h-70z" />
    <glyph glyph-name="Adieresis" unicode="&#xc4;" horiz-adv-x="713" 
d="M200 608c6 19.333 13.001 36.6689 21.001 52.002s18.167 28.5 30.5 39.5s27 19.5 44 25.5s37.5 9 61.5 9s44.5 -3 61.5 -9s31.667 -14.333 44 -25s22.666 -23.834 30.999 -39.501s15.5 -32.834 21.5 -51.501l186 -597l-94 -22l-77 242h-350l-76 -242l-92 22z
M505.001 314.003l-87.0029 278c-7.33301 23.333 -15.666 39.166 -24.999 47.499s-21.666 12.5 -36.999 12.5c-16 0 -28.667 -4.16699 -38 -12.5s-17.666 -24.166 -24.999 -47.499l-88 -278h300zM195.998 797.003c-10 13.333 -14.999 28.667 -14.999 46
c0 18 5.16699 33.333 15.5 46s26.166 19 47.499 19c20.667 0 36.167 -6.33301 46.5 -19s15.5 -28 15.5 -46c0 -17.333 -5.16699 -32.5 -15.5 -45.5s-25.833 -19.5 -46.5 -19.5c-21.333 0 -37.333 6.33301 -48 19zM421.999 797.004c-10 13.333 -14.999 28.667 -14.999 46
c0 18 5.16699 33.333 15.5 46s26.166 19 47.499 19c20.667 0 36.167 -6.33301 46.5 -19s15.5 -28 15.5 -46c0 -17.333 -5.16699 -32.5 -15.5 -45.5s-25.833 -19.5 -46.5 -19.5c-21.333 0 -37.333 6.33301 -48 19z" />
    <glyph glyph-name="Aring" unicode="&#xc5;" horiz-adv-x="713" 
d="M200 608c6 19.333 13.001 36.6689 21.001 52.002s18.167 28.5 30.5 39.5s27 19.5 44 25.5s37.5 9 61.5 9s44.5 -3 61.5 -9s31.667 -14.333 44 -25s22.666 -23.834 30.999 -39.501s15.5 -32.834 21.5 -51.501l186 -597l-94 -22l-77 242h-350l-76 -242l-92 22z
M505.001 314.003l-87.0029 278c-7.33301 23.333 -15.666 39.166 -24.999 47.499s-21.666 12.5 -36.999 12.5c-16 0 -28.667 -4.16699 -38 -12.5s-17.666 -24.166 -24.999 -47.499l-88 -278h300zM359.998 823.003c18.667 0 34.167 6.5 46.5 19.5s18.5 28.5 18.5 46.5
s-6.33301 33.333 -19 46s-28 19 -46 19s-33.333 -6.33301 -46 -19s-19 -28 -19 -46s6.16699 -33.5 18.5 -46.5s27.833 -19.5 46.5 -19.5zM240.998 838.003c-6.66699 16 -10 33.001 -10 51.001s3.33301 34.833 10 50.5s15.834 29.334 27.501 41.001
s25.334 20.834 41.001 27.501s32.5 10 50.5 10s34.833 -3.33301 50.5 -10s29.334 -15.834 41.001 -27.501s20.834 -25.334 27.501 -41.001s10 -32.5 10 -50.5s-3.33301 -34.833 -10 -50.5s-15.834 -29.334 -27.501 -41.001s-25.334 -20.834 -41.001 -27.501
s-32.5 -10 -50.5 -10s-34.833 3.33301 -50.5 10s-29.334 15.834 -41.001 27.501s-20.834 25.167 -27.501 40.5z" />
    <glyph glyph-name="AE" unicode="&#xc6;" horiz-adv-x="1015" 
d="M291 594c8.66699 18 18.3301 34.834 28.9971 50.501s23.334 29.167 38.001 40.5s31.834 20.166 51.501 26.499s42.834 9.5 69.501 9.5h491v-81h-399v-240h309v-81h-309v-238h407v-81h-504v319h-210l-160 -329l-86 32zM473.996 400.001l0.000976562 240
c-24.667 -0.666992 -43.334 -5.5 -56.001 -14.5s-24 -24.167 -34 -45.5l-86 -180h176z" />
    <glyph glyph-name="Ccedilla" unicode="&#xc7;" horiz-adv-x="686" 
d="M292 -146c10 -5.33301 22.3369 -10.8379 37.0039 -16.5049s30.334 -8.5 47.001 -8.5c14.667 0 26 3.16699 34 9.5s12 14.833 12 25.5c0 9.33301 -2.66699 16.833 -8 22.5s-12.5 10 -21.5 13s-19.5 5.16699 -31.5 6.5s-24.333 2 -37 2l20 77
c-55.333 5.33301 -101.833 18.5 -139.5 39.5s-68.167 48 -91.5 81s-40 71 -50 114s-15 89.5 -15 139.5c0 54 7.66699 103.833 23 149.5s38.166 85.334 68.499 119.001s68.166 59.834 113.499 78.501s98 28 158 28c52 0 96.833 -4.66699 134.5 -14s71.5 -20 101.5 -32
l-29 -76c-21.333 8 -40.833 14.667 -58.5 20s-34.5 9.5 -50.5 12.5s-31.667 5.16699 -47 6.5s-31.333 2 -48 2c-85.333 0 -150.333 -25.667 -195 -77s-67 -123.666 -67 -216.999c0 -99.333 21.333 -173.666 64 -222.999s106 -74 190 -74c22.667 0 43.167 1 61.5 3
s35.833 4.83301 52.5 8.5s33.5 8.5 50.5 14.5s35.5 13 55.5 21l27 -73c-36 -16 -72.333 -28.667 -109 -38s-77 -14.666 -121 -15.999l-7 -32c12 -1.33301 23.5 -4 34.5 -8s20.667 -9.33301 29 -16s15.166 -15.167 20.499 -25.5s8 -22.833 8 -37.5
c0 -30 -10.333 -54.667 -31 -74s-52.334 -29 -95.001 -29c-20.667 0 -42.334 3 -65.001 9s-40.667 13.667 -54 23z" />
    <glyph glyph-name="Egrave" unicode="&#xc8;" horiz-adv-x="616" 
d="M75 721h496v-81h-399v-223h309v-81h-309v-255h407v-81h-504v721zM258 962l150 -156l-50 -43l-166 139z" />
    <glyph glyph-name="Eacute" unicode="&#xc9;" horiz-adv-x="616" 
d="M75 721h496v-81h-399v-223h309v-81h-309v-255h407v-81h-504v721zM401 962l67 -60l-166 -139l-51 43z" />
    <glyph glyph-name="Ecircumflex" unicode="&#xca;" horiz-adv-x="616" 
d="M75 721h496v-81h-399v-223h309v-81h-309v-255h407v-81h-504v721zM296 924h77l108 -115l-52 -44l-96 83l-98 -83l-51 43z" />
    <glyph glyph-name="Edieresis" unicode="&#xcb;" horiz-adv-x="616" 
d="M75 721h496v-81h-399v-223h309v-81h-309v-255h407v-81h-504v721zM171 797c-10 13.333 -14.999 28.667 -14.999 46c0 18 5.16699 33.333 15.5 46s26.166 19 47.499 19c20.667 0 36.167 -6.33301 46.5 -19s15.5 -28 15.5 -46c0 -17.333 -5.16699 -32.5 -15.5 -45.5
s-25.833 -19.5 -46.5 -19.5c-21.333 0 -37.333 6.33301 -48 19zM397.001 797.001c-10 13.333 -14.999 28.667 -14.999 46c0 18 5.16699 33.333 15.5 46s26.166 19 47.499 19c20.667 0 36.167 -6.33301 46.5 -19s15.5 -28 15.5 -46c0 -17.333 -5.16699 -32.5 -15.5 -45.5
s-25.833 -19.5 -46.5 -19.5c-21.333 0 -37.333 6.33301 -48 19z" />
    <glyph glyph-name="Igrave" unicode="&#xcc;" horiz-adv-x="252" 
d="M77 721h98v-721h-98v721zM71 962l150 -156l-50 -43l-166 139z" />
    <glyph glyph-name="Iacute" unicode="&#xcd;" horiz-adv-x="252" 
d="M77 721h98v-721h-98v721zM193 962l67 -60l-166 -139l-51 43z" />
    <glyph glyph-name="Icircumflex" unicode="&#xce;" horiz-adv-x="252" 
d="M77 721h98v-721h-98v721zM96 924h77l108 -115l-52 -44l-96 83l-98 -83l-51 43z" />
    <glyph glyph-name="Idieresis" unicode="&#xcf;" horiz-adv-x="252" 
d="M77 721h98v-721h-98v721zM-30 797c-10 13.333 -14.999 28.667 -14.999 46c0 18 5.16699 33.333 15.5 46s26.166 19 47.499 19c20.667 0 36.167 -6.33301 46.5 -19s15.5 -28 15.5 -46c0 -17.333 -5.16699 -32.5 -15.5 -45.5s-25.833 -19.5 -46.5 -19.5
c-21.333 0 -37.333 6.33301 -48 19zM196.001 797.001c-10 13.333 -14.999 28.667 -14.999 46c0 18 5.16699 33.333 15.5 46s26.166 19 47.499 19c20.667 0 36.167 -6.33301 46.5 -19s15.5 -28 15.5 -46c0 -17.333 -5.16699 -32.5 -15.5 -45.5s-25.833 -19.5 -46.5 -19.5
c-21.333 0 -37.333 6.33301 -48 19z" />
    <glyph glyph-name="Eth" unicode="&#xd0;" horiz-adv-x="775" 
d="M100 319l-74.999 -0.00195312v81h75v321h277c56.667 0 106.667 -8.66699 150 -26s79.833 -41.666 109.5 -72.999s52.167 -69 67.5 -113s23 -92.667 23 -146c0 -52.667 -6.83301 -101.167 -20.5 -145.5s-34.834 -82.666 -63.501 -114.999s-65 -57.5 -109 -75.5
s-96.333 -27 -157 -27h-277v319zM369.001 79.998c80.667 0 143.334 21.833 188.001 65.5s67 114.5 67 212.5s-22.333 169.667 -67 215s-107.334 68 -188.001 68h-171v-241h200v-81h-200v-239h171z" />
    <glyph glyph-name="Ntilde" unicode="&#xd1;" horiz-adv-x="743" 
d="M75 721l108.002 -0.000976562l361 -610l8.5 -13.5c2.33301 -3.66699 5.5 -5.5 9.5 -5.5c5.33301 0 8.66602 2.33301 9.99902 7s2 12.334 2 23.001v599h94v-598c0 -25.333 -2.66699 -46.333 -8 -63s-12.5 -30 -21.5 -40s-19.333 -17.167 -31 -21.5s-23.5 -6.5 -35.5 -6.5
c-15.333 0 -28.5 2 -39.5 6s-20.833 10 -29.5 18s-16.834 17.667 -24.501 29l-24.5 38l-284 482v-565h-95v721zM210.002 781.999c0 39.333 6.83398 70.999 20.501 94.999s36.834 36.333 69.501 37c17.333 0 34.666 -3.16699 51.999 -9.5s35 -13.166 53 -20.499l26 -10
c13.333 -5.33301 24.666 -9.5 33.999 -12.5s17 -4.5 23 -4.5c11.333 0 19.166 4 23.499 12s6.5 23 6.5 45h71c0 -40 -7 -72 -21 -96s-37.667 -36 -71 -36c-14 0 -30.333 3.33301 -49 10s-34.667 12.667 -48 18l-34 12l-33 12c-9.33301 3.33301 -16.666 5 -21.999 5
c-11.333 0 -19.333 -4 -24 -12s-7 -23 -7 -45h-70z" />
    <glyph glyph-name="Ograve" unicode="&#xd2;" horiz-adv-x="772" 
d="M126 96c-26.667 34.667 -46.333 74.667 -59 120s-19 92.666 -19 141.999s6.66699 96.666 20 141.999s33.666 85.333 60.999 120s62.333 62.334 105 83.001s93.334 31 152.001 31c60 0 111.5 -10.333 154.5 -31s78 -48.334 105 -83.001s46.833 -74.667 59.5 -120
s19 -92.666 19 -141.999s-6.66699 -96.666 -20 -141.999s-33.666 -85.333 -60.999 -120s-62.333 -62.334 -105 -83.001s-93.334 -31 -152.001 -31c-60 0 -111.5 10.333 -154.5 31s-78.167 48.334 -105.5 83.001zM283.001 86c29.333 -15.333 63.666 -23 102.999 -23
s73.666 7.66699 102.999 23s53.666 36.166 72.999 62.499s33.833 57.5 43.5 93.5s14.5 74.667 14.5 116s-4.83301 80 -14.5 116s-24.167 67.167 -43.5 93.5s-43.666 47.166 -72.999 62.499s-63.666 23 -102.999 23s-73.666 -7.66699 -102.999 -23
s-53.666 -36.166 -72.999 -62.499s-33.833 -57.5 -43.5 -93.5s-14.5 -74.667 -14.5 -116s4.83301 -80 14.5 -116s24.167 -67.167 43.5 -93.5s43.666 -47.166 72.999 -62.499zM300.001 962l150 -156l-50 -43l-166 139z" />
    <glyph glyph-name="Oacute" unicode="&#xd3;" horiz-adv-x="772" 
d="M126 96c-26.667 34.667 -46.333 74.667 -59 120s-19 92.666 -19 141.999s6.66699 96.666 20 141.999s33.666 85.333 60.999 120s62.333 62.334 105 83.001s93.334 31 152.001 31c60 0 111.5 -10.333 154.5 -31s78 -48.334 105 -83.001s46.833 -74.667 59.5 -120
s19 -92.666 19 -141.999s-6.66699 -96.666 -20 -141.999s-33.666 -85.333 -60.999 -120s-62.333 -62.334 -105 -83.001s-93.334 -31 -152.001 -31c-60 0 -111.5 10.333 -154.5 31s-78.167 48.334 -105.5 83.001zM283.001 86c29.333 -15.333 63.666 -23 102.999 -23
s73.666 7.66699 102.999 23s53.666 36.166 72.999 62.499s33.833 57.5 43.5 93.5s14.5 74.667 14.5 116s-4.83301 80 -14.5 116s-24.167 67.167 -43.5 93.5s-43.666 47.166 -72.999 62.499s-63.666 23 -102.999 23s-73.666 -7.66699 -102.999 -23
s-53.666 -36.166 -72.999 -62.499s-33.833 -57.5 -43.5 -93.5s-14.5 -74.667 -14.5 -116s4.83301 -80 14.5 -116s24.167 -67.167 43.5 -93.5s43.666 -47.166 72.999 -62.499zM448.001 962l67 -60l-166 -139l-51 43z" />
    <glyph glyph-name="Ocircumflex" unicode="&#xd4;" horiz-adv-x="772" 
d="M126 96c-26.667 34.667 -46.333 74.667 -59 120s-19 92.666 -19 141.999s6.66699 96.666 20 141.999s33.666 85.333 60.999 120s62.333 62.334 105 83.001s93.334 31 152.001 31c60 0 111.5 -10.333 154.5 -31s78 -48.334 105 -83.001s46.833 -74.667 59.5 -120
s19 -92.666 19 -141.999s-6.66699 -96.666 -20 -141.999s-33.666 -85.333 -60.999 -120s-62.333 -62.334 -105 -83.001s-93.334 -31 -152.001 -31c-60 0 -111.5 10.333 -154.5 31s-78.167 48.334 -105.5 83.001zM283.001 86c29.333 -15.333 63.666 -23 102.999 -23
s73.666 7.66699 102.999 23s53.666 36.166 72.999 62.499s33.833 57.5 43.5 93.5s14.5 74.667 14.5 116s-4.83301 80 -14.5 116s-24.167 67.167 -43.5 93.5s-43.666 47.166 -72.999 62.499s-63.666 23 -102.999 23s-73.666 -7.66699 -102.999 -23
s-53.666 -36.166 -72.999 -62.499s-33.833 -57.5 -43.5 -93.5s-14.5 -74.667 -14.5 -116s4.83301 -80 14.5 -116s24.167 -67.167 43.5 -93.5s43.666 -47.166 72.999 -62.499zM354.001 924h77l108 -115l-52 -44l-96 83l-98 -83l-51 43z" />
    <glyph glyph-name="Otilde" unicode="&#xd5;" horiz-adv-x="772" 
d="M126 96c-26.667 34.667 -46.333 74.667 -59 120s-19 92.666 -19 141.999s6.66699 96.666 20 141.999s33.666 85.333 60.999 120s62.333 62.334 105 83.001s93.334 31 152.001 31c60 0 111.5 -10.333 154.5 -31s78 -48.334 105 -83.001s46.833 -74.667 59.5 -120
s19 -92.666 19 -141.999s-6.66699 -96.666 -20 -141.999s-33.666 -85.333 -60.999 -120s-62.333 -62.334 -105 -83.001s-93.334 -31 -152.001 -31c-60 0 -111.5 10.333 -154.5 31s-78.167 48.334 -105.5 83.001zM283.001 86c29.333 -15.333 63.666 -23 102.999 -23
s73.666 7.66699 102.999 23s53.666 36.166 72.999 62.499s33.833 57.5 43.5 93.5s14.5 74.667 14.5 116s-4.83301 80 -14.5 116s-24.167 67.167 -43.5 93.5s-43.666 47.166 -72.999 62.499s-63.666 23 -102.999 23s-73.666 -7.66699 -102.999 -23
s-53.666 -36.166 -72.999 -62.499s-33.833 -57.5 -43.5 -93.5s-14.5 -74.667 -14.5 -116s4.83301 -80 14.5 -116s24.167 -67.167 43.5 -93.5s43.666 -47.166 72.999 -62.499zM191.001 782c0 39.333 6.83398 70.999 20.501 94.999s36.834 36.333 69.501 37
c17.333 0 34.666 -3.16699 51.999 -9.5s35 -13.166 53 -20.499l26 -10c13.333 -5.33301 24.666 -9.5 33.999 -12.5s17 -4.5 23 -4.5c11.333 0 19.166 4 23.499 12s6.5 23 6.5 45h71c0 -40 -7 -72 -21 -96s-37.667 -36 -71 -36c-14 0 -30.333 3.33301 -49 10
s-34.667 12.667 -48 18l-34 12l-33 12c-9.33301 3.33301 -16.666 5 -21.999 5c-11.333 0 -19.333 -4 -24 -12s-7 -23 -7 -45h-70z" />
    <glyph glyph-name="Odieresis" unicode="&#xd6;" horiz-adv-x="772" 
d="M126 96c-26.667 34.667 -46.333 74.667 -59 120s-19 92.666 -19 141.999s6.66699 96.666 20 141.999s33.666 85.333 60.999 120s62.333 62.334 105 83.001s93.334 31 152.001 31c60 0 111.5 -10.333 154.5 -31s78 -48.334 105 -83.001s46.833 -74.667 59.5 -120
s19 -92.666 19 -141.999s-6.66699 -96.666 -20 -141.999s-33.666 -85.333 -60.999 -120s-62.333 -62.334 -105 -83.001s-93.334 -31 -152.001 -31c-60 0 -111.5 10.333 -154.5 31s-78.167 48.334 -105.5 83.001zM283.001 86c29.333 -15.333 63.666 -23 102.999 -23
s73.666 7.66699 102.999 23s53.666 36.166 72.999 62.499s33.833 57.5 43.5 93.5s14.5 74.667 14.5 116s-4.83301 80 -14.5 116s-24.167 67.167 -43.5 93.5s-43.666 47.166 -72.999 62.499s-63.666 23 -102.999 23s-73.666 -7.66699 -102.999 -23
s-53.666 -36.166 -72.999 -62.499s-33.833 -57.5 -43.5 -93.5s-14.5 -74.667 -14.5 -116s4.83301 -80 14.5 -116s24.167 -67.167 43.5 -93.5s43.666 -47.166 72.999 -62.499zM227.001 797c-10 13.333 -14.999 28.667 -14.999 46c0 18 5.16699 33.333 15.5 46
s26.166 19 47.499 19c20.667 0 36.167 -6.33301 46.5 -19s15.5 -28 15.5 -46c0 -17.333 -5.16699 -32.5 -15.5 -45.5s-25.833 -19.5 -46.5 -19.5c-21.333 0 -37.333 6.33301 -48 19zM453.002 797.001c-10 13.333 -14.999 28.667 -14.999 46c0 18 5.16699 33.333 15.5 46
s26.166 19 47.499 19c20.667 0 36.167 -6.33301 46.5 -19s15.5 -28 15.5 -46c0 -17.333 -5.16699 -32.5 -15.5 -45.5s-25.833 -19.5 -46.5 -19.5c-21.333 0 -37.333 6.33301 -48 19z" />
    <glyph glyph-name="multiply" unicode="&#xd7;" horiz-adv-x="670" 
d="M143 204l134 134l-138 138l60 60l138 -138l135 135l56 -57l-135 -135l138 -138l-59 -59l-138 138l-135 -135z" />
    <glyph glyph-name="Oslash" unicode="&#xd8;" horiz-adv-x="773" 
d="M171 49c-43.333 34 -74.6689 78 -94.002 132s-29 111.667 -29 173c0 48.667 6.33301 95.834 19 141.501s32.667 86.167 60 121.5s62.333 63.666 105 84.999s94.334 32 155.001 32c25.333 0 49.333 -2.16699 72 -6.5s43.667 -10.166 63 -17.499l41 78h98l-64 -121
c44.667 -36 77.167 -81.833 97.5 -137.5s30.5 -114.167 30.5 -175.5c0 -49.333 -6.33301 -96.5 -19 -141.5s-32.5 -84.5 -59.5 -118.5s-62 -61.167 -105 -81.5s-94.5 -30.5 -154.5 -30.5c-27.333 0 -52.666 2.16699 -75.999 6.5s-45 10.166 -65 17.499l-46 -88h-98z
M286.997 83c28 -14 61.335 -21.001 100.002 -21.001c39.333 0 73.666 7.5 102.999 22.5s53.666 35.833 72.999 62.5s33.833 57.834 43.5 93.501s14.5 74.167 14.5 115.5c0 45.333 -5.83301 87.333 -17.5 126s-29.167 71.667 -52.5 99zM480.999 633.999
c-28 13.333 -59.334 20.001 -94.001 20.001c-39.333 0 -73.833 -7.83301 -103.5 -23.5s-54.167 -37 -73.5 -64s-33.833 -58.5 -43.5 -94.5s-14.5 -74.667 -14.5 -116c0 -44 5.33301 -84.833 16 -122.5s27.334 -69.834 50.001 -96.501z" />
    <glyph glyph-name="Ugrave" unicode="&#xd9;" horiz-adv-x="726" 
d="M72 721l98 0.000976562v-398c0 -40 2.33301 -76 7 -108s14 -59.167 28 -81.5s33.5 -39.666 58.5 -51.999s57.833 -18.5 98.5 -18.5s73.667 6 99 18s45 29.167 59 51.5s23.5 49.166 28.5 80.499s7.5 66.333 7.5 105v403h98v-407c0 -48 -4 -92.167 -12 -132.5
s-22.833 -75.333 -44.5 -105s-51.5 -52.834 -89.5 -69.501s-86.667 -25 -146 -25c-60 0 -108.833 7.66699 -146.5 23s-67.167 36.833 -88.5 64.5s-35.833 61 -43.5 100s-11.5 82.5 -11.5 130.5v421zM293 962.001l150 -156l-50 -43l-166 139z" />
    <glyph glyph-name="Uacute" unicode="&#xda;" horiz-adv-x="726" 
d="M72 721l98 0.000976562v-398c0 -40 2.33301 -76 7 -108s14 -59.167 28 -81.5s33.5 -39.666 58.5 -51.999s57.833 -18.5 98.5 -18.5s73.667 6 99 18s45 29.167 59 51.5s23.5 49.166 28.5 80.499s7.5 66.333 7.5 105v403h98v-407c0 -48 -4 -92.167 -12 -132.5
s-22.833 -75.333 -44.5 -105s-51.5 -52.834 -89.5 -69.501s-86.667 -25 -146 -25c-60 0 -108.833 7.66699 -146.5 23s-67.167 36.833 -88.5 64.5s-35.833 61 -43.5 100s-11.5 82.5 -11.5 130.5v421zM457 962.001l67 -60l-166 -139l-51 43z" />
    <glyph glyph-name="Ucircumflex" unicode="&#xdb;" horiz-adv-x="726" 
d="M72 721l98 0.000976562v-398c0 -40 2.33301 -76 7 -108s14 -59.167 28 -81.5s33.5 -39.666 58.5 -51.999s57.833 -18.5 98.5 -18.5s73.667 6 99 18s45 29.167 59 51.5s23.5 49.166 28.5 80.499s7.5 66.333 7.5 105v403h98v-407c0 -48 -4 -92.167 -12 -132.5
s-22.833 -75.333 -44.5 -105s-51.5 -52.834 -89.5 -69.501s-86.667 -25 -146 -25c-60 0 -108.833 7.66699 -146.5 23s-67.167 36.833 -88.5 64.5s-35.833 61 -43.5 100s-11.5 82.5 -11.5 130.5v421zM334 924.001h77l108 -115l-52 -44l-96 83l-98 -83l-51 43z" />
    <glyph glyph-name="Udieresis" unicode="&#xdc;" horiz-adv-x="726" 
d="M72 721l98 0.000976562v-398c0 -40 2.33301 -76 7 -108s14 -59.167 28 -81.5s33.5 -39.666 58.5 -51.999s57.833 -18.5 98.5 -18.5s73.667 6 99 18s45 29.167 59 51.5s23.5 49.166 28.5 80.499s7.5 66.333 7.5 105v403h98v-407c0 -48 -4 -92.167 -12 -132.5
s-22.833 -75.333 -44.5 -105s-51.5 -52.834 -89.5 -69.501s-86.667 -25 -146 -25c-60 0 -108.833 7.66699 -146.5 23s-67.167 36.833 -88.5 64.5s-35.833 61 -43.5 100s-11.5 82.5 -11.5 130.5v421zM212 797.001c-10 13.333 -14.999 28.667 -14.999 46
c0 18 5.16699 33.333 15.5 46s26.166 19 47.499 19c20.667 0 36.167 -6.33301 46.5 -19s15.5 -28 15.5 -46c0 -17.333 -5.16699 -32.5 -15.5 -45.5s-25.833 -19.5 -46.5 -19.5c-21.333 0 -37.333 6.33301 -48 19zM438.001 797.002c-10 13.333 -14.999 28.667 -14.999 46
c0 18 5.16699 33.333 15.5 46s26.166 19 47.499 19c20.667 0 36.167 -6.33301 46.5 -19s15.5 -28 15.5 -46c0 -17.333 -5.16699 -32.5 -15.5 -45.5s-25.833 -19.5 -46.5 -19.5c-21.333 0 -37.333 6.33301 -48 19z" />
    <glyph glyph-name="Yacute" unicode="&#xdd;" horiz-adv-x="664" 
d="M279 251c-15.333 4 -28.5 9.66895 -39.5 17.002s-21 16.666 -30 27.999s-17.5 24.666 -25.5 39.999s-16.667 33 -26 53l-146 305l87 36l156 -330c7.33301 -16 14 -28.667 20 -38s12 -16.5 18 -21.5s12 -8.33301 18 -10s12.667 -2.5 20 -2.5c8 0 15 0.833008 21 2.5
s12 5 18 10s12 12.5 18 22.5s13 23 21 39l156 327l87 -35l-142 -290l-28.5 -55.5c-9 -17 -18.5 -32 -28.5 -45s-21 -23.833 -33 -32.5s-26 -15 -42 -19v-252h-99v251zM412 962.002l67 -60l-166 -139l-51 43z" />
    <glyph glyph-name="Thorn" unicode="&#xde;" horiz-adv-x="626" 
d="M75 721l98 -0.000976562v-108h168c33.333 0 64.833 -4.16699 94.5 -12.5s55.667 -21.833 78 -40.5s40 -42.5 53 -71.5s19.5 -63.833 19.5 -104.5c0 -33.333 -6.5 -63.666 -19.5 -90.999s-30.667 -50.833 -53 -70.5s-48.833 -35 -79.5 -46s-64 -16.5 -100 -16.5h-161v-160
h-98v721zM321 237.999c20 0 39.833 2.33301 59.5 7s37 12.667 52 24s27.333 26.333 37 45s14.5 42 14.5 70c0 32.667 -4.66699 59 -14 79s-21.5 35.5 -36.5 46.5s-32.333 18.333 -52 22s-40.167 5.5 -61.5 5.5h-147v-299h148z" />
    <glyph glyph-name="germandbls" unicode="&#xdf;" horiz-adv-x="596" 
d="M71 541c0 27.333 4.33203 52.8369 12.999 76.5039s21.834 44.167 39.501 61.5s40 30.833 67 40.5s59.167 14.5 96.5 14.5c38.667 0 71 -4.66699 97 -14s46.667 -21 62 -35s26.166 -29.333 32.499 -46s9.5 -32 9.5 -46c0 -25.333 -5.66699 -47.333 -17 -66
s-23.666 -35.5 -36.999 -50.5l-37 -43c-11.333 -13.667 -17 -27.834 -17 -42.501c0 -12 4.5 -22.833 13.5 -32.5s20.333 -19 34 -28l44.5 -29c16 -10.333 30.833 -22.5 44.5 -36.5s25 -30.667 34 -50s13.5 -42.333 13.5 -69c0 -22 -3.66699 -43 -11 -63s-19 -37.5 -35 -52.5
s-36.333 -26.833 -61 -35.5s-54.334 -13 -89.001 -13c-34 0 -64.5 3.5 -91.5 10.5s-47.167 13.833 -60.5 20.5l21 76c13.333 -6 31.833 -12.5 55.5 -19.5s51.834 -10.5 84.501 -10.5c18 0 33 2.5 45 7.5s21.5 11.333 28.5 19s12 16.5 15 26.5s4.5 20 4.5 30
c0 18 -4.5 33.5 -13.5 46.5s-20.5 25.167 -34.5 36.5s-28.833 22.166 -44.5 32.499s-30.5 21.5 -44.5 33.5s-25.5 25.5 -34.5 40.5s-13.5 32.833 -13.5 53.5c0 22.667 5.83301 42.667 17.5 60s24.667 33.833 39 49.5s27.333 31.167 39 46.5s17.5 32.666 17.5 51.999
c0 7.33301 -1.83301 15 -5.5 23s-9.83398 15.167 -18.501 21.5s-20.167 11.666 -34.5 15.999s-31.833 6.5 -52.5 6.5c-45.333 0 -77.166 -12.5 -95.499 -37.5s-27.5 -58.833 -27.5 -101.5v-521h-93v541z" />
    <glyph glyph-name="agrave" unicode="&#xe0;" horiz-adv-x="544" 
d="M402 36c-10 -6 -21.1689 -12.1709 -33.502 -18.5039s-26 -12.166 -41 -17.499s-31.167 -9.66602 -48.5 -12.999s-35.666 -5 -54.999 -5c-25.333 0 -49.166 3 -71.499 9s-42 15.333 -59 28s-30.5 28.834 -40.5 48.501s-15 43.5 -15 71.5c0 29.333 5.66699 54.333 17 75
s26.166 37.667 44.499 51s39.333 23 63 29s47.834 9 72.501 9h142v24c0 43.333 -8.5 73.5 -25.5 90.5s-45.5 25.5 -85.5 25.5c-27.333 0 -52.833 -2 -76.5 -6s-50.5 -11.333 -80.5 -22l-24 69c23.333 8.66699 50.5 16.667 81.5 24s67.5 11 109.5 11
c41.333 0 74.833 -5 100.5 -15s45.5 -24 59.5 -42s23.5 -39.667 28.5 -65s7.5 -53.666 7.5 -84.999v-215l42 -63l-64 -51zM378.998 228.996l-139.001 0.000976562c-29.333 0 -54.166 -7 -74.499 -21s-30.5 -35.667 -30.5 -65c0 -16 3 -29.5 9 -40.5
s13.833 -19.833 23.5 -26.5s21 -11.334 34 -14.001s26.5 -4 40.5 -4c30 0 55.833 5.16699 77.5 15.5s41.5 21.5 59.5 33.5v122zM134.997 744.997l77 53l131 -188l-57 -40z" />
    <glyph glyph-name="aacute" unicode="&#xe1;" horiz-adv-x="544" 
d="M402 36c-10 -6 -21.1689 -12.1709 -33.502 -18.5039s-26 -12.166 -41 -17.499s-31.167 -9.66602 -48.5 -12.999s-35.666 -5 -54.999 -5c-25.333 0 -49.166 3 -71.499 9s-42 15.333 -59 28s-30.5 28.834 -40.5 48.501s-15 43.5 -15 71.5c0 29.333 5.66699 54.333 17 75
s26.166 37.667 44.499 51s39.333 23 63 29s47.834 9 72.501 9h142v24c0 43.333 -8.5 73.5 -25.5 90.5s-45.5 25.5 -85.5 25.5c-27.333 0 -52.833 -2 -76.5 -6s-50.5 -11.333 -80.5 -22l-24 69c23.333 8.66699 50.5 16.667 81.5 24s67.5 11 109.5 11
c41.333 0 74.833 -5 100.5 -15s45.5 -24 59.5 -42s23.5 -39.667 28.5 -65s7.5 -53.666 7.5 -84.999v-215l42 -63l-64 -51zM378.998 228.996l-139.001 0.000976562c-29.333 0 -54.166 -7 -74.499 -21s-30.5 -35.667 -30.5 -65c0 -16 3 -29.5 9 -40.5
s13.833 -19.833 23.5 -26.5s21 -11.334 34 -14.001s26.5 -4 40.5 -4c30 0 55.833 5.16699 77.5 15.5s41.5 21.5 59.5 33.5v122zM327.997 797.997l75 -53l-151 -175l-55 40z" />
    <glyph glyph-name="acircumflex" unicode="&#xe2;" horiz-adv-x="544" 
d="M402 36c-10 -6 -21.1689 -12.1709 -33.502 -18.5039s-26 -12.166 -41 -17.499s-31.167 -9.66602 -48.5 -12.999s-35.666 -5 -54.999 -5c-25.333 0 -49.166 3 -71.499 9s-42 15.333 -59 28s-30.5 28.834 -40.5 48.501s-15 43.5 -15 71.5c0 29.333 5.66699 54.333 17 75
s26.166 37.667 44.499 51s39.333 23 63 29s47.834 9 72.501 9h142v24c0 43.333 -8.5 73.5 -25.5 90.5s-45.5 25.5 -85.5 25.5c-27.333 0 -52.833 -2 -76.5 -6s-50.5 -11.333 -80.5 -22l-24 69c23.333 8.66699 50.5 16.667 81.5 24s67.5 11 109.5 11
c41.333 0 74.833 -5 100.5 -15s45.5 -24 59.5 -42s23.5 -39.667 28.5 -65s7.5 -53.666 7.5 -84.999v-215l42 -63l-64 -51zM378.998 228.996l-139.001 0.000976562c-29.333 0 -54.166 -7 -74.499 -21s-30.5 -35.667 -30.5 -65c0 -16 3 -29.5 9 -40.5
s13.833 -19.833 23.5 -26.5s21 -11.334 34 -14.001s26.5 -4 40.5 -4c30 0 55.833 5.16699 77.5 15.5s41.5 21.5 59.5 33.5v122zM231.997 773.997h77l113 -160l-56 -39l-97 119l-98 -118l-57 38z" />
    <glyph glyph-name="atilde" unicode="&#xe3;" horiz-adv-x="544" 
d="M402 36c-10 -6 -21.1689 -12.1709 -33.502 -18.5039s-26 -12.166 -41 -17.499s-31.167 -9.66602 -48.5 -12.999s-35.666 -5 -54.999 -5c-25.333 0 -49.166 3 -71.499 9s-42 15.333 -59 28s-30.5 28.834 -40.5 48.501s-15 43.5 -15 71.5c0 29.333 5.66699 54.333 17 75
s26.166 37.667 44.499 51s39.333 23 63 29s47.834 9 72.501 9h142v24c0 43.333 -8.5 73.5 -25.5 90.5s-45.5 25.5 -85.5 25.5c-27.333 0 -52.833 -2 -76.5 -6s-50.5 -11.333 -80.5 -22l-24 69c23.333 8.66699 50.5 16.667 81.5 24s67.5 11 109.5 11
c41.333 0 74.833 -5 100.5 -15s45.5 -24 59.5 -42s23.5 -39.667 28.5 -65s7.5 -53.666 7.5 -84.999v-215l42 -63l-64 -51zM378.998 228.996l-139.001 0.000976562c-29.333 0 -54.166 -7 -74.499 -21s-30.5 -35.667 -30.5 -65c0 -16 3 -29.5 9 -40.5
s13.833 -19.833 23.5 -26.5s21 -11.334 34 -14.001s26.5 -4 40.5 -4c30 0 55.833 5.16699 77.5 15.5s41.5 21.5 59.5 33.5v122zM73.9971 601.997c0 39.333 6.83301 71 20.5 95s36.834 36.333 69.501 37c17.333 0 34.666 -3.16699 51.999 -9.5s35 -13.166 53 -20.499l26 -10
c13.333 -5.33301 24.666 -9.5 33.999 -12.5s17 -4.5 23 -4.5c11.333 0 19.166 4 23.499 12s6.5 23 6.5 45h71c0 -40 -7 -72 -21 -96s-37.667 -36 -71 -36c-14 0 -30.333 3.33301 -49 10s-34.667 12.667 -48 18l-30 11c-13.333 5.33301 -25.166 9.66602 -35.499 12.999
s-18.166 5 -23.499 5c-11.333 0 -19.333 -4 -24 -12s-7 -23 -7 -45h-70z" />
    <glyph glyph-name="adieresis" unicode="&#xe4;" horiz-adv-x="544" 
d="M402 36c-10 -6 -21.1689 -12.1709 -33.502 -18.5039s-26 -12.166 -41 -17.499s-31.167 -9.66602 -48.5 -12.999s-35.666 -5 -54.999 -5c-25.333 0 -49.166 3 -71.499 9s-42 15.333 -59 28s-30.5 28.834 -40.5 48.501s-15 43.5 -15 71.5c0 29.333 5.66699 54.333 17 75
s26.166 37.667 44.499 51s39.333 23 63 29s47.834 9 72.501 9h142v24c0 43.333 -8.5 73.5 -25.5 90.5s-45.5 25.5 -85.5 25.5c-27.333 0 -52.833 -2 -76.5 -6s-50.5 -11.333 -80.5 -22l-24 69c23.333 8.66699 50.5 16.667 81.5 24s67.5 11 109.5 11
c41.333 0 74.833 -5 100.5 -15s45.5 -24 59.5 -42s23.5 -39.667 28.5 -65s7.5 -53.666 7.5 -84.999v-215l42 -63l-64 -51zM378.998 228.996l-139.001 0.000976562c-29.333 0 -54.166 -7 -74.499 -21s-30.5 -35.667 -30.5 -65c0 -16 3 -29.5 9 -40.5
s13.833 -19.833 23.5 -26.5s21 -11.334 34 -14.001s26.5 -4 40.5 -4c30 0 55.833 5.16699 77.5 15.5s41.5 21.5 59.5 33.5v122zM106.997 623.997c-10 12.667 -14.999 27.667 -14.999 45c0 18 5.16699 33.333 15.5 46s26.166 19 47.499 19c20.667 0 36.167 -6.33301 46.5 -19
s15.5 -28 15.5 -46c0 -17.333 -5.16699 -32.333 -15.5 -45s-25.833 -19 -46.5 -19c-21.333 0 -37.333 6.33301 -48 19zM332.998 623.997c-10 12.667 -14.999 27.667 -14.999 45c0 18 5.16699 33.333 15.5 46s26.166 19 47.499 19c20.667 0 36.167 -6.33301 46.5 -19
s15.5 -28 15.5 -46c0 -17.333 -5.16699 -32.333 -15.5 -45s-25.833 -19 -46.5 -19c-21.333 0 -37.333 6.33301 -48 19z" />
    <glyph glyph-name="aring" unicode="&#xe5;" horiz-adv-x="544" 
d="M402 36c-10 -6 -21.1689 -12.1709 -33.502 -18.5039s-26 -12.166 -41 -17.499s-31.167 -9.66602 -48.5 -12.999s-35.666 -5 -54.999 -5c-25.333 0 -49.166 3 -71.499 9s-42 15.333 -59 28s-30.5 28.834 -40.5 48.501s-15 43.5 -15 71.5c0 29.333 5.66699 54.333 17 75
s26.166 37.667 44.499 51s39.333 23 63 29s47.834 9 72.501 9h142v24c0 43.333 -8.5 73.5 -25.5 90.5s-45.5 25.5 -85.5 25.5c-27.333 0 -52.833 -2 -76.5 -6s-50.5 -11.333 -80.5 -22l-24 69c23.333 8.66699 50.5 16.667 81.5 24s67.5 11 109.5 11
c41.333 0 74.833 -5 100.5 -15s45.5 -24 59.5 -42s23.5 -39.667 28.5 -65s7.5 -53.666 7.5 -84.999v-215l42 -63l-64 -51zM378.998 228.996l-139.001 0.000976562c-29.333 0 -54.166 -7 -74.499 -21s-30.5 -35.667 -30.5 -65c0 -16 3 -29.5 9 -40.5
s13.833 -19.833 23.5 -26.5s21 -11.334 34 -14.001s26.5 -4 40.5 -4c30 0 55.833 5.16699 77.5 15.5s41.5 21.5 59.5 33.5v122zM267.997 643.997c18.667 0 34.167 6.5 46.5 19.5s18.5 28.5 18.5 46.5s-6.33301 33.5 -19 46.5s-28 19.5 -46 19.5s-33.333 -6.5 -46 -19.5
s-19 -28.5 -19 -46.5s6.16699 -33.5 18.5 -46.5s27.833 -19.5 46.5 -19.5zM148.997 658.997c-6.66699 16 -10 33.001 -10 51.001s3.33301 34.833 10 50.5s15.834 29.334 27.501 41.001s25.334 20.834 41.001 27.501s32.5 10 50.5 10s34.833 -3.33301 50.5 -10
s29.334 -15.834 41.001 -27.501s20.834 -25.334 27.501 -41.001s10 -32.5 10 -50.5s-3.33301 -34.833 -10 -50.5s-15.834 -29.334 -27.501 -41.001s-25.334 -20.834 -41.001 -27.501s-32.5 -10 -50.5 -10s-34.833 3.33301 -50.5 10s-29.334 15.834 -41.001 27.501
s-20.834 25.167 -27.501 40.5z" />
    <glyph glyph-name="ae" unicode="&#xe6;" horiz-adv-x="881" 
d="M72 484c23.333 8.66699 50.834 16.666 82.501 23.999s68.5 11 110.5 11c49.333 0 86.5 -6.83301 111.5 -20.5s42.833 -33.167 53.5 -58.5c19.333 24 43.666 43.167 72.999 57.5s64.666 21.5 105.999 21.5c78 0 134.833 -22.167 170.5 -66.5s53.5 -106.5 53.5 -186.5
l-45 -44h-330c1.33301 -50 16.166 -89.333 44.499 -118s68.5 -43 120.5 -43c16.667 0 31.667 0.5 45 1.5s26.5 2.83301 39.5 5.5s26.5 6 40.5 10l48 14l26 -72c-24 -8.66699 -52.333 -17.167 -85 -25.5s-72 -12.5 -118 -12.5s-84.833 6 -116.5 18s-58.167 29 -79.5 51
c-33.333 -23.333 -67.5 -40.666 -102.5 -51.999s-71.167 -17 -108.5 -17c-25.333 0 -49.333 3 -72 9s-42.5 15.333 -59.5 28s-30.5 28.834 -40.5 48.501s-15 43.5 -15 71.5c0 29.333 5.66699 54 17 74s26.333 36.333 45 49s39.834 21.667 63.501 27s47.834 8 72.501 8h142
v30c0 43.333 -8.33301 73.666 -25 90.999s-45 26 -85 26c-27.333 0 -52.833 -2.16699 -76.5 -6.5s-50.5 -11.833 -80.5 -22.5zM228.001 222.999c-29.333 0 -54.334 -6 -75.001 -18s-31 -32.667 -31 -62c0 -16 2.83301 -29.5 8.5 -40.5s13.5 -19.667 23.5 -26
s21.333 -10.833 34 -13.5s26 -4 40 -4c34.667 0 64.834 6 90.501 18s47.5 24.667 65.5 38c-13.333 32.667 -21 68.667 -23 108h-133zM734 296.999c0 28 -3.33203 51.499 -9.99902 70.499s-15.667 34.333 -27 46s-24.833 20 -40.5 25s-32.834 7.5 -51.501 7.5
c-21.333 0 -40.666 -3.83301 -57.999 -11.5s-32.333 -18.167 -45 -31.5s-22.834 -29.166 -30.501 -47.499s-12.167 -37.833 -13.5 -58.5h276z" />
    <glyph glyph-name="ccedilla" unicode="&#xe7;" horiz-adv-x="529" 
d="M199 -146c10.667 -5.33301 23.1699 -10.833 37.5029 -16.5s30.166 -8.5 47.499 -8.5c14.667 0 25.834 3.16699 33.501 9.5s11.5 14.833 11.5 25.5c0 9.33301 -2.66699 16.833 -8 22.5s-12.5 10 -21.5 13s-19.333 5.16699 -31 6.5s-23.834 2 -36.501 2l19 77
c-38 4.66699 -70 14.167 -96 28.5s-47.333 32.833 -64 55.5s-28.667 49 -36 79s-11 62.667 -11 98c0 38.667 5.66699 74.667 17 108s28.166 62.166 50.499 86.499s50 43.333 83 57s71.167 20.5 114.5 20.5c40.667 0 75.667 -3.66699 105 -11s54.666 -15.333 75.999 -24
l-29 -71c-14.667 5.33301 -28 9.83301 -40 13.5s-23.833 6.5 -35.5 8.5s-23.334 3.33301 -35.001 4s-24.5 1 -38.5 1c-28 0 -52.667 -4.83301 -74 -14.5s-39.166 -23 -53.499 -40s-25.166 -37.333 -32.499 -61s-11 -49.5 -11 -77.5c0 -61.333 14 -107.666 42 -138.999
s69 -47 123 -47c26 0 52.167 2.16699 78.5 6.5s53.833 12.5 82.5 24.5l27 -72c-22 -9.33301 -46.667 -17.333 -74 -24s-57 -10.667 -89 -12l-8 -33c12 -1.33301 23.5 -4 34.5 -8s20.833 -9.33301 29.5 -16s15.667 -15.167 21 -25.5s8 -22.833 8 -37.5
c0 -30 -10.5 -54.667 -31.5 -74s-52.5 -29 -94.5 -29c-20.667 0 -42.334 3 -65.001 9s-40.667 13.667 -54 23z" />
    <glyph glyph-name="egrave" unicode="&#xe8;" horiz-adv-x="563" 
d="M419 297c0 27.333 -3.33105 50.333 -9.99805 69s-15.834 33.667 -27.501 45s-25.334 19.333 -41.001 24s-32.5 7 -50.5 7c-45.333 0 -80.333 -13.167 -105 -39.5s-38.667 -61.5 -42 -105.5h276zM506.002 20c-24 -8.66699 -51.999 -17.1699 -83.999 -25.5029
s-71 -12.5 -117 -12.5c-48 0 -88.5 6.33301 -121.5 19s-59.833 30.667 -80.5 54s-35.667 51.333 -45 84s-14 69 -14 109c0 36.667 5 71.334 15 104.001s25.167 61.334 45.5 86.001s46 44.334 77 59.001s67.5 22 109.5 22c75.333 0 131.5 -22 168.5 -66
s55.5 -106.333 55.5 -187l-45 -44h-328c1.33301 -50 16.166 -89.5 44.499 -118.5s68.5 -43.5 120.5 -43.5c16.667 0 31.667 0.666992 45 2s26.5 3.33301 39.5 6s26.5 6 40.5 10l48 14zM159.003 744.997l77 53l131 -188l-57 -40z" />
    <glyph glyph-name="eacute" unicode="&#xe9;" horiz-adv-x="563" 
d="M419 297c0 27.333 -3.33105 50.333 -9.99805 69s-15.834 33.667 -27.501 45s-25.334 19.333 -41.001 24s-32.5 7 -50.5 7c-45.333 0 -80.333 -13.167 -105 -39.5s-38.667 -61.5 -42 -105.5h276zM506.002 20c-24 -8.66699 -51.999 -17.1699 -83.999 -25.5029
s-71 -12.5 -117 -12.5c-48 0 -88.5 6.33301 -121.5 19s-59.833 30.667 -80.5 54s-35.667 51.333 -45 84s-14 69 -14 109c0 36.667 5 71.334 15 104.001s25.167 61.334 45.5 86.001s46 44.334 77 59.001s67.5 22 109.5 22c75.333 0 131.5 -22 168.5 -66
s55.5 -106.333 55.5 -187l-45 -44h-328c1.33301 -50 16.166 -89.5 44.499 -118.5s68.5 -43.5 120.5 -43.5c16.667 0 31.667 0.666992 45 2s26.5 3.33301 39.5 6s26.5 6 40.5 10l48 14zM349.003 797.997l75 -53l-151 -175l-55 40z" />
    <glyph glyph-name="ecircumflex" unicode="&#xea;" horiz-adv-x="563" 
d="M419 297c0 27.333 -3.33105 50.333 -9.99805 69s-15.834 33.667 -27.501 45s-25.334 19.333 -41.001 24s-32.5 7 -50.5 7c-45.333 0 -80.333 -13.167 -105 -39.5s-38.667 -61.5 -42 -105.5h276zM506.002 20c-24 -8.66699 -51.999 -17.1699 -83.999 -25.5029
s-71 -12.5 -117 -12.5c-48 0 -88.5 6.33301 -121.5 19s-59.833 30.667 -80.5 54s-35.667 51.333 -45 84s-14 69 -14 109c0 36.667 5 71.334 15 104.001s25.167 61.334 45.5 86.001s46 44.334 77 59.001s67.5 22 109.5 22c75.333 0 131.5 -22 168.5 -66
s55.5 -106.333 55.5 -187l-45 -44h-328c1.33301 -50 16.166 -89.5 44.499 -118.5s68.5 -43.5 120.5 -43.5c16.667 0 31.667 0.666992 45 2s26.5 3.33301 39.5 6s26.5 6 40.5 10l48 14zM250.003 773.997h77l113 -160l-56 -39l-97 119l-98 -118l-57 38z" />
    <glyph glyph-name="edieresis" unicode="&#xeb;" horiz-adv-x="563" 
d="M419 297c0 27.333 -3.33105 50.333 -9.99805 69s-15.834 33.667 -27.501 45s-25.334 19.333 -41.001 24s-32.5 7 -50.5 7c-45.333 0 -80.333 -13.167 -105 -39.5s-38.667 -61.5 -42 -105.5h276zM506.002 20c-24 -8.66699 -51.999 -17.1699 -83.999 -25.5029
s-71 -12.5 -117 -12.5c-48 0 -88.5 6.33301 -121.5 19s-59.833 30.667 -80.5 54s-35.667 51.333 -45 84s-14 69 -14 109c0 36.667 5 71.334 15 104.001s25.167 61.334 45.5 86.001s46 44.334 77 59.001s67.5 22 109.5 22c75.333 0 131.5 -22 168.5 -66
s55.5 -106.333 55.5 -187l-45 -44h-328c1.33301 -50 16.166 -89.5 44.499 -118.5s68.5 -43.5 120.5 -43.5c16.667 0 31.667 0.666992 45 2s26.5 3.33301 39.5 6s26.5 6 40.5 10l48 14zM122.003 623.997c-10 12.667 -14.999 27.667 -14.999 45c0 18 5.16699 33.333 15.5 46
s26.166 19 47.499 19c20.667 0 36.167 -6.33301 46.5 -19s15.5 -28 15.5 -46c0 -17.333 -5.16699 -32.333 -15.5 -45s-25.833 -19 -46.5 -19c-21.333 0 -37.333 6.33301 -48 19zM348.004 623.997c-10 12.667 -14.999 27.667 -14.999 45c0 18 5.16699 33.333 15.5 46
s26.166 19 47.499 19c20.667 0 36.167 -6.33301 46.5 -19s15.5 -28 15.5 -46c0 -17.333 -5.16699 -32.333 -15.5 -45s-25.833 -19 -46.5 -19c-21.333 0 -37.333 6.33301 -48 19z" />
    <glyph glyph-name="igrave" unicode="&#xec;" horiz-adv-x="257" 
d="M-6 745l77 53l131 -188l-57 -40zM94 427h-66v74h159v-501h-93v427z" />
    <glyph glyph-name="iacute" unicode="&#xed;" horiz-adv-x="257" 
d="M174 798l75 -53l-151 -175l-55 40zM94 427h-66v74h159v-501h-93v427z" />
    <glyph glyph-name="icircumflex" unicode="&#xee;" horiz-adv-x="258" 
d="M94 427h-66v74h159v-501h-93v427zM88 774h77l113 -160l-56 -39l-97 119l-98 -118l-57 38z" />
    <glyph glyph-name="idieresis" unicode="&#xef;" horiz-adv-x="257" 
d="M-41 624c-10 12.667 -14.999 27.667 -14.999 45c0 18 5.16699 33.333 15.5 46s26.166 19 47.499 19c20.667 0 36.167 -6.33301 46.5 -19s15.5 -28 15.5 -46c0 -17.333 -5.16699 -32.333 -15.5 -45s-25.833 -19 -46.5 -19c-21.333 0 -37.333 6.33301 -48 19zM185.001 624
c-10 12.667 -14.999 27.667 -14.999 45c0 18 5.16699 33.333 15.5 46s26.166 19 47.499 19c20.667 0 36.167 -6.33301 46.5 -19s15.5 -28 15.5 -46c0 -17.333 -5.16699 -32.333 -15.5 -45s-25.833 -19 -46.5 -19c-21.333 0 -37.333 6.33301 -48 19zM94.002 427h-66v74h159
v-501h-93v427z" />
    <glyph glyph-name="eth" unicode="&#xf0;" horiz-adv-x="586" 
d="M187 573l76.999 51.9961c-35.333 19.333 -72.666 33.333 -111.999 42l32 71c23.333 -4.66699 48.5 -12 75.5 -22s53.833 -23.333 80.5 -40l104 69l42 -55l-87 -58c20 -17.333 38.667 -37.166 56 -59.499s32.5 -47.333 45.5 -75s23.167 -58.167 30.5 -91.5
s11 -69.333 11 -108c0 -45.333 -4.66699 -87.333 -14 -126s-24.166 -72 -44.499 -100s-46.5 -50 -78.5 -66s-70.333 -24 -115 -24c-40.667 0 -76.334 6 -107.001 18s-56.334 28.833 -77.001 50.5s-36.167 47.834 -46.5 78.501s-15.5 65 -15.5 103
c0 40 5.66699 75.833 17 107.5s27.333 58.334 48 80.001s44.834 38.334 72.501 50.001s58.167 17.5 91.5 17.5c32 0 61.667 -5.5 89 -16.5s48.666 -22.833 63.999 -35.5c-6 28 -17.667 54.5 -35 79.5s-38.666 47.833 -63.999 68.5l-98 -66zM440.999 342.996
c-6 6 -14.1641 13 -24.4971 21s-22.333 15.5 -36 22.5s-28.667 13 -45 18s-33.833 7.5 -52.5 7.5c-20 0 -38.333 -3.33301 -55 -10s-31.334 -17.167 -44.001 -31.5s-22.5 -32.833 -29.5 -55.5s-10.5 -50.334 -10.5 -83.001c0 -56.667 12.833 -99.667 38.5 -129
s63.5 -44 113.5 -44c30 0 54.667 6.66699 74 20s34.666 30.333 45.999 51s19.166 43.667 23.499 69s6.5 50.333 6.5 75c0 12.667 -0.5 24.834 -1.5 36.501s-2.16699 22.5 -3.5 32.5z" />
    <glyph glyph-name="ntilde" unicode="&#xf1;" horiz-adv-x="586" 
d="M73 404l-30.999 84.001l80 37l31 -53c28 13.333 56.5 24.5 85.5 33.5s61.167 13.5 96.5 13.5s64.833 -5.16699 88.5 -15.5s42.5 -24.333 56.5 -42s24 -38.334 30 -62.001s9 -48.5 9 -74.5v-325h-93v320c0 42 -10 72.333 -30 91s-47 28 -81 28
c-30.667 0 -58.334 -4.33301 -83.001 -13s-46.667 -17.667 -66 -27v-399h-93v404zM88.001 602.001c0 39.333 6.83301 71 20.5 95s36.834 36.333 69.501 37c17.333 0 34.666 -3.16699 51.999 -9.5s35 -13.166 53 -20.499l26 -10c13.333 -5.33301 24.666 -9.5 33.999 -12.5
s17 -4.5 23 -4.5c11.333 0 19.166 4 23.499 12s6.5 23 6.5 45h71c0 -40 -7 -72 -21 -96s-37.667 -36 -71 -36c-14 0 -30.333 3.33301 -49 10s-34.667 12.667 -48 18l-30 11c-13.333 5.33301 -25.166 9.66602 -35.499 12.999s-18.166 5 -23.499 5
c-11.333 0 -19.333 -4 -24 -12s-7 -23 -7 -45h-70z" />
    <glyph glyph-name="ograve" unicode="&#xf2;" horiz-adv-x="591" 
d="M296 59c50 0 88.333 16.167 115 48.5s40 79.833 40 142.5c0 63.333 -13.5 111.166 -40.5 143.499s-65.167 48.5 -114.5 48.5c-50.667 0 -89.5 -16.167 -116.5 -48.5s-40.5 -80.166 -40.5 -143.499c0 -62.667 13.667 -110.167 41 -142.5s66 -48.5 116 -48.5zM100 59
c-19.333 24 -33.501 52.333 -42.501 85s-13.5 68 -13.5 106s5.16699 73.5 15.5 106.5s26 61.5 47 85.5s47.333 42.833 79 56.5s68.5 20.5 110.5 20.5c43.333 0 80.833 -6.83301 112.5 -20.5s57.667 -32.5 78 -56.5s35.5 -52.333 45.5 -85s15 -68 15 -106
s-4.66699 -73.5 -14 -106.5s-24.166 -61.5 -44.499 -85.5s-46.5 -42.833 -78.5 -56.5s-70.333 -20.5 -115 -20.5c-46 0 -85 6.83301 -117 20.5s-58 32.5 -78 56.5zM180.999 745l77 53l131 -188l-57 -40z" />
    <glyph glyph-name="oacute" unicode="&#xf3;" horiz-adv-x="591" 
d="M296 59c50 0 88.333 16.167 115 48.5s40 79.833 40 142.5c0 63.333 -13.5 111.166 -40.5 143.499s-65.167 48.5 -114.5 48.5c-50.667 0 -89.5 -16.167 -116.5 -48.5s-40.5 -80.166 -40.5 -143.499c0 -62.667 13.667 -110.167 41 -142.5s66 -48.5 116 -48.5zM100 59
c-19.333 24 -33.501 52.333 -42.501 85s-13.5 68 -13.5 106s5.16699 73.5 15.5 106.5s26 61.5 47 85.5s47.333 42.833 79 56.5s68.5 20.5 110.5 20.5c43.333 0 80.833 -6.83301 112.5 -20.5s57.667 -32.5 78 -56.5s35.5 -52.333 45.5 -85s15 -68 15 -106
s-4.66699 -73.5 -14 -106.5s-24.166 -61.5 -44.499 -85.5s-46.5 -42.833 -78.5 -56.5s-70.333 -20.5 -115 -20.5c-46 0 -85 6.83301 -117 20.5s-58 32.5 -78 56.5zM340.999 798l75 -53l-151 -175l-55 40z" />
    <glyph glyph-name="ocircumflex" unicode="&#xf4;" horiz-adv-x="591" 
d="M296 59c50 0 88.333 16.167 115 48.5s40 79.833 40 142.5c0 63.333 -13.5 111.166 -40.5 143.499s-65.167 48.5 -114.5 48.5c-50.667 0 -89.5 -16.167 -116.5 -48.5s-40.5 -80.166 -40.5 -143.499c0 -62.667 13.667 -110.167 41 -142.5s66 -48.5 116 -48.5zM100 59
c-19.333 24 -33.501 52.333 -42.501 85s-13.5 68 -13.5 106s5.16699 73.5 15.5 106.5s26 61.5 47 85.5s47.333 42.833 79 56.5s68.5 20.5 110.5 20.5c43.333 0 80.833 -6.83301 112.5 -20.5s57.667 -32.5 78 -56.5s35.5 -52.333 45.5 -85s15 -68 15 -106
s-4.66699 -73.5 -14 -106.5s-24.166 -61.5 -44.499 -85.5s-46.5 -42.833 -78.5 -56.5s-70.333 -20.5 -115 -20.5c-46 0 -85 6.83301 -117 20.5s-58 32.5 -78 56.5zM258.999 774h77l113 -160l-56 -39l-97 119l-98 -118l-57 38z" />
    <glyph glyph-name="otilde" unicode="&#xf5;" horiz-adv-x="591" 
d="M296 59c50 0 88.333 16.167 115 48.5s40 79.833 40 142.5c0 63.333 -13.5 111.166 -40.5 143.499s-65.167 48.5 -114.5 48.5c-50.667 0 -89.5 -16.167 -116.5 -48.5s-40.5 -80.166 -40.5 -143.499c0 -62.667 13.667 -110.167 41 -142.5s66 -48.5 116 -48.5zM100 59
c-19.333 24 -33.501 52.333 -42.501 85s-13.5 68 -13.5 106s5.16699 73.5 15.5 106.5s26 61.5 47 85.5s47.333 42.833 79 56.5s68.5 20.5 110.5 20.5c43.333 0 80.833 -6.83301 112.5 -20.5s57.667 -32.5 78 -56.5s35.5 -52.333 45.5 -85s15 -68 15 -106
s-4.66699 -73.5 -14 -106.5s-24.166 -61.5 -44.499 -85.5s-46.5 -42.833 -78.5 -56.5s-70.333 -20.5 -115 -20.5c-46 0 -85 6.83301 -117 20.5s-58 32.5 -78 56.5zM105.999 602c0 39.333 6.83301 71 20.5 95s36.834 36.333 69.501 37c17.333 0 34.666 -3.16699 51.999 -9.5
s35 -13.166 53 -20.499l26 -10c13.333 -5.33301 24.666 -9.5 33.999 -12.5s17 -4.5 23 -4.5c11.333 0 19.166 4 23.499 12s6.5 23 6.5 45h71c0 -40 -7 -72 -21 -96s-37.667 -36 -71 -36c-14 0 -30.333 3.33301 -49 10s-34.667 12.667 -48 18l-30 11
c-13.333 5.33301 -25.166 9.66602 -35.499 12.999s-18.166 5 -23.499 5c-11.333 0 -19.333 -4 -24 -12s-7 -23 -7 -45h-70z" />
    <glyph glyph-name="odieresis" unicode="&#xf6;" horiz-adv-x="591" 
d="M296 59c50 0 88.333 16.167 115 48.5s40 79.833 40 142.5c0 63.333 -13.5 111.166 -40.5 143.499s-65.167 48.5 -114.5 48.5c-50.667 0 -89.5 -16.167 -116.5 -48.5s-40.5 -80.166 -40.5 -143.499c0 -62.667 13.667 -110.167 41 -142.5s66 -48.5 116 -48.5zM100 59
c-19.333 24 -33.501 52.333 -42.501 85s-13.5 68 -13.5 106s5.16699 73.5 15.5 106.5s26 61.5 47 85.5s47.333 42.833 79 56.5s68.5 20.5 110.5 20.5c43.333 0 80.833 -6.83301 112.5 -20.5s57.667 -32.5 78 -56.5s35.5 -52.333 45.5 -85s15 -68 15 -106
s-4.66699 -73.5 -14 -106.5s-24.166 -61.5 -44.499 -85.5s-46.5 -42.833 -78.5 -56.5s-70.333 -20.5 -115 -20.5c-46 0 -85 6.83301 -117 20.5s-58 32.5 -78 56.5zM133.999 624c-10 12.667 -14.999 27.667 -14.999 45c0 18 5.16699 33.333 15.5 46s26.166 19 47.499 19
c20.667 0 36.167 -6.33301 46.5 -19s15.5 -28 15.5 -46c0 -17.333 -5.16699 -32.333 -15.5 -45s-25.833 -19 -46.5 -19c-21.333 0 -37.333 6.33301 -48 19zM360 624c-10 12.667 -14.999 27.667 -14.999 45c0 18 5.16699 33.333 15.5 46s26.166 19 47.499 19
c20.667 0 36.167 -6.33301 46.5 -19s15.5 -28 15.5 -46c0 -17.333 -5.16699 -32.333 -15.5 -45s-25.833 -19 -46.5 -19c-21.333 0 -37.333 6.33301 -48 19z" />
    <glyph glyph-name="divide" unicode="&#xf7;" horiz-adv-x="670" 
d="M283 115c-10.667 13.333 -16 30 -16 50s5.33301 36.5 16 49.5s27.667 19.5 51 19.5c22.667 0 39.334 -6.5 50.001 -19.5s16 -29.5 16 -49.5s-5.33301 -36.5 -16 -49.5s-27.334 -19.5 -50.001 -19.5c-23.333 0 -40.333 6.33301 -51 19zM283 470
c-10.667 13.333 -16 29.666 -16 48.999c0 20 5.33301 36.5 16 49.5s27.667 19.5 51 19.5c22.667 0 39.334 -6.5 50.001 -19.5s16 -29.5 16 -49.5c0 -19.333 -5.33301 -35.666 -16 -48.999s-27.334 -20 -50.001 -20c-23.333 0 -40.333 6.66699 -51 20zM92 380h485v-80h-485
v80z" />
    <glyph glyph-name="oslash" unicode="&#xf8;" horiz-adv-x="583" 
d="M126 32c-30 24 -51.498 54.833 -64.498 92.5s-19.5 79.5 -19.5 125.5c0 38 5.16699 73.5 15.5 106.5s25.833 61.5 46.5 85.5s46.667 42.833 78 56.5s68 20.5 110 20.5c33.333 0 64.666 -4.66699 93.999 -14l48 87h95l-71 -129c28 -24 48.833 -54.333 62.5 -91
s20.5 -77 20.5 -121c0 -38 -4.66699 -73.5 -14 -106.5s-24 -61.5 -44 -85.5s-45.833 -42.833 -77.5 -56.5s-69.834 -20.5 -114.501 -20.5c-34 0 -64 4 -90 12l-54 -98h-95zM347.002 434c-16 6 -34.334 8.99902 -55.001 8.99902c-51.333 0 -89.666 -16.333 -114.999 -49
s-38 -80.667 -38 -144c0 -57.333 10.667 -102.666 32 -135.999zM239.001 63.999c14.667 -4.66699 32.333 -7 53 -7c50.667 0 88.667 16.5 114 49.5s38 80.833 38 143.5c0 56 -10 100 -30 132z" />
    <glyph glyph-name="ugrave" unicode="&#xf9;" horiz-adv-x="584" 
d="M65 501l93 -0.000976562v-320c0 -43.333 10 -74 30 -92s47 -27 81 -27c30.667 0 58.334 4.83301 83.001 14.5s45.667 20.167 63 31.5v393h93v-405l43 -62l-65 -51l-50 52c-24 -15.333 -51.667 -28 -83 -38s-63.666 -15 -96.999 -15
c-36.667 0 -67.334 5.16699 -92.001 15.5s-44.334 24.333 -59.001 42s-25 38.334 -31 62.001s-9 48.5 -9 74.5v325zM161 744.999l77 53l131 -188l-57 -40z" />
    <glyph glyph-name="uacute" unicode="&#xfa;" horiz-adv-x="584" 
d="M65 501l93 -0.000976562v-320c0 -43.333 10 -74 30 -92s47 -27 81 -27c30.667 0 58.334 4.83301 83.001 14.5s45.667 20.167 63 31.5v393h93v-405l43 -62l-65 -51l-50 52c-24 -15.333 -51.667 -28 -83 -38s-63.666 -15 -96.999 -15
c-36.667 0 -67.334 5.16699 -92.001 15.5s-44.334 24.333 -59.001 42s-25 38.334 -31 62.001s-9 48.5 -9 74.5v325zM336 797.999l75 -53l-151 -175l-55 40z" />
    <glyph glyph-name="ucircumflex" unicode="&#xfb;" horiz-adv-x="584" 
d="M65 501l93 -0.000976562v-320c0 -43.333 10 -74 30 -92s47 -27 81 -27c30.667 0 58.334 4.83301 83.001 14.5s45.667 20.167 63 31.5v393h93v-405l43 -62l-65 -51l-50 52c-24 -15.333 -51.667 -28 -83 -38s-63.666 -15 -96.999 -15
c-36.667 0 -67.334 5.16699 -92.001 15.5s-44.334 24.333 -59.001 42s-25 38.334 -31 62.001s-9 48.5 -9 74.5v325zM261 773.999h77l113 -160l-56 -39l-97 119l-98 -118l-57 38z" />
    <glyph glyph-name="udieresis" unicode="&#xfc;" horiz-adv-x="584" 
d="M65 501l93 -0.000976562v-320c0 -43.333 10 -74 30 -92s47 -27 81 -27c30.667 0 58.334 4.83301 83.001 14.5s45.667 20.167 63 31.5v393h93v-405l43 -62l-65 -51l-50 52c-24 -15.333 -51.667 -28 -83 -38s-63.666 -15 -96.999 -15
c-36.667 0 -67.334 5.16699 -92.001 15.5s-44.334 24.333 -59.001 42s-25 38.334 -31 62.001s-9 48.5 -9 74.5v325zM133 623.999c-10 12.667 -14.999 27.667 -14.999 45c0 18 5.16699 33.333 15.5 46s26.166 19 47.499 19c20.667 0 36.167 -6.33301 46.5 -19
s15.5 -28 15.5 -46c0 -17.333 -5.16699 -32.333 -15.5 -45s-25.833 -19 -46.5 -19c-21.333 0 -37.333 6.33301 -48 19zM359.001 623.999c-10 12.667 -14.999 27.667 -14.999 45c0 18 5.16699 33.333 15.5 46s26.166 19 47.499 19c20.667 0 36.167 -6.33301 46.5 -19
s15.5 -28 15.5 -46c0 -17.333 -5.16699 -32.333 -15.5 -45s-25.833 -19 -46.5 -19c-21.333 0 -37.333 6.33301 -48 19z" />
    <glyph glyph-name="yacute" unicode="&#xfd;" horiz-adv-x="552" 
d="M76 -132c21.333 -5.33301 40.999 -9.5 58.999 -12.5s37 -4.5 57 -4.5c26.667 0 48.834 5.33301 66.501 16s30.834 30.334 39.501 59.001l16 60c-16 -2 -30.667 -3 -44 -3c-24.667 0 -45.667 3 -63 9s-32 15.167 -44 27.5s-22.167 27.666 -30.5 45.999
s-15.5 39.5 -21.5 63.5l-94 362l90 22l94 -364c4 -14.667 8.16699 -27.5 12.5 -38.5s10 -20.167 17 -27.5s15.667 -12.833 26 -16.5s23.166 -5.5 38.499 -5.5c10.667 0 23.667 1 39 3l118 449l85 -22l-148 -568c-7.33301 -29.333 -17.5 -53.5 -30.5 -72.5s-28 -34 -45 -45
s-35.833 -18.833 -56.5 -23.5s-43 -7 -67 -7c-19.333 0 -41 1.66699 -65 5s-45.333 8 -64 14zM334.999 798l75 -53l-151 -175l-55 40z" />
    <glyph glyph-name="thorn" unicode="&#xfe;" horiz-adv-x="581" 
d="M71 721l93 -0.00292969v-243c17.333 9.33301 39.166 18.5 65.499 27.5s54.833 13.5 85.5 13.5c32.667 0 62.667 -5.83301 90 -17.5s50.833 -28.667 70.5 -51s34.834 -50.166 45.501 -83.499s16 -71.666 16 -114.999c0 -40 -4.83301 -76.667 -14.5 -110
s-24.834 -61.666 -45.501 -84.999s-46.667 -41.5 -78 -54.5s-68.666 -19.5 -111.999 -19.5c-17.333 0 -37 2 -59 6s-43.333 8.66699 -64 14v-221h-93v939zM164 84.9971c18.667 -7.33301 37.332 -13.333 55.999 -18s42.334 -7 71.001 -7c20.667 0 39.834 3.33301 57.501 10
s33.167 17.667 46.5 33s24 35.166 32 59.499s12 54.166 12 89.499c0 34.667 -3.5 63.834 -10.5 87.501s-16.833 42.834 -29.5 57.501s-27.834 25 -45.501 31s-37.167 9 -58.5 9c-24 0 -46 -3.66699 -66 -11s-41.667 -17.333 -65 -30v-311z" />
    <glyph glyph-name="ydieresis" unicode="&#xff;" horiz-adv-x="552" 
d="M76 -132c21.333 -5.33301 40.999 -9.5 58.999 -12.5s37 -4.5 57 -4.5c26.667 0 48.834 5.33301 66.501 16s30.834 30.334 39.501 59.001l16 60c-16 -2 -30.667 -3 -44 -3c-24.667 0 -45.667 3 -63 9s-32 15.167 -44 27.5s-22.167 27.666 -30.5 45.999
s-15.5 39.5 -21.5 63.5l-94 362l90 22l94 -364c4 -14.667 8.16699 -27.5 12.5 -38.5s10 -20.167 17 -27.5s15.667 -12.833 26 -16.5s23.166 -5.5 38.499 -5.5c10.667 0 23.667 1 39 3l118 449l85 -22l-148 -568c-7.33301 -29.333 -17.5 -53.5 -30.5 -72.5s-28 -34 -45 -45
s-35.833 -18.833 -56.5 -23.5s-43 -7 -67 -7c-19.333 0 -41 1.66699 -65 5s-45.333 8 -64 14zM129.999 624c-10 12.667 -14.999 27.667 -14.999 45c0 18 5.16699 33.333 15.5 46s26.166 19 47.499 19c20.667 0 36.167 -6.33301 46.5 -19s15.5 -28 15.5 -46
c0 -17.333 -5.16699 -32.333 -15.5 -45s-25.833 -19 -46.5 -19c-21.333 0 -37.333 6.33301 -48 19zM356 624c-10 12.667 -14.999 27.667 -14.999 45c0 18 5.16699 33.333 15.5 46s26.166 19 47.499 19c20.667 0 36.167 -6.33301 46.5 -19s15.5 -28 15.5 -46
c0 -17.333 -5.16699 -32.333 -15.5 -45s-25.833 -19 -46.5 -19c-21.333 0 -37.333 6.33301 -48 19z" />
    <glyph glyph-name="Amacron" unicode="&#x100;" horiz-adv-x="713" 
d="M200 608c6 19.333 13.001 36.6689 21.001 52.002s18.167 28.5 30.5 39.5s27 19.5 44 25.5s37.5 9 61.5 9s44.5 -3 61.5 -9s31.667 -14.333 44 -25s22.666 -23.834 30.999 -39.501s15.5 -32.834 21.5 -51.501l186 -597l-94 -22l-77 242h-350l-76 -242l-92 22z
M505.001 314.003l-87.0029 278c-7.33301 23.333 -15.666 39.166 -24.999 47.499s-21.666 12.5 -36.999 12.5c-16 0 -28.667 -4.16699 -38 -12.5s-17.666 -24.166 -24.999 -47.499l-88 -278h300zM198.998 871.003h313v-81h-313v81z" />
    <glyph glyph-name="amacron" unicode="&#x101;" horiz-adv-x="544" 
d="M402 36c-10 -6 -21.1689 -12.1709 -33.502 -18.5039s-26 -12.166 -41 -17.499s-31.167 -9.66602 -48.5 -12.999s-35.666 -5 -54.999 -5c-25.333 0 -49.166 3 -71.499 9s-42 15.333 -59 28s-30.5 28.834 -40.5 48.501s-15 43.5 -15 71.5c0 29.333 5.66699 54.333 17 75
s26.166 37.667 44.499 51s39.333 23 63 29s47.834 9 72.501 9h142v24c0 43.333 -8.5 73.5 -25.5 90.5s-45.5 25.5 -85.5 25.5c-27.333 0 -52.833 -2 -76.5 -6s-50.5 -11.333 -80.5 -22l-24 69c23.333 8.66699 50.5 16.667 81.5 24s67.5 11 109.5 11
c41.333 0 74.833 -5 100.5 -15s45.5 -24 59.5 -42s23.5 -39.667 28.5 -65s7.5 -53.666 7.5 -84.999v-215l42 -63l-64 -51zM378.998 228.996l-139.001 0.000976562c-29.333 0 -54.166 -7 -74.499 -21s-30.5 -35.667 -30.5 -65c0 -16 3 -29.5 9 -40.5
s13.833 -19.833 23.5 -26.5s21 -11.334 34 -14.001s26.5 -4 40.5 -4c30 0 55.833 5.16699 77.5 15.5s41.5 21.5 59.5 33.5v122zM116.997 695.997h313v-81h-313v81z" />
    <glyph glyph-name="Abreve" unicode="&#x102;" horiz-adv-x="713" 
d="M200 608c6 19.333 13.001 36.6689 21.001 52.002s18.167 28.5 30.5 39.5s27 19.5 44 25.5s37.5 9 61.5 9s44.5 -3 61.5 -9s31.667 -14.333 44 -25s22.666 -23.834 30.999 -39.501s15.5 -32.834 21.5 -51.501l186 -597l-94 -22l-77 242h-350l-76 -242l-92 22z
M505.001 314.003l-87.0029 278c-7.33301 23.333 -15.666 39.166 -24.999 47.499s-21.666 12.5 -36.999 12.5c-16 0 -28.667 -4.16699 -38 -12.5s-17.666 -24.166 -24.999 -47.499l-88 -278h300zM281.998 914.003c5.33301 -17.333 13.333 -32.166 24 -44.499
s27.667 -18.5 51 -18.5s40.333 6.16699 51 18.5s18.667 27.166 24 44.499l73 -23c-9.33301 -38 -27.5 -66.167 -54.5 -84.5s-58.167 -27.5 -93.5 -27.5c-36 0 -67.833 8.83301 -95.5 26.5s-45.167 45.5 -52.5 83.5z" />
    <glyph glyph-name="abreve" unicode="&#x103;" horiz-adv-x="544" 
d="M402 36c-10 -6 -21.1689 -12.1709 -33.502 -18.5039s-26 -12.166 -41 -17.499s-31.167 -9.66602 -48.5 -12.999s-35.666 -5 -54.999 -5c-25.333 0 -49.166 3 -71.499 9s-42 15.333 -59 28s-30.5 28.834 -40.5 48.501s-15 43.5 -15 71.5c0 29.333 5.66699 54.333 17 75
s26.166 37.667 44.499 51s39.333 23 63 29s47.834 9 72.501 9h142v24c0 43.333 -8.5 73.5 -25.5 90.5s-45.5 25.5 -85.5 25.5c-27.333 0 -52.833 -2 -76.5 -6s-50.5 -11.333 -80.5 -22l-24 69c23.333 8.66699 50.5 16.667 81.5 24s67.5 11 109.5 11
c41.333 0 74.833 -5 100.5 -15s45.5 -24 59.5 -42s23.5 -39.667 28.5 -65s7.5 -53.666 7.5 -84.999v-215l42 -63l-64 -51zM378.998 228.996l-139.001 0.000976562c-29.333 0 -54.166 -7 -74.499 -21s-30.5 -35.667 -30.5 -65c0 -16 3 -29.5 9 -40.5
s13.833 -19.833 23.5 -26.5s21 -11.334 34 -14.001s26.5 -4 40.5 -4c30 0 55.833 5.16699 77.5 15.5s41.5 21.5 59.5 33.5v122zM199.997 735.997c5.33301 -17.333 13.333 -32.166 24 -44.499s27.667 -18.5 51 -18.5s40.333 6.16699 51 18.5s18.667 27.166 24 44.499l73 -23
c-9.33301 -38 -27.5 -66.167 -54.5 -84.5s-58.167 -27.5 -93.5 -27.5c-36 0 -67.833 8.83301 -95.5 26.5s-45.167 45.5 -52.5 83.5z" />
    <glyph glyph-name="Aogonek" unicode="&#x104;" horiz-adv-x="713" 
d="M200 608c6 19.333 12.998 36.6689 20.998 52.002s18.167 28.5 30.5 39.5s27 19.5 44 25.5s37.5 9 61.5 9s44.5 -3 61.5 -9s31.667 -14.333 44 -25s22.666 -23.834 30.999 -39.501s15.5 -32.834 21.5 -51.501l186 -597c-11.333 -11.333 -22.666 -23.666 -33.999 -36.999
s-22.666 -28.333 -33.999 -45c-4.66699 -6.66699 -9.5 -14 -14.5 -22s-7.5 -16.667 -7.5 -26c0 -5.33301 1.33301 -10.333 4 -15s7.5 -8.83398 14.5 -12.501s16.5 -7 28.5 -10s27.667 -5.5 47 -7.5l-21 -67c-59.333 5.33301 -101.666 16.333 -126.999 33
s-38 38.334 -38 65.001c0 10 1.66699 19.5 5 28.5s8 18.167 14 27.5c10.667 16 21 30.667 31 44s20.667 26.666 32 39.999l-71 224h-350l-76 -242l-92 22zM504.998 314.003l-87.0029 278c-7.33301 23.333 -15.666 39.166 -24.999 47.499s-21.666 12.5 -36.999 12.5
c-16 0 -28.667 -4.16699 -38 -12.5s-17.666 -24.166 -24.999 -47.499l-88 -278h300z" />
    <glyph glyph-name="aogonek" unicode="&#x105;" horiz-adv-x="547" 
d="M505 -230c-59.333 5.33301 -101.667 16.335 -127 33.002s-38 38.334 -38 65.001c0 10 1.66699 19.5 5 28.5s8 18.167 14 27.5c11.333 17.333 22.5 33.166 33.5 47.499s22.5 28.166 34.5 41.499l-21 25c-10 -6 -21.333 -12.167 -34 -18.5s-26.667 -12.333 -42 -18
s-31.833 -10.334 -49.5 -14.001s-36.167 -5.5 -55.5 -5.5c-25.333 0 -49.333 3 -72 9s-42.5 15.333 -59.5 28s-30.5 28.834 -40.5 48.501s-15 43.5 -15 71.5c0 29.333 5.66699 54.333 17 75s26.333 37.667 45 51s39.834 23 63.501 29s47.834 9 72.501 9h144v24
c0 43.333 -8.66699 73.666 -26 90.999s-46 26 -86 26c-27.333 0 -52.833 -2.16699 -76.5 -6.5s-50.5 -11.833 -80.5 -22.5l-26 69c23.333 8.66699 50.833 16.667 82.5 24s68.5 11 110.5 11c41.333 0 74.833 -5 100.5 -15s45.667 -24 60 -42s24 -39.667 29 -65
s7.5 -53.666 7.5 -84.999v-215l51 -72c-10.667 -12 -22.667 -26.5 -36 -43.5s-26 -34.167 -38 -51.5c-4.66699 -6.66699 -9.33398 -14 -14.001 -22s-7 -16.667 -7 -26c0 -5.33301 1.33301 -10.333 4 -15s7.5 -8.83398 14.5 -12.501s16.667 -7 29 -10
s28.166 -5.5 47.499 -7.5zM381.999 229.002l-141 0.000976562c-29.333 0 -54.333 -7 -75 -21s-31 -35.667 -31 -65c0 -16 3 -29.5 9 -40.5s14 -19.833 24 -26.5s21.5 -11.334 34.5 -14.001s26.5 -4 40.5 -4c30 0 56.167 5.16699 78.5 15.5s42.5 21.5 60.5 33.5v122z" />
    <glyph glyph-name="Cacute" unicode="&#x106;" horiz-adv-x="686" 
d="M653 36c-38.667 -17.333 -77.498 -30.6699 -116.498 -40.0029s-83.5 -14 -133.5 -14c-66.667 0 -122.667 9.5 -168 28.5s-81.833 45.167 -109.5 78.5s-47.5 73.166 -59.5 119.499s-18 96.5 -18 150.5s7.66699 103.833 23 149.5s38.166 85.334 68.499 119.001
s68.166 59.834 113.499 78.501s98 28 158 28c52 0 96.833 -4.66699 134.5 -14s71.5 -20 101.5 -32l-29 -76c-21.333 8 -40.833 14.667 -58.5 20s-34.5 9.5 -50.5 12.5s-31.667 5.16699 -47 6.5s-31.333 2 -48 2c-85.333 0 -150.333 -25.667 -195 -77
s-67 -123.666 -67 -216.999c0 -99.333 21.333 -173.666 64 -222.999s106 -74 190 -74c22.667 0 43.167 1 61.5 3s35.833 4.83301 52.5 8.5s33.5 8.5 50.5 14.5s35.5 13 55.5 21zM450.002 961.996l67 -60l-166 -139l-51 43z" />
    <glyph glyph-name="cacute" unicode="&#x107;" horiz-adv-x="529" 
d="M494 19c-25.333 -10.667 -53.6689 -19.5 -85.002 -26.5s-66 -10.5 -104 -10.5c-48 0 -88.667 6.5 -122 19.5s-60.166 31 -80.499 54s-35.166 50.667 -44.499 83s-14 68.166 -14 107.499c0 38.667 5.66699 74.667 17 108s28.166 62.166 50.499 86.499s50 43.333 83 57
s71.167 20.5 114.5 20.5c40 0 74.833 -3.66699 104.5 -11s55.167 -15.333 76.5 -24l-29 -73c-29.333 10.667 -55.333 18.334 -78 23.001s-46.334 7 -71.001 7c-28 0 -52.667 -4.83301 -74 -14.5s-39.166 -23 -53.499 -40s-25.166 -37.5 -32.499 -61.5s-11 -50 -11 -78
c0 -61.333 14 -107.666 42 -138.999s69 -47 123 -47c26 0 52.167 2.16699 78.5 6.5s53.833 12.5 82.5 24.5zM346.997 798l75 -53l-151 -175l-55 40z" />
    <glyph glyph-name="Ccircumflex" unicode="&#x108;" horiz-adv-x="686" 
d="M653 36c-38.667 -17.333 -77.498 -30.6699 -116.498 -40.0029s-83.5 -14 -133.5 -14c-66.667 0 -122.667 9.5 -168 28.5s-81.833 45.167 -109.5 78.5s-47.5 73.166 -59.5 119.499s-18 96.5 -18 150.5s7.66699 103.833 23 149.5s38.166 85.334 68.499 119.001
s68.166 59.834 113.499 78.501s98 28 158 28c52 0 96.833 -4.66699 134.5 -14s71.5 -20 101.5 -32l-29 -76c-21.333 8 -40.833 14.667 -58.5 20s-34.5 9.5 -50.5 12.5s-31.667 5.16699 -47 6.5s-31.333 2 -48 2c-85.333 0 -150.333 -25.667 -195 -77
s-67 -123.666 -67 -216.999c0 -99.333 21.333 -173.666 64 -222.999s106 -74 190 -74c22.667 0 43.167 1 61.5 3s35.833 4.83301 52.5 8.5s33.5 8.5 50.5 14.5s35.5 13 55.5 21zM370.002 923.996h77l108 -115l-52 -44l-96 83l-98 -83l-51 43z" />
    <glyph glyph-name="ccircumflex" unicode="&#x109;" horiz-adv-x="529" 
d="M494 19c-25.333 -10.667 -53.6689 -19.5 -85.002 -26.5s-66 -10.5 -104 -10.5c-48 0 -88.667 6.5 -122 19.5s-60.166 31 -80.499 54s-35.166 50.667 -44.499 83s-14 68.166 -14 107.499c0 38.667 5.66699 74.667 17 108s28.166 62.166 50.499 86.499s50 43.333 83 57
s71.167 20.5 114.5 20.5c40 0 74.833 -3.66699 104.5 -11s55.167 -15.333 76.5 -24l-29 -73c-29.333 10.667 -55.333 18.334 -78 23.001s-46.334 7 -71.001 7c-28 0 -52.667 -4.83301 -74 -14.5s-39.166 -23 -53.499 -40s-25.166 -37.5 -32.499 -61.5s-11 -50 -11 -78
c0 -61.333 14 -107.666 42 -138.999s69 -47 123 -47c26 0 52.167 2.16699 78.5 6.5s53.833 12.5 82.5 24.5zM263.997 774h77l113 -160l-56 -39l-97 119l-98 -118l-57 38z" />
    <glyph glyph-name="Cdotaccent" unicode="&#x10a;" horiz-adv-x="686" 
d="M653 36c-38.667 -17.333 -77.498 -30.6699 -116.498 -40.0029s-83.5 -14 -133.5 -14c-66.667 0 -122.667 9.5 -168 28.5s-81.833 45.167 -109.5 78.5s-47.5 73.166 -59.5 119.499s-18 96.5 -18 150.5s7.66699 103.833 23 149.5s38.166 85.334 68.499 119.001
s68.166 59.834 113.499 78.501s98 28 158 28c52 0 96.833 -4.66699 134.5 -14s71.5 -20 101.5 -32l-29 -76c-21.333 8 -40.833 14.667 -58.5 20s-34.5 9.5 -50.5 12.5s-31.667 5.16699 -47 6.5s-31.333 2 -48 2c-85.333 0 -150.333 -25.667 -195 -77
s-67 -123.666 -67 -216.999c0 -99.333 21.333 -173.666 64 -222.999s106 -74 190 -74c22.667 0 43.167 1 61.5 3s35.833 4.83301 52.5 8.5s33.5 8.5 50.5 14.5s35.5 13 55.5 21zM358.002 796.996c-10.667 12.667 -16 28 -16 46s5.33301 33.5 16 46.5s26.667 19.5 48 19.5
s37.333 -6.5 48 -19.5s16 -28.5 16 -46.5s-5.33301 -33.333 -16 -46s-26.667 -19 -48 -19s-37.333 6.33301 -48 19z" />
    <glyph glyph-name="cdotaccent" unicode="&#x10b;" horiz-adv-x="529" 
d="M494 19c-25.333 -10.667 -53.6689 -19.5 -85.002 -26.5s-66 -10.5 -104 -10.5c-48 0 -88.667 6.5 -122 19.5s-60.166 31 -80.499 54s-35.166 50.667 -44.499 83s-14 68.166 -14 107.499c0 38.667 5.66699 74.667 17 108s28.166 62.166 50.499 86.499s50 43.333 83 57
s71.167 20.5 114.5 20.5c40 0 74.833 -3.66699 104.5 -11s55.167 -15.333 76.5 -24l-29 -73c-29.333 10.667 -55.333 18.334 -78 23.001s-46.334 7 -71.001 7c-28 0 -52.667 -4.83301 -74 -14.5s-39.166 -23 -53.499 -40s-25.166 -37.5 -32.499 -61.5s-11 -50 -11 -78
c0 -61.333 14 -107.666 42 -138.999s69 -47 123 -47c26 0 52.167 2.16699 78.5 6.5s53.833 12.5 82.5 24.5zM258.997 616c-10.667 12.667 -16 28 -16 46s5.33301 33.5 16 46.5s26.667 19.5 48 19.5s37.333 -6.5 48 -19.5s16 -28.5 16 -46.5s-5.33301 -33.333 -16 -46
s-26.667 -19 -48 -19s-37.333 6.33301 -48 19z" />
    <glyph glyph-name="Ccaron" unicode="&#x10c;" horiz-adv-x="686" 
d="M653 36c-38.667 -17.333 -77.498 -30.6699 -116.498 -40.0029s-83.5 -14 -133.5 -14c-66.667 0 -122.667 9.5 -168 28.5s-81.833 45.167 -109.5 78.5s-47.5 73.166 -59.5 119.499s-18 96.5 -18 150.5s7.66699 103.833 23 149.5s38.166 85.334 68.499 119.001
s68.166 59.834 113.499 78.501s98 28 158 28c52 0 96.833 -4.66699 134.5 -14s71.5 -20 101.5 -32l-29 -76c-21.333 8 -40.833 14.667 -58.5 20s-34.5 9.5 -50.5 12.5s-31.667 5.16699 -47 6.5s-31.333 2 -48 2c-85.333 0 -150.333 -25.667 -195 -77
s-67 -123.666 -67 -216.999c0 -99.333 21.333 -173.666 64 -222.999s106 -74 190 -74c22.667 0 43.167 1 61.5 3s35.833 4.83301 52.5 8.5s33.5 8.5 50.5 14.5s35.5 13 55.5 21zM262.002 879.996l53 44l96 -83l98 83l50 -43l-112 -116h-77z" />
    <glyph glyph-name="ccaron" unicode="&#x10d;" horiz-adv-x="529" 
d="M494 19c-25.333 -10.667 -53.6689 -19.5 -85.002 -26.5s-66 -10.5 -104 -10.5c-48 0 -88.667 6.5 -122 19.5s-60.166 31 -80.499 54s-35.166 50.667 -44.499 83s-14 68.166 -14 107.499c0 38.667 5.66699 74.667 17 108s28.166 62.166 50.499 86.499s50 43.333 83 57
s71.167 20.5 114.5 20.5c40 0 74.833 -3.66699 104.5 -11s55.167 -15.333 76.5 -24l-29 -73c-29.333 10.667 -55.333 18.334 -78 23.001s-46.334 7 -71.001 7c-28 0 -52.667 -4.83301 -74 -14.5s-39.166 -23 -53.499 -40s-25.166 -37.5 -32.499 -61.5s-11 -50 -11 -78
c0 -61.333 14 -107.666 42 -138.999s69 -47 123 -47c26 0 52.167 2.16699 78.5 6.5s53.833 12.5 82.5 24.5zM156.997 735l57 39l97 -119l98 118l56 -38l-118 -160h-77z" />
    <glyph glyph-name="Dcaron" unicode="&#x10e;" horiz-adv-x="751" 
d="M75 721l276.998 -0.00195312c56.667 0 106.834 -8.66699 150.501 -26s80.334 -41.666 110.001 -72.999s52.167 -69 67.5 -113s23 -92.667 23 -146c0 -52.667 -7 -101.167 -21 -145.5s-35.333 -82.666 -64 -114.999s-65 -57.5 -109 -75.5s-96.333 -27 -157 -27h-277v721z
M343.998 80.998c80.667 0 143.334 21.667 188.001 65s67 114 67 212s-22.333 169.5 -67 214.5s-107.334 67.5 -188.001 67.5h-171v-559h171zM171.998 879.998l53 44l96 -83l98 83l50 -43l-112 -116h-77z" />
    <glyph glyph-name="dcaron" unicode="&#x10f;" horiz-adv-x="647" 
d="M446 36c-21.333 -13.333 -45.8311 -25.666 -73.498 -36.999s-59.167 -17 -94.5 -17c-40.667 0 -75.834 6.5 -105.501 19.5s-54 31.167 -73 54.5s-33 50.833 -42 82.5s-13.5 66.5 -13.5 104.5c0 41.333 6.16699 79 18.5 113s30.166 63 53.499 87s51.833 42.667 85.5 56
s72.167 20 115.5 20c24 0 43.5 -0.833008 58.5 -2.5s31.167 -3.83398 48.5 -6.50098v211h93v-624l43 -64l-64 -50zM424.002 429c-16 4 -31.999 7.16797 -47.999 9.50098s-36.333 3.5 -61 3.5c-22 0 -43.333 -3.83301 -64 -11.5s-39 -19.5 -55 -35.5s-29 -36.5 -39 -61.5
s-15 -55.167 -15 -90.5c0 -34.667 4 -63.667 12 -87s18.833 -42 32.5 -56s29.167 -24 46.5 -30s35 -9 53 -9c33.333 0 61.166 5.66699 83.499 17s40.5 21.666 54.5 30.999v320zM586.003 721.001h91l-23 -229h-68v229z" />
    <glyph glyph-name="Dcroat" unicode="&#x110;" horiz-adv-x="775" 
d="M100 319l-74.999 -0.00195312v81h75v321h277c56.667 0 106.667 -8.66699 150 -26s79.833 -41.666 109.5 -72.999s52.167 -69 67.5 -113s23 -92.667 23 -146c0 -52.667 -6.83301 -101.167 -20.5 -145.5s-34.834 -82.666 -63.501 -114.999s-65 -57.5 -109 -75.5
s-96.333 -27 -157 -27h-277v319zM369.001 79.998c80.667 0 143.334 21.833 188.001 65.5s67 114.5 67 212.5s-22.333 169.667 -67 215s-107.334 68 -188.001 68h-171v-241h200v-81h-200v-239h171z" />
    <glyph glyph-name="dcroat" unicode="&#x111;" horiz-adv-x="591" 
d="M446 37c-21.333 -13.333 -46.4971 -25.833 -75.4971 -37.5s-61.167 -17.5 -96.5 -17.5c-40.667 0 -75.5 6.33301 -104.5 19s-52.833 30.334 -71.5 53.001s-32.334 49.5 -41.001 80.5s-13 65.167 -13 102.5c0 38.667 6 74.167 18 106.5s29.667 60.166 53 83.499
s51.666 41.5 84.999 54.5s71.666 19.5 114.999 19.5c24 0 43.5 -1 58.5 -3s31.167 -4.33301 48.5 -7v84h-161v74h161v72h93v-72h69v-74h-69v-478l44 -65l-65 -48zM422.003 410c-16 4 -32 7.16992 -48 9.50293s-36.333 3.5 -61 3.5c-22 0 -43.167 -3.5 -63.5 -10.5
s-38.5 -18 -54.5 -33s-28.833 -34.333 -38.5 -58s-14.5 -51.834 -14.5 -84.501c0 -34 3.83301 -62.167 11.5 -84.5s18 -40.333 31 -54s28 -23.334 45 -29.001s34.5 -8.5 52.5 -8.5c33.333 0 61.5 5.66699 84.5 17s41.5 21.666 55.5 30.999v301z" />
    <glyph glyph-name="Emacron" unicode="&#x112;" horiz-adv-x="616" 
d="M75 721h496v-81h-399v-223h309v-81h-309v-255h407v-81h-504v721zM170 871h313v-81h-313v81z" />
    <glyph glyph-name="emacron" unicode="&#x113;" horiz-adv-x="563" 
d="M419 297c0 27.333 -3.33105 50.333 -9.99805 69s-15.834 33.667 -27.501 45s-25.334 19.333 -41.001 24s-32.5 7 -50.5 7c-45.333 0 -80.333 -13.167 -105 -39.5s-38.667 -61.5 -42 -105.5h276zM506.002 20c-24 -8.66699 -51.999 -17.1699 -83.999 -25.5029
s-71 -12.5 -117 -12.5c-48 0 -88.5 6.33301 -121.5 19s-59.833 30.667 -80.5 54s-35.667 51.333 -45 84s-14 69 -14 109c0 36.667 5 71.334 15 104.001s25.167 61.334 45.5 86.001s46 44.334 77 59.001s67.5 22 109.5 22c75.333 0 131.5 -22 168.5 -66
s55.5 -106.333 55.5 -187l-45 -44h-328c1.33301 -50 16.166 -89.5 44.499 -118.5s68.5 -43.5 120.5 -43.5c16.667 0 31.667 0.666992 45 2s26.5 3.33301 39.5 6s26.5 6 40.5 10l48 14zM128.003 695.997h313v-81h-313v81z" />
    <glyph glyph-name="Ebreve" unicode="&#x114;" horiz-adv-x="616" 
d="M75 721h496v-81h-399v-223h309v-81h-309v-255h407v-81h-504v721zM254 914c5.33301 -17.333 13.333 -32.166 24 -44.499s27.667 -18.5 51 -18.5s40.333 6.16699 51 18.5s18.667 27.166 24 44.499l73 -23c-9.33301 -38 -27.5 -66.167 -54.5 -84.5
s-58.167 -27.5 -93.5 -27.5c-36 0 -67.833 8.83301 -95.5 26.5s-45.167 45.5 -52.5 83.5z" />
    <glyph glyph-name="ebreve" unicode="&#x115;" horiz-adv-x="563" 
d="M419 297c0 27.333 -3.33105 50.333 -9.99805 69s-15.834 33.667 -27.501 45s-25.334 19.333 -41.001 24s-32.5 7 -50.5 7c-45.333 0 -80.333 -13.167 -105 -39.5s-38.667 -61.5 -42 -105.5h276zM506.002 20c-24 -8.66699 -51.999 -17.1699 -83.999 -25.5029
s-71 -12.5 -117 -12.5c-48 0 -88.5 6.33301 -121.5 19s-59.833 30.667 -80.5 54s-35.667 51.333 -45 84s-14 69 -14 109c0 36.667 5 71.334 15 104.001s25.167 61.334 45.5 86.001s46 44.334 77 59.001s67.5 22 109.5 22c75.333 0 131.5 -22 168.5 -66
s55.5 -106.333 55.5 -187l-45 -44h-328c1.33301 -50 16.166 -89.5 44.499 -118.5s68.5 -43.5 120.5 -43.5c16.667 0 31.667 0.666992 45 2s26.5 3.33301 39.5 6s26.5 6 40.5 10l48 14zM211.003 735.997c5.33301 -17.333 13.333 -32.166 24 -44.499s27.667 -18.5 51 -18.5
s40.333 6.16699 51 18.5s18.667 27.166 24 44.499l73 -23c-9.33301 -38 -27.5 -66.167 -54.5 -84.5s-58.167 -27.5 -93.5 -27.5c-36 0 -67.833 8.83301 -95.5 26.5s-45.167 45.5 -52.5 83.5z" />
    <glyph glyph-name="Edotaccent" unicode="&#x116;" horiz-adv-x="616" 
d="M75 721h496v-81h-399v-223h309v-81h-309v-255h407v-81h-504v721zM277 797c-10.667 12.667 -16 28 -16 46s5.33301 33.5 16 46.5s26.667 19.5 48 19.5s37.333 -6.5 48 -19.5s16 -28.5 16 -46.5s-5.33301 -33.333 -16 -46s-26.667 -19 -48 -19s-37.333 6.33301 -48 19z" />
    <glyph glyph-name="edotaccent" unicode="&#x117;" horiz-adv-x="563" 
d="M419 297c0 27.333 -3.33105 50.333 -9.99805 69s-15.834 33.667 -27.501 45s-25.334 19.333 -41.001 24s-32.5 7 -50.5 7c-45.333 0 -80.333 -13.167 -105 -39.5s-38.667 -61.5 -42 -105.5h276zM506.002 20c-24 -8.66699 -51.999 -17.1699 -83.999 -25.5029
s-71 -12.5 -117 -12.5c-48 0 -88.5 6.33301 -121.5 19s-59.833 30.667 -80.5 54s-35.667 51.333 -45 84s-14 69 -14 109c0 36.667 5 71.334 15 104.001s25.167 61.334 45.5 86.001s46 44.334 77 59.001s67.5 22 109.5 22c75.333 0 131.5 -22 168.5 -66
s55.5 -106.333 55.5 -187l-45 -44h-328c1.33301 -50 16.166 -89.5 44.499 -118.5s68.5 -43.5 120.5 -43.5c16.667 0 31.667 0.666992 45 2s26.5 3.33301 39.5 6s26.5 6 40.5 10l48 14zM238.003 615.997c-10.667 12.667 -16 28 -16 46s5.33301 33.5 16 46.5
s26.667 19.5 48 19.5s37.333 -6.5 48 -19.5s16 -28.5 16 -46.5s-5.33301 -33.333 -16 -46s-26.667 -19 -48 -19s-37.333 6.33301 -48 19z" />
    <glyph glyph-name="Eogonek" unicode="&#x118;" horiz-adv-x="616" 
d="M75 721h496.002v-81h-399v-223h309v-81h-309v-255h407v-81h-37c-8 -9.33301 -16.5 -19.833 -25.5 -31.5s-18.167 -24.5 -27.5 -38.5c-4.66699 -6.66699 -9.33398 -14 -14.001 -22s-7 -16.667 -7 -26c0 -5.33301 1.33301 -10.333 4 -15s7.5 -8.83398 14.5 -12.501
s16.667 -7 29 -10s28.166 -5.5 47.499 -7.5l-21 -67c-59.333 5.33301 -101.666 16.333 -126.999 33s-38 38.334 -38 65.001c0 10 1.66699 19.5 5 28.5s8 18.167 14 27.5c9.33301 14.667 18.666 28.167 27.999 40.5l28 35.5h-377v721z" />
    <glyph glyph-name="eogonek" unicode="&#x119;" horiz-adv-x="563" 
d="M480 -230c-59.333 5.33301 -101.665 16.3301 -126.998 32.9971s-38 38.334 -38 65.001c0 20 6.33301 38.667 19 56c8.66699 12.667 16.834 23.667 24.501 33l25.5 31c-24 -4 -50.333 -6 -79 -6c-48 0 -88.5 6.33301 -121.5 19s-59.833 30.667 -80.5 54
s-35.667 51.333 -45 84s-14 69 -14 109c0 36.667 5 71.334 15 104.001s25.167 61.334 45.5 86.001s46 44.334 77 59.001s67.5 22 109.5 22c75.333 0 131.5 -22 168.5 -66s55.5 -106.333 55.5 -187l-45 -44h-328c1.33301 -50 16.166 -89.5 44.499 -118.5
s68.5 -43.5 120.5 -43.5c16.667 0 31.667 0.666992 45 2s26.5 3.33301 39.5 6s26.5 6 40.5 10l48 14l26 -72l-18.5 -19l-21.5 -23.5l-21.5 -25c-7 -8.33301 -12.833 -15.833 -17.5 -22.5s-9.33398 -14 -14.001 -22s-7 -16.667 -7 -26c0 -5.33301 1.33301 -10.333 4 -15
s7.5 -8.83398 14.5 -12.501s16.667 -7 29 -10s28.166 -5.5 47.499 -7.5zM419.001 296.997c0 27.333 -3.33105 50.333 -9.99805 69s-15.834 33.667 -27.501 45s-25.334 19.333 -41.001 24s-32.5 7 -50.5 7c-45.333 0 -80.333 -13.167 -105 -39.5s-38.667 -61.5 -42 -105.5
h276z" />
    <glyph glyph-name="Ecaron" unicode="&#x11a;" horiz-adv-x="616" 
d="M75 721h496v-81h-399v-223h309v-81h-309v-255h407v-81h-504v721zM178 880l53 44l96 -83l98 83l50 -43l-112 -116h-77z" />
    <glyph glyph-name="ecaron" unicode="&#x11b;" horiz-adv-x="563" 
d="M419 297c0 27.333 -3.33105 50.333 -9.99805 69s-15.834 33.667 -27.501 45s-25.334 19.333 -41.001 24s-32.5 7 -50.5 7c-45.333 0 -80.333 -13.167 -105 -39.5s-38.667 -61.5 -42 -105.5h276zM506.002 20c-24 -8.66699 -51.999 -17.1699 -83.999 -25.5029
s-71 -12.5 -117 -12.5c-48 0 -88.5 6.33301 -121.5 19s-59.833 30.667 -80.5 54s-35.667 51.333 -45 84s-14 69 -14 109c0 36.667 5 71.334 15 104.001s25.167 61.334 45.5 86.001s46 44.334 77 59.001s67.5 22 109.5 22c75.333 0 131.5 -22 168.5 -66
s55.5 -106.333 55.5 -187l-45 -44h-328c1.33301 -50 16.166 -89.5 44.499 -118.5s68.5 -43.5 120.5 -43.5c16.667 0 31.667 0.666992 45 2s26.5 3.33301 39.5 6s26.5 6 40.5 10l48 14zM136.003 734.997l57 39l97 -119l98 118l56 -38l-118 -160h-77z" />
    <glyph glyph-name="Gcircumflex" unicode="&#x11c;" horiz-adv-x="745" 
d="M384 383l299.005 -0.00292969v-324c-15.333 -11.333 -33.5 -21.666 -54.5 -30.999s-43.833 -17.333 -68.5 -24s-50.334 -12 -77.001 -16s-53.667 -6 -81 -6c-66 0 -121.667 9.5 -167 28.5s-81.833 45.167 -109.5 78.5s-47.5 73.166 -59.5 119.499s-18 96.5 -18 150.5
s7.66699 103.833 23 149.5s38.166 85.334 68.499 119.001s68 59.834 113 78.501s97.5 28 157.5 28c52 0 97 -4.66699 135 -14s72 -20 102 -32l-29 -76c-21.333 8 -40.833 14.667 -58.5 20s-34.5 9.5 -50.5 12.5s-31.833 5.16699 -47.5 6.5s-31.834 2 -48.501 2
c-84.667 0 -149.334 -25.667 -194.001 -77s-67 -123.666 -67 -216.999c0 -99.333 21.333 -173.5 64 -222.5s104.667 -73.5 186 -73.5c42 0 78.167 4.16699 108.5 12.5s55.166 17.5 74.499 27.5v199h-201v81zM372.005 923.997h77l108 -115l-52 -44l-96 83l-98 -83l-51 43z
" />
    <glyph glyph-name="gcircumflex" unicode="&#x11d;" horiz-adv-x="589" 
d="M423 396c-14.667 12.667 -32.832 23 -54.499 31s-45.5 12 -71.5 12c-20.667 0 -40.334 -3.16699 -59.001 -9.5s-35 -17 -49 -32s-25.333 -34.5 -34 -58.5s-13 -53.667 -13 -89c0 -68 14 -116.833 42 -146.5s64.667 -44.5 110 -44.5c25.333 0 48.333 2.16699 69 6.5
s40.667 10.5 60 18.5v312zM118.002 -120c20 -6 43.6689 -12.1709 71.002 -18.5039s57 -9.5 89 -9.5c16 0 32.5 1.16699 49.5 3.5s32.5 7.33301 46.5 15s25.667 18.334 35 32.001s14 32.167 14 55.5v45c-20 -5.33301 -40.667 -10.166 -62 -14.499s-44.333 -6.5 -69 -6.5
c-46 0 -84.833 6.83301 -116.5 20.5s-57.334 32.5 -77.001 56.5s-33.667 52.333 -42 85s-12.5 68 -12.5 106c0 42.667 6.5 80.834 19.5 114.501s30.667 61.834 53 84.501s48.666 40 78.999 52s62.5 18 96.5 18c24 0 49 -3.33301 75 -10s50 -16.667 72 -30l28 46l80 -37
l-31 -84v-442c0 -37.333 -6.83301 -68 -20.5 -92s-31.667 -43 -54 -57s-47.833 -23.833 -76.5 -29.5s-58 -8.5 -88 -8.5c-34 0 -66.667 2.66699 -98 8s-59 12.333 -83 21zM271.004 773.996h77l113 -160l-56 -39l-97 119l-98 -118l-57 38z" />
    <glyph glyph-name="Gbreve" unicode="&#x11e;" horiz-adv-x="745" 
d="M384 383l299.005 -0.00292969v-324c-15.333 -11.333 -33.5 -21.666 -54.5 -30.999s-43.833 -17.333 -68.5 -24s-50.334 -12 -77.001 -16s-53.667 -6 -81 -6c-66 0 -121.667 9.5 -167 28.5s-81.833 45.167 -109.5 78.5s-47.5 73.166 -59.5 119.499s-18 96.5 -18 150.5
s7.66699 103.833 23 149.5s38.166 85.334 68.499 119.001s68 59.834 113 78.501s97.5 28 157.5 28c52 0 97 -4.66699 135 -14s72 -20 102 -32l-29 -76c-21.333 8 -40.833 14.667 -58.5 20s-34.5 9.5 -50.5 12.5s-31.833 5.16699 -47.5 6.5s-31.834 2 -48.501 2
c-84.667 0 -149.334 -25.667 -194.001 -77s-67 -123.666 -67 -216.999c0 -99.333 21.333 -173.5 64 -222.5s104.667 -73.5 186 -73.5c42 0 78.167 4.16699 108.5 12.5s55.166 17.5 74.499 27.5v199h-201v81zM333.005 913.997c5.33301 -17.333 13.333 -32.166 24 -44.499
s27.667 -18.5 51 -18.5s40.333 6.16699 51 18.5s18.667 27.166 24 44.499l73 -23c-9.33301 -38 -27.5 -66.167 -54.5 -84.5s-58.167 -27.5 -93.5 -27.5c-36 0 -67.833 8.83301 -95.5 26.5s-45.167 45.5 -52.5 83.5z" />
    <glyph glyph-name="gbreve" unicode="&#x11f;" horiz-adv-x="589" 
d="M423 396c-14.667 12.667 -32.832 23 -54.499 31s-45.5 12 -71.5 12c-20.667 0 -40.334 -3.16699 -59.001 -9.5s-35 -17 -49 -32s-25.333 -34.5 -34 -58.5s-13 -53.667 -13 -89c0 -68 14 -116.833 42 -146.5s64.667 -44.5 110 -44.5c25.333 0 48.333 2.16699 69 6.5
s40.667 10.5 60 18.5v312zM118.002 -120c20 -6 43.6689 -12.1709 71.002 -18.5039s57 -9.5 89 -9.5c16 0 32.5 1.16699 49.5 3.5s32.5 7.33301 46.5 15s25.667 18.334 35 32.001s14 32.167 14 55.5v45c-20 -5.33301 -40.667 -10.166 -62 -14.499s-44.333 -6.5 -69 -6.5
c-46 0 -84.833 6.83301 -116.5 20.5s-57.334 32.5 -77.001 56.5s-33.667 52.333 -42 85s-12.5 68 -12.5 106c0 42.667 6.5 80.834 19.5 114.501s30.667 61.834 53 84.501s48.666 40 78.999 52s62.5 18 96.5 18c24 0 49 -3.33301 75 -10s50 -16.667 72 -30l28 46l80 -37
l-31 -84v-442c0 -37.333 -6.83301 -68 -20.5 -92s-31.667 -43 -54 -57s-47.833 -23.833 -76.5 -29.5s-58 -8.5 -88 -8.5c-34 0 -66.667 2.66699 -98 8s-59 12.333 -83 21zM229.004 735.996c5.33301 -17.333 13.333 -32.166 24 -44.499s27.667 -18.5 51 -18.5
s40.333 6.16699 51 18.5s18.667 27.166 24 44.499l73 -23c-9.33301 -38 -27.5 -66.167 -54.5 -84.5s-58.167 -27.5 -93.5 -27.5c-36 0 -67.833 8.83301 -95.5 26.5s-45.167 45.5 -52.5 83.5z" />
    <glyph glyph-name="Gdotaccent" unicode="&#x120;" horiz-adv-x="745" 
d="M384 383l299.005 -0.00292969v-324c-15.333 -11.333 -33.5 -21.666 -54.5 -30.999s-43.833 -17.333 -68.5 -24s-50.334 -12 -77.001 -16s-53.667 -6 -81 -6c-66 0 -121.667 9.5 -167 28.5s-81.833 45.167 -109.5 78.5s-47.5 73.166 -59.5 119.499s-18 96.5 -18 150.5
s7.66699 103.833 23 149.5s38.166 85.334 68.499 119.001s68 59.834 113 78.501s97.5 28 157.5 28c52 0 97 -4.66699 135 -14s72 -20 102 -32l-29 -76c-21.333 8 -40.833 14.667 -58.5 20s-34.5 9.5 -50.5 12.5s-31.833 5.16699 -47.5 6.5s-31.834 2 -48.501 2
c-84.667 0 -149.334 -25.667 -194.001 -77s-67 -123.666 -67 -216.999c0 -99.333 21.333 -173.5 64 -222.5s104.667 -73.5 186 -73.5c42 0 78.167 4.16699 108.5 12.5s55.166 17.5 74.499 27.5v199h-201v81zM354.005 796.997c-10.667 12.667 -16 28 -16 46
s5.33301 33.5 16 46.5s26.667 19.5 48 19.5s37.333 -6.5 48 -19.5s16 -28.5 16 -46.5s-5.33301 -33.333 -16 -46s-26.667 -19 -48 -19s-37.333 6.33301 -48 19z" />
    <glyph glyph-name="gdotaccent" unicode="&#x121;" horiz-adv-x="589" 
d="M423 396c-14.667 12.667 -32.832 23 -54.499 31s-45.5 12 -71.5 12c-20.667 0 -40.334 -3.16699 -59.001 -9.5s-35 -17 -49 -32s-25.333 -34.5 -34 -58.5s-13 -53.667 -13 -89c0 -68 14 -116.833 42 -146.5s64.667 -44.5 110 -44.5c25.333 0 48.333 2.16699 69 6.5
s40.667 10.5 60 18.5v312zM118.002 -120c20 -6 43.6689 -12.1709 71.002 -18.5039s57 -9.5 89 -9.5c16 0 32.5 1.16699 49.5 3.5s32.5 7.33301 46.5 15s25.667 18.334 35 32.001s14 32.167 14 55.5v45c-20 -5.33301 -40.667 -10.166 -62 -14.499s-44.333 -6.5 -69 -6.5
c-46 0 -84.833 6.83301 -116.5 20.5s-57.334 32.5 -77.001 56.5s-33.667 52.333 -42 85s-12.5 68 -12.5 106c0 42.667 6.5 80.834 19.5 114.501s30.667 61.834 53 84.501s48.666 40 78.999 52s62.5 18 96.5 18c24 0 49 -3.33301 75 -10s50 -16.667 72 -30l28 46l80 -37
l-31 -84v-442c0 -37.333 -6.83301 -68 -20.5 -92s-31.667 -43 -54 -57s-47.833 -23.833 -76.5 -29.5s-58 -8.5 -88 -8.5c-34 0 -66.667 2.66699 -98 8s-59 12.333 -83 21zM255.004 615.996c-10.667 12.667 -16 28 -16 46s5.33301 33.5 16 46.5s26.667 19.5 48 19.5
s37.333 -6.5 48 -19.5s16 -28.5 16 -46.5s-5.33301 -33.333 -16 -46s-26.667 -19 -48 -19s-37.333 6.33301 -48 19z" />
    <glyph glyph-name="Gcommaaccent" unicode="&#x122;" horiz-adv-x="745" 
d="M384 383l299.005 -0.00292969v-324c-15.333 -11.333 -33.5 -21.666 -54.5 -30.999s-43.833 -17.333 -68.5 -24s-50.334 -12 -77.001 -16s-53.667 -6 -81 -6c-66 0 -121.667 9.5 -167 28.5s-81.833 45.167 -109.5 78.5s-47.5 73.166 -59.5 119.499s-18 96.5 -18 150.5
s7.66699 103.833 23 149.5s38.166 85.334 68.499 119.001s68 59.834 113 78.501s97.5 28 157.5 28c52 0 97 -4.66699 135 -14s72 -20 102 -32l-29 -76c-21.333 8 -40.833 14.667 -58.5 20s-34.5 9.5 -50.5 12.5s-31.833 5.16699 -47.5 6.5s-31.834 2 -48.501 2
c-84.667 0 -149.334 -25.667 -194.001 -77s-67 -123.666 -67 -216.999c0 -99.333 21.333 -173.5 64 -222.5s104.667 -73.5 186 -73.5c42 0 78.167 4.16699 108.5 12.5s55.166 17.5 74.499 27.5v199h-201v81zM352.005 -68.0029l94 -21l-54 -185l-77 17z" />
    <glyph glyph-name="gcommaaccent" unicode="&#x123;" horiz-adv-x="589" 
d="M423 396c-14.667 12.667 -32.832 23 -54.499 31s-45.5 12 -71.5 12c-20.667 0 -40.334 -3.16699 -59.001 -9.5s-35 -17 -49 -32s-25.333 -34.5 -34 -58.5s-13 -53.667 -13 -89c0 -68 14 -116.833 42 -146.5s64.667 -44.5 110 -44.5c25.333 0 48.333 2.16699 69 6.5
s40.667 10.5 60 18.5v312zM118.002 -120c20 -6 43.6689 -12.1709 71.002 -18.5039s57 -9.5 89 -9.5c16 0 32.5 1.16699 49.5 3.5s32.5 7.33301 46.5 15s25.667 18.334 35 32.001s14 32.167 14 55.5v45c-20 -5.33301 -40.667 -10.166 -62 -14.499s-44.333 -6.5 -69 -6.5
c-46 0 -84.833 6.83301 -116.5 20.5s-57.334 32.5 -77.001 56.5s-33.667 52.333 -42 85s-12.5 68 -12.5 106c0 42.667 6.5 80.834 19.5 114.501s30.667 61.834 53 84.501s48.666 40 78.999 52s62.5 18 96.5 18c24 0 49 -3.33301 75 -10s50 -16.667 72 -30l28 46l80 -37
l-31 -84v-442c0 -37.333 -6.83301 -68 -20.5 -92s-31.667 -43 -54 -57s-47.833 -23.833 -76.5 -29.5s-58 -8.5 -88 -8.5c-34 0 -66.667 2.66699 -98 8s-59 12.333 -83 21zM309.004 776.996l77 -17l-37 -189l-94 21z" />
    <glyph glyph-name="Hcircumflex" unicode="&#x124;" horiz-adv-x="718" 
d="M75 721h98v-304h372v304h98v-721h-98v335h-372v-335h-98v721zM332 924h77l108 -115l-52 -44l-96 83l-98 -83l-51 43z" />
    <glyph glyph-name="hcircumflex" unicode="&#x125;" horiz-adv-x="588" 
d="M13 721l93.002 0.000976562v-245c26 12.667 52.667 23 80 31s57.666 12 90.999 12c34.667 0 64 -5.16699 88 -15.5s43.167 -24.333 57.5 -42s24.666 -38.334 30.999 -62.001s9.5 -48.5 9.5 -74.5v-325h-93v321c0 42 -10.5 72.167 -31.5 90.5s-48.5 27.5 -82.5 27.5
c-30.667 0 -58.667 -4.33301 -84 -13s-47.333 -17.667 -66 -27v-399h-93v721zM133.002 924.001h77l108 -115l-52 -44l-96 83l-98 -83l-51 43z" />
    <glyph glyph-name="Hbar" unicode="&#x126;" horiz-adv-x="720" 
d="M76 537h-76v80h76v104h98v-104h372v104h98v-104h76v-80h-76v-537h-98v335h-372v-335h-98v537zM546 417v120h-372v-120h372z" />
    <glyph glyph-name="hbar" unicode="&#x127;" horiz-adv-x="584" 
d="M71 575l-67.001 0.000976562v74h67v72h93v-72h173v-74h-173v-117c26 12.667 52.5 23 79.5 31s57.167 12 90.5 12c34.667 0 63.834 -5.16699 87.501 -15.5s42.5 -24.333 56.5 -42s24 -38.334 30 -62.001s9 -48.5 9 -74.5v-307h-93v303c0 42 -10 72.167 -30 90.5
s-47 27.5 -81 27.5c-30.667 0 -58.5 -4.33301 -83.5 -13s-46.833 -17.667 -65.5 -27v-381h-93v575z" />
    <glyph glyph-name="Itilde" unicode="&#x128;" horiz-adv-x="252" 
d="M77 721h98v-721h-98v721zM-63 782c0 39.333 6.83398 70.999 20.501 94.999s36.834 36.333 69.501 37c17.333 0 34.666 -3.16699 51.999 -9.5s35 -13.166 53 -20.499l26 -10c13.333 -5.33301 24.666 -9.5 33.999 -12.5s17 -4.5 23 -4.5c11.333 0 19.166 4 23.499 12
s6.5 23 6.5 45h71c0 -40 -7 -72 -21 -96s-37.667 -36 -71 -36c-14 0 -30.333 3.33301 -49 10s-34.667 12.667 -48 18l-34 12l-33 12c-9.33301 3.33301 -16.666 5 -21.999 5c-11.333 0 -19.333 -4 -24 -12s-7 -23 -7 -45h-70z" />
    <glyph glyph-name="itilde" unicode="&#x129;" horiz-adv-x="258" 
d="M94 427h-66v74h159v-501h-93v427zM-58 602c0 39.333 6.83301 71 20.5 95s36.834 36.333 69.501 37c17.333 0 34.666 -3.16699 51.999 -9.5s35 -13.166 53 -20.499l26 -10c13.333 -5.33301 24.666 -9.5 33.999 -12.5s17 -4.5 23 -4.5c11.333 0 19.166 4 23.499 12
s6.5 23 6.5 45h71c0 -40 -7 -72 -21 -96s-37.667 -36 -71 -36c-14 0 -30.333 3.33301 -49 10s-34.667 12.667 -48 18l-30 11c-13.333 5.33301 -25.166 9.66602 -35.499 12.999s-18.166 5 -23.499 5c-11.333 0 -19.333 -4 -24 -12s-7 -23 -7 -45h-70z" />
    <glyph glyph-name="Imacron" unicode="&#x12a;" horiz-adv-x="252" 
d="M77 721h98v-721h-98v721zM-30 871h313v-81h-313v81z" />
    <glyph glyph-name="imacron" unicode="&#x12b;" horiz-adv-x="258" 
d="M94 427h-66v74h159v-501h-93v427zM-43 696h313v-81h-313v81z" />
    <glyph glyph-name="Ibreve" unicode="&#x12c;" horiz-adv-x="252" 
d="M77 721h98v-721h-98v721zM52 914c5.33301 -17.333 13.333 -32.166 24 -44.499s27.667 -18.5 51 -18.5s40.333 6.16699 51 18.5s18.667 27.166 24 44.499l73 -23c-9.33301 -38 -27.5 -66.167 -54.5 -84.5s-58.167 -27.5 -93.5 -27.5c-36 0 -67.833 8.83301 -95.5 26.5
s-45.167 45.5 -52.5 83.5z" />
    <glyph glyph-name="ibreve" unicode="&#x12d;" horiz-adv-x="258" 
d="M94 427h-66v74h159v-501h-93v427zM51 736c5.33301 -17.333 13.333 -32.166 24 -44.499s27.667 -18.5 51 -18.5s40.333 6.16699 51 18.5s18.667 27.166 24 44.499l73 -23c-9.33301 -38 -27.5 -66.167 -54.5 -84.5s-58.167 -27.5 -93.5 -27.5
c-36 0 -67.833 8.83301 -95.5 26.5s-45.167 45.5 -52.5 83.5z" />
    <glyph glyph-name="Iogonek" unicode="&#x12e;" horiz-adv-x="253" 
d="M168 -230c-59.333 5.33301 -101.665 16.334 -126.998 33.001s-38 38.334 -38 65.001c0 10 1.66699 19.5 5 28.5s8 18.167 14 27.5c9.33301 14.667 18.5 28.167 27.5 40.5s18.167 24.166 27.5 35.499v721h99v-721l-29 -30c-10 -10.667 -20.667 -24 -32 -40
c-4.66699 -6.66699 -9.33398 -14 -14.001 -22s-7 -16.667 -7 -26c0 -5.33301 1.33301 -10.333 4 -15s7.5 -8.83398 14.5 -12.501s16.667 -7 29 -10s28.166 -5.5 47.499 -7.5z" />
    <glyph glyph-name="iogonek" unicode="&#x12f;" horiz-adv-x="257" 
d="M182 -230c-59.333 5.33301 -101.665 16.3311 -126.998 32.998s-38 38.334 -38 65.001c0 10 1.66699 19.5 5 28.5s8 18.167 14 27.5c9.33301 14.667 19 28.334 29 41.001l29 36v426h-67v74h160v-501l-27.5 -30c-8.33301 -9.33301 -18.5 -22.666 -30.5 -39.999
c-4.66699 -6.66699 -9.33398 -14 -14.001 -22s-7 -16.667 -7 -26c0 -5.33301 1.33301 -10.333 4 -15s7.5 -8.83398 14.5 -12.501s16.667 -7 29 -10s28.166 -5.5 47.499 -7.5zM88.001 615.998c-10.667 12.667 -16 28 -16 46s5.33301 33.5 16 46.5s26.667 19.5 48 19.5
s37.333 -6.5 48 -19.5s16 -28.5 16 -46.5s-5.33301 -33.333 -16 -46s-26.667 -19 -48 -19s-37.333 6.33301 -48 19z" />
    <glyph glyph-name="Idotaccent" unicode="&#x130;" horiz-adv-x="252" 
d="M77 721h98v-721h-98v721zM81 797c-10.667 12.667 -16 28 -16 46s5.33301 33.5 16 46.5s26.667 19.5 48 19.5s37.333 -6.5 48 -19.5s16 -28.5 16 -46.5s-5.33301 -33.333 -16 -46s-26.667 -19 -48 -19s-37.333 6.33301 -48 19z" />
    <glyph glyph-name="dotlessi" unicode="&#x131;" horiz-adv-x="258" 
d="M94 427h-66v74h159v-501h-93v427z" />
    <glyph glyph-name="IJ" unicode="&#x132;" horiz-adv-x="748" 
d="M77 721h98v-721h-98v721zM296 95c14 -7.33301 34 -14.5 60 -21.5s54.333 -10.5 85 -10.5c42.667 0 76.167 11.833 100.5 35.5s36.5 65.5 36.5 125.5v497h98v-501c0 -77.333 -19.667 -136.333 -59 -177s-98 -61 -176 -61c-46 0 -83.667 4 -113 12s-52 16 -68 24z" />
    <glyph glyph-name="ij" unicode="&#x133;" horiz-adv-x="504" 
d="M94 427h-58v74h151v-501h-93v427zM88 616c-10.667 12.667 -16 28 -16 46s5.33301 33.5 16 46.5s26.667 19.5 48 19.5s37.333 -6.5 48 -19.5s16 -28.5 16 -46.5s-5.33301 -33.333 -16 -46s-26.667 -19 -48 -19s-37.333 6.33301 -48 19zM150 -128
c13.333 -4.66699 28.666 -8.83398 45.999 -12.501s36.666 -5.5 57.999 -5.5c20.667 0 36.834 2.66699 48.501 8s20.5 12.666 26.5 21.999s9.83301 20.333 11.5 33s2.5 26.334 2.5 41.001v543h93v-560c0 -23.333 -2.83301 -45.166 -8.5 -65.499s-15.167 -38 -28.5 -53
s-31.666 -26.667 -54.999 -35s-52.333 -12.5 -87 -12.5c-18.667 0 -40.5 1.83301 -65.5 5.5s-45.833 9.5 -62.5 17.5zM341 616c-10.667 12.667 -16 28 -16 46s5.33301 33.5 16 46.5s26.667 19.5 48 19.5s37.333 -6.5 48 -19.5s16 -28.5 16 -46.5s-5.33301 -33.333 -16 -46
s-26.667 -19 -48 -19s-37.333 6.33301 -48 19z" />
    <glyph glyph-name="Jcircumflex" unicode="&#x134;" horiz-adv-x="495" 
d="M43 95c14 -7.33301 34 -14.5 60 -21.5s54.333 -10.5 85 -10.5c42.667 0 76.167 11.833 100.5 35.5s36.5 65.5 36.5 125.5v497h98v-501c0 -77.333 -19.667 -136.333 -59 -177s-98 -61 -176 -61c-46 0 -83.667 4 -113 12s-52 16 -68 24zM339 924h77l108 -115l-52 -44
l-96 83l-98 -83l-51 43z" />
    <glyph glyph-name="jcircumflex" unicode="&#x135;" horiz-adv-x="244" 
d="M-112 -128c13.333 -4.66699 28.8311 -8.83398 46.498 -12.501s37.167 -5.5 58.5 -5.5c20.667 0 36.834 2.66699 48.501 8s20.5 12.666 26.5 21.999s9.66699 20.333 11 33s2 26.334 2 41.001v543h93v-560c0 -23.333 -2.83301 -45.166 -8.5 -65.499s-15.167 -38 -28.5 -53
s-31.666 -26.667 -54.999 -35s-52.333 -12.5 -87 -12.5c-18.667 0 -40.5 1.83301 -65.5 5.5s-45.833 9.5 -62.5 17.5zM89.998 774h77l113 -160l-56 -39l-97 119l-98 -118l-57 38z" />
    <glyph glyph-name="Kcommaaccent" unicode="&#x136;" horiz-adv-x="672" 
d="M75 721l98 -0.000976562v-310h56c20.667 0 35.667 2.16699 45 6.5s19 12.5 29 24.5l241 292l74 -53l-257 -306l301 -331l-71 -59l-273 300c-7.33301 8 -14 14.833 -20 20.5s-12.167 10.334 -18.5 14.001s-13.5 6.16699 -21.5 7.5s-17.333 2 -28 2h-57v-329h-98v721z
M323 -68.001l94 -21l-54 -185l-77 17z" />
    <glyph glyph-name="kcommaaccent" unicode="&#x137;" horiz-adv-x="549" 
d="M71 721h93.001v-414h32c15.333 0 27.333 1.33301 36 4s17.334 8.66699 26.001 18l167 191l71 -52l-175 -195l220 -229l-66 -59l-202 209c-10.667 11.333 -20.334 19.5 -29.001 24.5s-21.334 7.5 -38.001 7.5h-42v-226h-93v721zM256.001 -68l94 -21l-54 -185l-77 17z" />
    <glyph glyph-name="kgreenlandic" unicode="&#x138;" horiz-adv-x="545" 
d="M71 501h92.999v-211h41c11.333 0 22.166 1.16699 32.499 3.5s19.5 8.5 27.5 18.5l162 208l71 -51l-170 -216l212 -207l-65 -61l-199 192c-11.333 10.667 -21.166 18.667 -29.499 24s-20.166 8 -35.499 8h-47v-209h-93v501z" />
    <glyph glyph-name="Lacute" unicode="&#x139;" horiz-adv-x="599" 
d="M75 721h98v-640h406v-81h-504v721zM174 962l67 -60l-166 -139l-51 43z" />
    <glyph glyph-name="lacute" unicode="&#x13a;" horiz-adv-x="238" 
d="M76 643h-58v78h151v-721h-93v643zM161 962l67 -60l-166 -139l-51 43z" />
    <glyph glyph-name="Lcommaaccent" unicode="&#x13b;" horiz-adv-x="599" 
d="M75 721h98v-640h406v-81h-504v721zM291 -68l94 -21l-54 -185l-77 17z" />
    <glyph glyph-name="lcommaaccent" unicode="&#x13c;" horiz-adv-x="238" 
d="M76 643h-58v78h151v-721h-93v643zM71 -68l94 -21l-54 -185l-77 17z" />
    <glyph glyph-name="Lcaron" unicode="&#x13d;" horiz-adv-x="599" 
d="M75 721h98v-640h406v-81h-504v721zM321 721h91l-23 -229h-68v229z" />
    <glyph glyph-name="lcaron" unicode="&#x13e;" horiz-adv-x="319" 
d="M76 643h-58v78h151v-721h-93v643zM238 721h91l-23 -229h-68v229z" />
    <glyph glyph-name="Ldot" unicode="&#x13f;" horiz-adv-x="599" 
d="M75 721h98v-640h406v-81h-504v721zM369 317c-10.667 12.667 -16 28 -16 46s5.33301 33.5 16 46.5s26.667 19.5 48 19.5s37.333 -6.5 48 -19.5s16 -28.5 16 -46.5s-5.33301 -33.333 -16 -46s-26.667 -19 -48 -19s-37.333 6.33301 -48 19z" />
    <glyph glyph-name="ldot" unicode="&#x140;" horiz-adv-x="343" 
d="M76 643h-58v78h151v-721h-93v643zM251 302c-10.667 12.667 -16 28 -16 46s5.33301 33.5 16 46.5s26.667 19.5 48 19.5s37.333 -6.5 48 -19.5s16 -28.5 16 -46.5s-5.33301 -33.333 -16 -46s-26.667 -19 -48 -19s-37.333 6.33301 -48 19z" />
    <glyph glyph-name="Lslash" unicode="&#x141;" horiz-adv-x="599" 
d="M6 344l69 37v340h98v-286l206 112v-89l-206 -112v-266h406v-80h-504v292l-69 -37v89z" />
    <glyph glyph-name="lslash" unicode="&#x142;" horiz-adv-x="248" 
d="M24 339l60 40v264h-65v78h158v-279l70 47v-89l-70 -47v-353h-93v290l-60 -40v89z" />
    <glyph glyph-name="Nacute" unicode="&#x143;" horiz-adv-x="743" 
d="M75 721l108.002 -0.000976562l361 -610l8.5 -13.5c2.33301 -3.66699 5.5 -5.5 9.5 -5.5c5.33301 0 8.66602 2.33301 9.99902 7s2 12.334 2 23.001v599h94v-598c0 -25.333 -2.66699 -46.333 -8 -63s-12.5 -30 -21.5 -40s-19.333 -17.167 -31 -21.5s-23.5 -6.5 -35.5 -6.5
c-15.333 0 -28.5 2 -39.5 6s-20.833 10 -29.5 18s-16.834 17.667 -24.501 29l-24.5 38l-284 482v-565h-95v721zM455.002 961.999l67 -60l-166 -139l-51 43z" />
    <glyph glyph-name="nacute" unicode="&#x144;" horiz-adv-x="586" 
d="M73 404l-30.999 84.001l80 37l31 -53c28 13.333 56.5 24.5 85.5 33.5s61.167 13.5 96.5 13.5s64.833 -5.16699 88.5 -15.5s42.5 -24.333 56.5 -42s24 -38.334 30 -62.001s9 -48.5 9 -74.5v-325h-93v320c0 42 -10 72.333 -30 91s-47 28 -81 28
c-30.667 0 -58.334 -4.33301 -83.001 -13s-46.667 -17.667 -66 -27v-399h-93v404zM327.001 798.001l75 -53l-151 -175l-55 40z" />
    <glyph glyph-name="Ncommaaccent" unicode="&#x145;" horiz-adv-x="743" 
d="M75 721l108.002 -0.000976562l361 -610l8.5 -13.5c2.33301 -3.66699 5.5 -5.5 9.5 -5.5c5.33301 0 8.66602 2.33301 9.99902 7s2 12.334 2 23.001v599h94v-598c0 -25.333 -2.66699 -46.333 -8 -63s-12.5 -30 -21.5 -40s-19.333 -17.167 -31 -21.5s-23.5 -6.5 -35.5 -6.5
c-15.333 0 -28.5 2 -39.5 6s-20.833 10 -29.5 18s-16.834 17.667 -24.501 29l-24.5 38l-284 482v-565h-95v721zM342.002 -68.001l94 -21l-54 -185l-77 17z" />
    <glyph glyph-name="ncommaaccent" unicode="&#x146;" horiz-adv-x="586" 
d="M73 404l-30.999 84.001l80 37l31 -53c28 13.333 56.5 24.5 85.5 33.5s61.167 13.5 96.5 13.5s64.833 -5.16699 88.5 -15.5s42.5 -24.333 56.5 -42s24 -38.334 30 -62.001s9 -48.5 9 -74.5v-325h-93v320c0 42 -10 72.333 -30 91s-47 28 -81 28
c-30.667 0 -58.334 -4.33301 -83.001 -13s-46.667 -17.667 -66 -27v-399h-93v404zM249.001 -67.999l94 -21l-54 -185l-77 17z" />
    <glyph glyph-name="Ncaron" unicode="&#x147;" horiz-adv-x="743" 
d="M75 721l108.002 -0.000976562l361 -610l8.5 -13.5c2.33301 -3.66699 5.5 -5.5 9.5 -5.5c5.33301 0 8.66602 2.33301 9.99902 7s2 12.334 2 23.001v599h94v-598c0 -25.333 -2.66699 -46.333 -8 -63s-12.5 -30 -21.5 -40s-19.333 -17.167 -31 -21.5s-23.5 -6.5 -35.5 -6.5
c-15.333 0 -28.5 2 -39.5 6s-20.833 10 -29.5 18s-16.834 17.667 -24.501 29l-24.5 38l-284 482v-565h-95v721zM233.002 879.999l53 44l96 -83l98 83l50 -43l-112 -116h-77z" />
    <glyph glyph-name="ncaron" unicode="&#x148;" horiz-adv-x="586" 
d="M73 404l-30.999 84.001l80 37l31 -53c28 13.333 56.5 24.5 85.5 33.5s61.167 13.5 96.5 13.5s64.833 -5.16699 88.5 -15.5s42.5 -24.333 56.5 -42s24 -38.334 30 -62.001s9 -48.5 9 -74.5v-325h-93v320c0 42 -10 72.333 -30 91s-47 28 -81 28
c-30.667 0 -58.334 -4.33301 -83.001 -13s-46.667 -17.667 -66 -27v-399h-93v404zM145.001 735.001l57 39l97 -119l98 118l56 -38l-118 -160h-77z" />
    <glyph glyph-name="napostrophe" unicode="&#x149;" horiz-adv-x="622" 
d="M109 404l-30.999 84.001l80 37l31 -53c28 13.333 56.5 24.5 85.5 33.5s61.167 13.5 96.5 13.5s64.833 -5.16699 88.5 -15.5s42.5 -24.333 56.5 -42s24 -38.334 30 -62.001s9 -48.5 9 -74.5v-325h-93v320c0 42 -10 72.333 -30 91s-47 28 -81 28
c-30.667 0 -58.334 -4.33301 -83.001 -13s-46.667 -17.667 -66 -27v-399h-93v404zM28.001 783.001l94 -21l-65 -232l-76 18z" />
    <glyph glyph-name="Eng" unicode="&#x14a;" horiz-adv-x="743" 
d="M288 -111c14 -7.33301 34.001 -14.5029 60.001 -21.5029s54.333 -10.5 85 -10.5c40 0 72.5 9.83301 97.5 29.5s39.167 54.834 42.5 105.501c-15.333 0 -28.5 2 -39.5 6s-21 10 -30 18s-17.333 17.667 -25 29l-24.5 38l-284 474v-557h-95v721h108l361 -610l8.5 -13.5
c2.33301 -3.66699 5.5 -5.5 9.5 -5.5c5.33301 0 8.66602 2.33301 9.99902 7s2 12.334 2 23.001v599h94v-709c0 -77.333 -19.667 -136.166 -59 -176.499s-98 -60.5 -176 -60.5c-46 0 -83.667 4 -113 12s-52 16 -68 24z" />
    <glyph glyph-name="eng" unicode="&#x14b;" horiz-adv-x="591" 
d="M238 -128c13.333 -4.66699 28.832 -8.83301 46.499 -12.5s37.167 -5.5 58.5 -5.5c20.667 0 36.834 2.66699 48.501 8s20.5 12.666 26.5 21.999s9.66699 20.333 11 33s2 26.334 2 41.001v362c0 42 -10 72.333 -30 91s-47 28 -81 28
c-30.667 0 -58.334 -4.33301 -83.001 -13s-46.667 -17.667 -66 -27v-399h-93v404l-33 90l82 31l31 -53c28 13.333 56.5 24.5 85.5 33.5s61.167 13.5 96.5 13.5s64.833 -5.16699 88.5 -15.5s42.5 -24.333 56.5 -42s24 -38.334 30 -62.001s9 -48.5 9 -74.5v-384
c0 -23.333 -2.83301 -45.166 -8.5 -65.499s-15.167 -38 -28.5 -53s-31.666 -26.667 -54.999 -35s-52.333 -12.5 -87 -12.5c-18.667 0 -40.5 1.83301 -65.5 5.5s-45.833 9.5 -62.5 17.5z" />
    <glyph glyph-name="Omacron" unicode="&#x14c;" horiz-adv-x="772" 
d="M126 96c-26.667 34.667 -46.333 74.667 -59 120s-19 92.666 -19 141.999s6.66699 96.666 20 141.999s33.666 85.333 60.999 120s62.333 62.334 105 83.001s93.334 31 152.001 31c60 0 111.5 -10.333 154.5 -31s78 -48.334 105 -83.001s46.833 -74.667 59.5 -120
s19 -92.666 19 -141.999s-6.66699 -96.666 -20 -141.999s-33.666 -85.333 -60.999 -120s-62.333 -62.334 -105 -83.001s-93.334 -31 -152.001 -31c-60 0 -111.5 10.333 -154.5 31s-78.167 48.334 -105.5 83.001zM283.001 86c29.333 -15.333 63.666 -23 102.999 -23
s73.666 7.66699 102.999 23s53.666 36.166 72.999 62.499s33.833 57.5 43.5 93.5s14.5 74.667 14.5 116s-4.83301 80 -14.5 116s-24.167 67.167 -43.5 93.5s-43.666 47.166 -72.999 62.499s-63.666 23 -102.999 23s-73.666 -7.66699 -102.999 -23
s-53.666 -36.166 -72.999 -62.499s-33.833 -57.5 -43.5 -93.5s-14.5 -74.667 -14.5 -116s4.83301 -80 14.5 -116s24.167 -67.167 43.5 -93.5s43.666 -47.166 72.999 -62.499zM230.001 871h313v-81h-313v81z" />
    <glyph glyph-name="omacron" unicode="&#x14d;" horiz-adv-x="591" 
d="M296 59c50 0 88.333 16.167 115 48.5s40 79.833 40 142.5c0 63.333 -13.5 111.166 -40.5 143.499s-65.167 48.5 -114.5 48.5c-50.667 0 -89.5 -16.167 -116.5 -48.5s-40.5 -80.166 -40.5 -143.499c0 -62.667 13.667 -110.167 41 -142.5s66 -48.5 116 -48.5zM100 59
c-19.333 24 -33.501 52.333 -42.501 85s-13.5 68 -13.5 106s5.16699 73.5 15.5 106.5s26 61.5 47 85.5s47.333 42.833 79 56.5s68.5 20.5 110.5 20.5c43.333 0 80.833 -6.83301 112.5 -20.5s57.667 -32.5 78 -56.5s35.5 -52.333 45.5 -85s15 -68 15 -106
s-4.66699 -73.5 -14 -106.5s-24.166 -61.5 -44.499 -85.5s-46.5 -42.833 -78.5 -56.5s-70.333 -20.5 -115 -20.5c-46 0 -85 6.83301 -117 20.5s-58 32.5 -78 56.5zM139.999 696h313v-81h-313v81z" />
    <glyph glyph-name="Obreve" unicode="&#x14e;" horiz-adv-x="772" 
d="M126 96c-26.667 34.667 -46.333 74.667 -59 120s-19 92.666 -19 141.999s6.66699 96.666 20 141.999s33.666 85.333 60.999 120s62.333 62.334 105 83.001s93.334 31 152.001 31c60 0 111.5 -10.333 154.5 -31s78 -48.334 105 -83.001s46.833 -74.667 59.5 -120
s19 -92.666 19 -141.999s-6.66699 -96.666 -20 -141.999s-33.666 -85.333 -60.999 -120s-62.333 -62.334 -105 -83.001s-93.334 -31 -152.001 -31c-60 0 -111.5 10.333 -154.5 31s-78.167 48.334 -105.5 83.001zM283.001 86c29.333 -15.333 63.666 -23 102.999 -23
s73.666 7.66699 102.999 23s53.666 36.166 72.999 62.499s33.833 57.5 43.5 93.5s14.5 74.667 14.5 116s-4.83301 80 -14.5 116s-24.167 67.167 -43.5 93.5s-43.666 47.166 -72.999 62.499s-63.666 23 -102.999 23s-73.666 -7.66699 -102.999 -23
s-53.666 -36.166 -72.999 -62.499s-33.833 -57.5 -43.5 -93.5s-14.5 -74.667 -14.5 -116s4.83301 -80 14.5 -116s24.167 -67.167 43.5 -93.5s43.666 -47.166 72.999 -62.499zM312.001 914c5.33301 -17.333 13.333 -32.166 24 -44.499s27.667 -18.5 51 -18.5
s40.333 6.16699 51 18.5s18.667 27.166 24 44.499l73 -23c-9.33301 -38 -27.5 -66.167 -54.5 -84.5s-58.167 -27.5 -93.5 -27.5c-36 0 -67.833 8.83301 -95.5 26.5s-45.167 45.5 -52.5 83.5z" />
    <glyph glyph-name="obreve" unicode="&#x14f;" horiz-adv-x="591" 
d="M296 59c50 0 88.333 16.167 115 48.5s40 79.833 40 142.5c0 63.333 -13.5 111.166 -40.5 143.499s-65.167 48.5 -114.5 48.5c-50.667 0 -89.5 -16.167 -116.5 -48.5s-40.5 -80.166 -40.5 -143.499c0 -62.667 13.667 -110.167 41 -142.5s66 -48.5 116 -48.5zM100 59
c-19.333 24 -33.501 52.333 -42.501 85s-13.5 68 -13.5 106s5.16699 73.5 15.5 106.5s26 61.5 47 85.5s47.333 42.833 79 56.5s68.5 20.5 110.5 20.5c43.333 0 80.833 -6.83301 112.5 -20.5s57.667 -32.5 78 -56.5s35.5 -52.333 45.5 -85s15 -68 15 -106
s-4.66699 -73.5 -14 -106.5s-24.166 -61.5 -44.499 -85.5s-46.5 -42.833 -78.5 -56.5s-70.333 -20.5 -115 -20.5c-46 0 -85 6.83301 -117 20.5s-58 32.5 -78 56.5zM225.999 736c5.33301 -17.333 13.333 -32.166 24 -44.499s27.667 -18.5 51 -18.5s40.333 6.16699 51 18.5
s18.667 27.166 24 44.499l73 -23c-9.33301 -38 -27.5 -66.167 -54.5 -84.5s-58.167 -27.5 -93.5 -27.5c-36 0 -67.833 8.83301 -95.5 26.5s-45.167 45.5 -52.5 83.5z" />
    <glyph glyph-name="Ohungarumlaut" unicode="&#x150;" horiz-adv-x="772" 
d="M126 96c-26.667 34.667 -46.333 74.667 -59 120s-19 92.666 -19 141.999s6.66699 96.666 20 141.999s33.666 85.333 60.999 120s62.333 62.334 105 83.001s93.334 31 152.001 31c60 0 111.5 -10.333 154.5 -31s78 -48.334 105 -83.001s46.833 -74.667 59.5 -120
s19 -92.666 19 -141.999s-6.66699 -96.666 -20 -141.999s-33.666 -85.333 -60.999 -120s-62.333 -62.334 -105 -83.001s-93.334 -31 -152.001 -31c-60 0 -111.5 10.333 -154.5 31s-78.167 48.334 -105.5 83.001zM283.001 86c29.333 -15.333 63.666 -23 102.999 -23
s73.666 7.66699 102.999 23s53.666 36.166 72.999 62.499s33.833 57.5 43.5 93.5s14.5 74.667 14.5 116s-4.83301 80 -14.5 116s-24.167 67.167 -43.5 93.5s-43.666 47.166 -72.999 62.499s-63.666 23 -102.999 23s-73.666 -7.66699 -102.999 -23
s-53.666 -36.166 -72.999 -62.499s-33.833 -57.5 -43.5 -93.5s-14.5 -74.667 -14.5 -116s4.83301 -80 14.5 -116s24.167 -67.167 43.5 -93.5s43.666 -47.166 72.999 -62.499zM543.001 968l72 -52l-135 -153l-54 37zM381.001 968l72 -52l-135 -153l-54 37z" />
    <glyph glyph-name="ohungarumlaut" unicode="&#x151;" horiz-adv-x="591" 
d="M296 59c50 0 88.333 16.167 115 48.5s40 79.833 40 142.5c0 63.333 -13.5 111.166 -40.5 143.499s-65.167 48.5 -114.5 48.5c-50.667 0 -89.5 -16.167 -116.5 -48.5s-40.5 -80.166 -40.5 -143.499c0 -62.667 13.667 -110.167 41 -142.5s66 -48.5 116 -48.5zM100 59
c-19.333 24 -33.501 52.333 -42.501 85s-13.5 68 -13.5 106s5.16699 73.5 15.5 106.5s26 61.5 47 85.5s47.333 42.833 79 56.5s68.5 20.5 110.5 20.5c43.333 0 80.833 -6.83301 112.5 -20.5s57.667 -32.5 78 -56.5s35.5 -52.333 45.5 -85s15 -68 15 -106
s-4.66699 -73.5 -14 -106.5s-24.166 -61.5 -44.499 -85.5s-46.5 -42.833 -78.5 -56.5s-70.333 -20.5 -115 -20.5c-46 0 -85 6.83301 -117 20.5s-58 32.5 -78 56.5zM278.999 798l75 -53l-151 -175l-55 40zM453.999 798l75 -53l-151 -175l-55 40z" />
    <glyph glyph-name="OE" unicode="&#x152;" horiz-adv-x="1117" 
d="M576 42c-24 -18.667 -52.166 -33.332 -84.499 -43.999s-69.833 -16 -112.5 -16c-58.667 0 -108.834 10.167 -150.501 30.5s-75.834 47.5 -102.501 81.5s-46.334 73.5 -59.001 118.5s-19 92.167 -19 141.5c0 48.667 6.33301 95.834 19 141.501s32.667 86.167 60 121.5
s62.333 63.666 105 84.999s94.334 32 155.001 32c42 0 78.333 -4.83301 109 -14.5s57.334 -22.834 80.001 -39.501v41h496v-81h-399v-223h309v-80h-309v-256h407v-81h-504v42zM576.001 579.002c-22.667 23.333 -50.833 41.333 -84.5 54s-68.5 19 -104.5 19
c-39.333 0 -73.833 -7.66699 -103.5 -23s-54.167 -36.333 -73.5 -63s-33.833 -58 -43.5 -94s-14.5 -74.667 -14.5 -116s4.83301 -79.833 14.5 -115.5s24.167 -66.667 43.5 -93s43.833 -47 73.5 -62s64.167 -22.5 103.5 -22.5c41.333 0 77.5 7.16699 108.5 21.5
s57.833 34.5 80.5 60.5v434z" />
    <glyph glyph-name="oe" unicode="&#x153;" horiz-adv-x="957" 
d="M897 20c-24 -8.66699 -52.335 -17.167 -85.002 -25.5s-72 -12.5 -118 -12.5c-56 0 -100.5 9.16699 -133.5 27.5s-58.167 43.5 -75.5 75.5c-15.333 -32 -38.666 -57.167 -69.999 -75.5s-73 -27.5 -125 -27.5c-44.667 0 -82.667 6.83301 -114 20.5s-57 32.5 -77 56.5
s-34.5 52.333 -43.5 85s-13.5 68 -13.5 106s5 73.5 15 106.5s25.333 61.5 46 85.5s46.667 42.833 78 56.5s68 20.5 110 20.5c52 0 93.833 -10.333 125.5 -31s55.834 -48 72.501 -82c17.333 33.333 41.833 60.5 73.5 81.5s72.5 31.5 122.5 31.5
c78 0 134.833 -22.167 170.5 -66.5s53.5 -106.5 53.5 -186.5l-46 -44h-330c1.33301 -50 16.166 -89.333 44.499 -118s68.5 -43 120.5 -43c16.667 0 31.834 0.5 45.501 1.5s27 2.83301 40 5.5s26.5 6 40.5 10l48 14zM291.998 57c50.667 0 88.667 16.5 114 49.5
s38 80.833 38 143.5c0 63.333 -12.667 111.333 -38 144s-63.333 49 -114 49c-51.333 0 -89.666 -16.333 -114.999 -49s-38 -80.667 -38 -144c0 -62.667 12.667 -110.5 38 -143.5s63.666 -49.5 114.999 -49.5zM808.998 297c0 28 -3.16504 51.499 -9.49805 70.499
s-15.333 34.333 -27 46s-25.334 20 -41.001 25s-32.834 7.5 -51.501 7.5c-21.333 0 -40.666 -3.83301 -57.999 -11.5s-32.333 -18.167 -45 -31.5s-22.834 -29.166 -30.501 -47.499s-12.167 -37.833 -13.5 -58.5h276z" />
    <glyph glyph-name="Racute" unicode="&#x154;" horiz-adv-x="651" 
d="M75 721l258 -0.00195312c33.333 0 64.666 -3.66699 93.999 -11s55 -19.166 77 -35.499s39.5 -38 52.5 -65s19.5 -60.167 19.5 -99.5c0 -26 -5.16699 -50.5 -15.5 -73.5s-23.833 -43.5 -40.5 -61.5s-35.5 -33 -56.5 -45s-42.5 -20 -64.5 -24
c14 -8.66699 27.167 -18.667 39.5 -30s25.5 -25 39.5 -41l164 -192l-69 -59l-186 215c-16.667 18.667 -31 33.834 -43 45.501s-23.167 20.667 -33.5 27s-20.666 10.5 -30.999 12.5s-21.833 3 -34.5 3h-72v-287h-98v721zM311 365.998c22 0 43 2.83301 63 8.5
s37.5 14.334 52.5 26.001s27 26.167 36 43.5s13.5 37.666 13.5 60.999c0 28.667 -4 52 -12 70s-19.333 32 -34 42s-32.167 16.833 -52.5 20.5s-42.833 5.5 -67.5 5.5h-137v-277h138zM365 961.998l67 -60l-166 -139l-51 43z" />
    <glyph glyph-name="racute" unicode="&#x155;" horiz-adv-x="396" 
d="M94 427l-57.9971 0.000976562v74h127l12 -51c6.66699 5.33301 15.334 11.333 26.001 18s22.667 13 36 19s28.166 11 44.499 15s33.166 6 50.499 6c12 0 21.833 -0.5 29.5 -1.5s15.834 -2.83301 24.501 -5.5l-16 -82c-6 1.33301 -12.667 2.66602 -20 3.99902
s-18.333 2 -33 2c-12 0 -24.333 -1.5 -37 -4.5s-24.834 -6.83301 -36.501 -11.5s-22.334 -10.167 -32.001 -16.5s-17.834 -12.833 -24.501 -19.5v-373h-93v427zM287.003 798.001l75 -53l-151 -175l-55 40z" />
    <glyph glyph-name="Rcommaaccent" unicode="&#x156;" horiz-adv-x="651" 
d="M75 721l258 -0.00195312c33.333 0 64.666 -3.66699 93.999 -11s55 -19.166 77 -35.499s39.5 -38 52.5 -65s19.5 -60.167 19.5 -99.5c0 -26 -5.16699 -50.5 -15.5 -73.5s-23.833 -43.5 -40.5 -61.5s-35.5 -33 -56.5 -45s-42.5 -20 -64.5 -24
c14 -8.66699 27.167 -18.667 39.5 -30s25.5 -25 39.5 -41l164 -192l-69 -59l-186 215c-16.667 18.667 -31 33.834 -43 45.501s-23.167 20.667 -33.5 27s-20.666 10.5 -30.999 12.5s-21.833 3 -34.5 3h-72v-287h-98v721zM311 365.998c22 0 43 2.83301 63 8.5
s37.5 14.334 52.5 26.001s27 26.167 36 43.5s13.5 37.666 13.5 60.999c0 28.667 -4 52 -12 70s-19.333 32 -34 42s-32.167 16.833 -52.5 20.5s-42.833 5.5 -67.5 5.5h-137v-277h138zM295 -68.002l94 -21l-54 -185l-77 17z" />
    <glyph glyph-name="rcommaaccent" unicode="&#x157;" horiz-adv-x="396" 
d="M94 427l-57.9971 0.000976562v74h127l12 -51c6.66699 5.33301 15.334 11.333 26.001 18s22.667 13 36 19s28.166 11 44.499 15s33.166 6 50.499 6c12 0 21.833 -0.5 29.5 -1.5s15.834 -2.83301 24.501 -5.5l-16 -82c-6 1.33301 -12.667 2.66602 -20 3.99902
s-18.333 2 -33 2c-12 0 -24.333 -1.5 -37 -4.5s-24.834 -6.83301 -36.501 -11.5s-22.334 -10.167 -32.001 -16.5s-17.834 -12.833 -24.501 -19.5v-373h-93v427zM85.0029 -67.999l94 -21l-54 -185l-77 17z" />
    <glyph glyph-name="Rcaron" unicode="&#x158;" horiz-adv-x="651" 
d="M75 721l258 -0.00195312c33.333 0 64.666 -3.66699 93.999 -11s55 -19.166 77 -35.499s39.5 -38 52.5 -65s19.5 -60.167 19.5 -99.5c0 -26 -5.16699 -50.5 -15.5 -73.5s-23.833 -43.5 -40.5 -61.5s-35.5 -33 -56.5 -45s-42.5 -20 -64.5 -24
c14 -8.66699 27.167 -18.667 39.5 -30s25.5 -25 39.5 -41l164 -192l-69 -59l-186 215c-16.667 18.667 -31 33.834 -43 45.501s-23.167 20.667 -33.5 27s-20.666 10.5 -30.999 12.5s-21.833 3 -34.5 3h-72v-287h-98v721zM311 365.998c22 0 43 2.83301 63 8.5
s37.5 14.334 52.5 26.001s27 26.167 36 43.5s13.5 37.666 13.5 60.999c0 28.667 -4 52 -12 70s-19.333 32 -34 42s-32.167 16.833 -52.5 20.5s-42.833 5.5 -67.5 5.5h-137v-277h138zM130 879.998l53 44l96 -83l98 83l50 -43l-112 -116h-77z" />
    <glyph glyph-name="rcaron" unicode="&#x159;" horiz-adv-x="396" 
d="M94 427l-57.9971 0.000976562v74h127l12 -51c6.66699 5.33301 15.334 11.333 26.001 18s22.667 13 36 19s28.166 11 44.499 15s33.166 6 50.499 6c12 0 21.833 -0.5 29.5 -1.5s15.834 -2.83301 24.501 -5.5l-16 -82c-6 1.33301 -12.667 2.66602 -20 3.99902
s-18.333 2 -33 2c-12 0 -24.333 -1.5 -37 -4.5s-24.834 -6.83301 -36.501 -11.5s-22.334 -10.167 -32.001 -16.5s-17.834 -12.833 -24.501 -19.5v-373h-93v427zM63.0029 735.001l57 39l97 -119l98 118l56 -38l-118 -160h-77z" />
    <glyph glyph-name="Sacute" unicode="&#x15a;" horiz-adv-x="634" 
d="M52 109c74 -30 151.665 -45.002 232.998 -45.002c68.667 0 119.167 11.833 151.5 35.5s48.5 55.5 48.5 95.5c0 24 -5.16699 43.333 -15.5 58s-24.333 26.834 -42 36.501s-38.167 17.167 -61.5 22.5l-73 16c-27.333 5.33301 -55.333 11.833 -84 19.5
s-54.5 18.667 -77.5 33s-41.833 33 -56.5 56s-22 52.5 -22 88.5c0 30 5.33301 57.667 16 83s27.5 47.333 50.5 66s52.833 33.334 89.5 44.001s81.334 16 134.001 16c47.333 0 89.5 -4.33301 126.5 -13s71.5 -18.667 103.5 -30l-25 -78
c-34.667 12.667 -68.667 22.667 -102 30s-70 11 -110 11c-60.667 0 -106.167 -10.667 -136.5 -32s-45.5 -51 -45.5 -89c0 -21.333 5 -38.666 15 -51.999s23.333 -24.333 40 -33s36.167 -15.5 58.5 -20.5s45.5 -9.83301 69.5 -14.5c28.667 -5.33301 57.834 -12 87.501 -20
s56.667 -19.5 81 -34.5s44.166 -34.833 59.499 -59.5s23 -56.334 23 -95.001c0 -68 -25.667 -122 -77 -162s-126.666 -60 -225.999 -60c-62.667 0 -116.167 5.33301 -160.5 16s-77.5 20.667 -99.5 30zM396.998 961.998l67 -60l-166 -139l-51 43z" />
    <glyph glyph-name="sacute" unicode="&#x15b;" horiz-adv-x="479" 
d="M51 91c2.66699 -1.33301 9.66992 -3.66406 21.0029 -6.99707s25 -6.83301 41 -10.5s33.833 -7 53.5 -10s39.167 -4.5 58.5 -4.5c42 0 72.667 7.33301 92 22s29 34 29 58c0 13.333 -2.66699 24.333 -8 33s-13.5 15.834 -24.5 21.501s-24.5 10.5 -40.5 14.5
s-34.333 8 -55 12c-16 2.66699 -34 6.33398 -54 11.001s-38.833 12.167 -56.5 22.5s-32.5 24.166 -44.5 41.499s-18 40.666 -18 69.999c0 22 4 42.333 12 61s20.5 35 37.5 49s38.667 24.833 65 32.5s57.5 11.5 93.5 11.5c40 0 76 -4 108 -12s55.667 -15.667 71 -23l-28 -70
c-23.333 8 -47.5 15 -72.5 21s-53.167 9 -84.5 9c-39.333 0 -67.333 -6.33301 -84 -19s-25 -29.667 -25 -51c0 -14.667 3.83301 -26.5 11.5 -35.5s18 -16.333 31 -22s27.667 -10.167 44 -13.5s33.5 -6.33301 51.5 -9c20 -3.33301 39.833 -7.83301 59.5 -13.5
s37.5 -13.834 53.5 -24.501s28.833 -24.834 38.5 -42.501s14.5 -40.5 14.5 -68.5c0 -50 -18.167 -89.667 -54.5 -119s-91.5 -44 -165.5 -44c-23.333 0 -45.833 1.5 -67.5 4.5s-41.334 6.33301 -59.001 10s-32.334 7.16699 -44.001 10.5s-18.834 5.66602 -21.501 6.99902z
M307.003 798.002l75 -53l-151 -175l-55 40z" />
    <glyph glyph-name="Scircumflex" unicode="&#x15c;" horiz-adv-x="634" 
d="M52 109c74 -30 151.665 -45.002 232.998 -45.002c68.667 0 119.167 11.833 151.5 35.5s48.5 55.5 48.5 95.5c0 24 -5.16699 43.333 -15.5 58s-24.333 26.834 -42 36.501s-38.167 17.167 -61.5 22.5l-73 16c-27.333 5.33301 -55.333 11.833 -84 19.5
s-54.5 18.667 -77.5 33s-41.833 33 -56.5 56s-22 52.5 -22 88.5c0 30 5.33301 57.667 16 83s27.5 47.333 50.5 66s52.833 33.334 89.5 44.001s81.334 16 134.001 16c47.333 0 89.5 -4.33301 126.5 -13s71.5 -18.667 103.5 -30l-25 -78
c-34.667 12.667 -68.667 22.667 -102 30s-70 11 -110 11c-60.667 0 -106.167 -10.667 -136.5 -32s-45.5 -51 -45.5 -89c0 -21.333 5 -38.666 15 -51.999s23.333 -24.333 40 -33s36.167 -15.5 58.5 -20.5s45.5 -9.83301 69.5 -14.5c28.667 -5.33301 57.834 -12 87.501 -20
s56.667 -19.5 81 -34.5s44.166 -34.833 59.499 -59.5s23 -56.334 23 -95.001c0 -68 -25.667 -122 -77 -162s-126.666 -60 -225.999 -60c-62.667 0 -116.167 5.33301 -160.5 16s-77.5 20.667 -99.5 30zM294.998 923.998h77l108 -115l-52 -44l-96 83l-98 -83l-51 43z" />
    <glyph glyph-name="scircumflex" unicode="&#x15d;" horiz-adv-x="479" 
d="M51 91c2.66699 -1.33301 9.66992 -3.66406 21.0029 -6.99707s25 -6.83301 41 -10.5s33.833 -7 53.5 -10s39.167 -4.5 58.5 -4.5c42 0 72.667 7.33301 92 22s29 34 29 58c0 13.333 -2.66699 24.333 -8 33s-13.5 15.834 -24.5 21.501s-24.5 10.5 -40.5 14.5
s-34.333 8 -55 12c-16 2.66699 -34 6.33398 -54 11.001s-38.833 12.167 -56.5 22.5s-32.5 24.166 -44.5 41.499s-18 40.666 -18 69.999c0 22 4 42.333 12 61s20.5 35 37.5 49s38.667 24.833 65 32.5s57.5 11.5 93.5 11.5c40 0 76 -4 108 -12s55.667 -15.667 71 -23l-28 -70
c-23.333 8 -47.5 15 -72.5 21s-53.167 9 -84.5 9c-39.333 0 -67.333 -6.33301 -84 -19s-25 -29.667 -25 -51c0 -14.667 3.83301 -26.5 11.5 -35.5s18 -16.333 31 -22s27.667 -10.167 44 -13.5s33.5 -6.33301 51.5 -9c20 -3.33301 39.833 -7.83301 59.5 -13.5
s37.5 -13.834 53.5 -24.501s28.833 -24.834 38.5 -42.501s14.5 -40.5 14.5 -68.5c0 -50 -18.167 -89.667 -54.5 -119s-91.5 -44 -165.5 -44c-23.333 0 -45.833 1.5 -67.5 4.5s-41.334 6.33301 -59.001 10s-32.334 7.16699 -44.001 10.5s-18.834 5.66602 -21.501 6.99902z
M214.003 774.002h77l113 -160l-56 -39l-97 119l-98 -118l-57 38z" />
    <glyph glyph-name="Scedilla" unicode="&#x15e;" horiz-adv-x="634" 
d="M208 -146c10.667 -5.33301 23.332 -10.835 37.999 -16.502s30.334 -8.5 47.001 -8.5c14.667 0 25.834 3.16699 33.501 9.5s11.5 14.833 11.5 25.5c0 9.33301 -2.66699 16.833 -8 22.5s-12.5 10 -21.5 13s-19.333 5.16699 -31 6.5s-23.834 2 -36.501 2l19 74
c-56.667 1.33301 -105 7 -145 17s-70.333 19.667 -91 29l27 81c74 -30 151.667 -45 233 -45c68.667 0 119.167 11.833 151.5 35.5s48.5 55.5 48.5 95.5c0 24 -5.16699 43.333 -15.5 58s-24.333 26.834 -42 36.501s-38.167 17.167 -61.5 22.5l-73 16
c-27.333 5.33301 -55.333 11.833 -84 19.5s-54.5 18.667 -77.5 33s-41.833 33 -56.5 56s-22 52.5 -22 88.5c0 30 5.33301 57.667 16 83s27.5 47.333 50.5 66s52.833 33.334 89.5 44.001s81.334 16 134.001 16c47.333 0 89.5 -4.33301 126.5 -13s71.5 -18.667 103.5 -30
l-25 -78c-34.667 12.667 -68.667 22.667 -102 30s-70 11 -110 11c-60.667 0 -106.167 -10.667 -136.5 -32s-45.5 -51 -45.5 -89c0 -21.333 5 -38.666 15 -51.999s23.333 -24.333 40 -33s36.167 -15.5 58.5 -20.5s45.5 -9.83301 69.5 -14.5
c28.667 -5.33301 57.834 -12 87.501 -20s56.667 -19.5 81 -34.5s44.166 -34.833 59.499 -59.5s23 -56.334 23 -95.001c0 -61.333 -20.833 -111.333 -62.5 -150s-103.167 -61.667 -184.5 -69l-8 -35c12 -1.33301 23.5 -4 34.5 -8s20.833 -9.33301 29.5 -16
s15.667 -15.167 21 -25.5s8 -22.833 8 -37.5c0 -30 -10.5 -54.667 -31.5 -74s-52.5 -29 -94.5 -29c-20.667 0 -42.334 3 -65.001 9s-40.667 13.667 -54 23z" />
    <glyph glyph-name="scedilla" unicode="&#x15f;" horiz-adv-x="479" 
d="M143 -146c10.667 -5.33301 23.335 -10.832 38.002 -16.499s30.334 -8.5 47.001 -8.5c14.667 0 25.834 3.16699 33.501 9.5s11.5 14.833 11.5 25.5c0 9.33301 -2.66699 16.833 -8 22.5s-12.5 10 -21.5 13s-19.333 5.16699 -31 6.5s-23.834 2 -36.501 2l19 75
c-20.667 0.666992 -40.334 2.5 -59.001 5.5s-35.5 6.16699 -50.5 9.5s-27.333 6.5 -37 9.5s-15.834 5.16699 -18.501 6.5l21 77c2.66699 -1.33301 9.66699 -3.66602 21 -6.99902s25 -6.83301 41 -10.5s33.833 -7 53.5 -10s39.167 -4.5 58.5 -4.5c42 0 72.667 7.33301 92 22
s29 34 29 58c0 13.333 -2.66699 24.333 -8 33s-13.5 15.834 -24.5 21.501s-24.5 10.5 -40.5 14.5s-34.333 8 -55 12c-16 2.66699 -34 6.33398 -54 11.001s-38.833 12.167 -56.5 22.5s-32.5 24.166 -44.5 41.499s-18 40.666 -18 69.999c0 22 4 42.333 12 61s20.5 35 37.5 49
s38.667 24.833 65 32.5s57.5 11.5 93.5 11.5c40 0 76 -4 108 -12s55.667 -15.667 71 -23l-28 -70c-23.333 8 -47.5 15 -72.5 21s-53.167 9 -84.5 9c-39.333 0 -67.333 -6.33301 -84 -19s-25 -29.667 -25 -51c0 -14.667 3.83301 -26.5 11.5 -35.5s18 -16.333 31 -22
s27.667 -10.167 44 -13.5s33.5 -6.33301 51.5 -9c20 -3.33301 39.833 -7.83301 59.5 -13.5s37.5 -13.834 53.5 -24.501s28.833 -24.834 38.5 -42.501s14.5 -40.5 14.5 -68.5c0 -44 -14 -79.833 -42 -107.5s-69.333 -45.167 -124 -52.5l-9 -35c12 -1.33301 23.5 -4 34.5 -8
s20.833 -9.33301 29.5 -16s15.667 -15.167 21 -25.5s8 -22.833 8 -37.5c0 -30 -10.5 -54.667 -31.5 -74s-52.5 -29 -94.5 -29c-20.667 0 -42.334 3 -65.001 9s-40.667 13.667 -54 23z" />
    <glyph glyph-name="Scaron" unicode="&#x160;" horiz-adv-x="634" 
d="M52 109c74 -30 151.665 -45.002 232.998 -45.002c68.667 0 119.167 11.833 151.5 35.5s48.5 55.5 48.5 95.5c0 24 -5.16699 43.333 -15.5 58s-24.333 26.834 -42 36.501s-38.167 17.167 -61.5 22.5l-73 16c-27.333 5.33301 -55.333 11.833 -84 19.5
s-54.5 18.667 -77.5 33s-41.833 33 -56.5 56s-22 52.5 -22 88.5c0 30 5.33301 57.667 16 83s27.5 47.333 50.5 66s52.833 33.334 89.5 44.001s81.334 16 134.001 16c47.333 0 89.5 -4.33301 126.5 -13s71.5 -18.667 103.5 -30l-25 -78
c-34.667 12.667 -68.667 22.667 -102 30s-70 11 -110 11c-60.667 0 -106.167 -10.667 -136.5 -32s-45.5 -51 -45.5 -89c0 -21.333 5 -38.666 15 -51.999s23.333 -24.333 40 -33s36.167 -15.5 58.5 -20.5s45.5 -9.83301 69.5 -14.5c28.667 -5.33301 57.834 -12 87.501 -20
s56.667 -19.5 81 -34.5s44.166 -34.833 59.499 -59.5s23 -56.334 23 -95.001c0 -68 -25.667 -122 -77 -162s-126.666 -60 -225.999 -60c-62.667 0 -116.167 5.33301 -160.5 16s-77.5 20.667 -99.5 30zM182.998 879.998l53 44l96 -83l98 83l50 -43l-112 -116h-77z" />
    <glyph glyph-name="scaron" unicode="&#x161;" horiz-adv-x="479" 
d="M51 91c2.66699 -1.33301 9.66992 -3.66406 21.0029 -6.99707s25 -6.83301 41 -10.5s33.833 -7 53.5 -10s39.167 -4.5 58.5 -4.5c42 0 72.667 7.33301 92 22s29 34 29 58c0 13.333 -2.66699 24.333 -8 33s-13.5 15.834 -24.5 21.501s-24.5 10.5 -40.5 14.5
s-34.333 8 -55 12c-16 2.66699 -34 6.33398 -54 11.001s-38.833 12.167 -56.5 22.5s-32.5 24.166 -44.5 41.499s-18 40.666 -18 69.999c0 22 4 42.333 12 61s20.5 35 37.5 49s38.667 24.833 65 32.5s57.5 11.5 93.5 11.5c40 0 76 -4 108 -12s55.667 -15.667 71 -23l-28 -70
c-23.333 8 -47.5 15 -72.5 21s-53.167 9 -84.5 9c-39.333 0 -67.333 -6.33301 -84 -19s-25 -29.667 -25 -51c0 -14.667 3.83301 -26.5 11.5 -35.5s18 -16.333 31 -22s27.667 -10.167 44 -13.5s33.5 -6.33301 51.5 -9c20 -3.33301 39.833 -7.83301 59.5 -13.5
s37.5 -13.834 53.5 -24.501s28.833 -24.834 38.5 -42.501s14.5 -40.5 14.5 -68.5c0 -50 -18.167 -89.667 -54.5 -119s-91.5 -44 -165.5 -44c-23.333 0 -45.833 1.5 -67.5 4.5s-41.334 6.33301 -59.001 10s-32.334 7.16699 -44.001 10.5s-18.834 5.66602 -21.501 6.99902z
M97.0029 735.002l57 39l97 -119l98 118l56 -38l-118 -160h-77z" />
    <glyph glyph-name="Tcommaaccent" unicode="&#x162;" horiz-adv-x="601" 
d="M250 641h-230v80h561v-80h-233v-641h-98v641zM249 -68l94 -21l-54 -185l-77 17z" />
    <glyph glyph-name="tcommaaccent" unicode="&#x163;" horiz-adv-x="395" 
d="M119 427h-71v74h71v149h92v-149h168v-74h-168v-259c0 -40 7.33301 -67.667 22 -83s37 -23 67 -23c17.333 0 33.333 1.16699 48 3.5s30.334 5.83301 47.001 10.5l18 -71c-22.667 -6 -43.834 -10.5 -63.501 -13.5s-42.167 -4.5 -67.5 -4.5c-24 0 -46 2.66699 -66 8
s-37.167 14.333 -51.5 27s-25.5 29 -33.5 49s-12 45 -12 75v281zM185 -68l94 -21l-54 -185l-77 17z" />
    <glyph glyph-name="Tcaron" unicode="&#x164;" horiz-adv-x="601" 
d="M250 641h-230v80h561v-80h-233v-641h-98v641zM151 880l53 44l96 -83l98 83l50 -43l-112 -116h-77z" />
    <glyph glyph-name="tcaron" unicode="&#x165;" horiz-adv-x="395" 
d="M119 427h-71v74h71v149h92v-149h168v-74h-168v-259c0 -40 7.33301 -67.667 22 -83s37 -23 67 -23c17.333 0 33.333 1.16699 48 3.5s30.334 5.83301 47.001 10.5l18 -71c-22.667 -6 -43.834 -10.5 -63.501 -13.5s-42.167 -4.5 -67.5 -4.5c-24 0 -46 2.66699 -66 8
s-37.167 14.333 -51.5 27s-25.5 29 -33.5 49s-12 45 -12 75v281zM264 799h91l-23 -229h-68v229z" />
    <glyph glyph-name="Tbar" unicode="&#x166;" horiz-adv-x="601" 
d="M250 325h-137v81h137v235h-230v80h561v-80h-233v-235h138v-81h-138v-325h-98v325z" />
    <glyph glyph-name="tbar" unicode="&#x167;" horiz-adv-x="398" 
d="M99 230l-71 0.000976562v74h71v123h-71v74h71v149h92v-149h168v-74h-168v-123h168v-74h-168v-62c0 -20.667 2.16699 -37.834 6.5 -51.501s10.5 -24.5 18.5 -32.5s17.833 -13.667 29.5 -17s24.5 -5 38.5 -5c17.333 0 33.833 1.16699 49.5 3.5s31.834 5.83301 48.501 10.5
l18 -71c-22.667 -6 -44.334 -10.5 -65.001 -13.5s-43.667 -4.5 -69 -4.5c-24 0 -46.167 2.66699 -66.5 8s-38 14.333 -53 27s-26.667 29 -35 49s-12.5 45 -12.5 75v84z" />
    <glyph glyph-name="Utilde" unicode="&#x168;" horiz-adv-x="726" 
d="M72 721l98 0.000976562v-398c0 -40 2.33301 -76 7 -108s14 -59.167 28 -81.5s33.5 -39.666 58.5 -51.999s57.833 -18.5 98.5 -18.5s73.667 6 99 18s45 29.167 59 51.5s23.5 49.166 28.5 80.499s7.5 66.333 7.5 105v403h98v-407c0 -48 -4 -92.167 -12 -132.5
s-22.833 -75.333 -44.5 -105s-51.5 -52.834 -89.5 -69.501s-86.667 -25 -146 -25c-60 0 -108.833 7.66699 -146.5 23s-67.167 36.833 -88.5 64.5s-35.833 61 -43.5 100s-11.5 82.5 -11.5 130.5v421zM189 782.001c0 39.333 6.83398 70.999 20.501 94.999
s36.834 36.333 69.501 37c17.333 0 34.666 -3.16699 51.999 -9.5s35 -13.166 53 -20.499l26 -10c13.333 -5.33301 24.666 -9.5 33.999 -12.5s17 -4.5 23 -4.5c11.333 0 19.166 4 23.499 12s6.5 23 6.5 45h71c0 -40 -7 -72 -21 -96s-37.667 -36 -71 -36
c-14 0 -30.333 3.33301 -49 10s-34.667 12.667 -48 18l-34 12l-33 12c-9.33301 3.33301 -16.666 5 -21.999 5c-11.333 0 -19.333 -4 -24 -12s-7 -23 -7 -45h-70z" />
    <glyph glyph-name="utilde" unicode="&#x169;" horiz-adv-x="584" 
d="M65 501l93 -0.000976562v-320c0 -43.333 10 -74 30 -92s47 -27 81 -27c30.667 0 58.334 4.83301 83.001 14.5s45.667 20.167 63 31.5v393h93v-405l43 -62l-65 -51l-50 52c-24 -15.333 -51.667 -28 -83 -38s-63.666 -15 -96.999 -15
c-36.667 0 -67.334 5.16699 -92.001 15.5s-44.334 24.333 -59.001 42s-25 38.334 -31 62.001s-9 48.5 -9 74.5v325zM106 601.999c0 39.333 6.83301 71 20.5 95s36.834 36.333 69.501 37c17.333 0 34.666 -3.16699 51.999 -9.5s35 -13.166 53 -20.499l26 -10
c13.333 -5.33301 24.666 -9.5 33.999 -12.5s17 -4.5 23 -4.5c11.333 0 19.166 4 23.499 12s6.5 23 6.5 45h71c0 -40 -7 -72 -21 -96s-37.667 -36 -71 -36c-14 0 -30.333 3.33301 -49 10s-34.667 12.667 -48 18l-30 11c-13.333 5.33301 -25.166 9.66602 -35.499 12.999
s-18.166 5 -23.499 5c-11.333 0 -19.333 -4 -24 -12s-7 -23 -7 -45h-70z" />
    <glyph glyph-name="Umacron" unicode="&#x16a;" horiz-adv-x="726" 
d="M72 721l98 0.000976562v-398c0 -40 2.33301 -76 7 -108s14 -59.167 28 -81.5s33.5 -39.666 58.5 -51.999s57.833 -18.5 98.5 -18.5s73.667 6 99 18s45 29.167 59 51.5s23.5 49.166 28.5 80.499s7.5 66.333 7.5 105v403h98v-407c0 -48 -4 -92.167 -12 -132.5
s-22.833 -75.333 -44.5 -105s-51.5 -52.834 -89.5 -69.501s-86.667 -25 -146 -25c-60 0 -108.833 7.66699 -146.5 23s-67.167 36.833 -88.5 64.5s-35.833 61 -43.5 100s-11.5 82.5 -11.5 130.5v421zM214 871.001h313v-81h-313v81z" />
    <glyph glyph-name="umacron" unicode="&#x16b;" horiz-adv-x="584" 
d="M65 501l93 -0.000976562v-320c0 -43.333 10 -74 30 -92s47 -27 81 -27c30.667 0 58.334 4.83301 83.001 14.5s45.667 20.167 63 31.5v393h93v-405l43 -62l-65 -51l-50 52c-24 -15.333 -51.667 -28 -83 -38s-63.666 -15 -96.999 -15
c-36.667 0 -67.334 5.16699 -92.001 15.5s-44.334 24.333 -59.001 42s-25 38.334 -31 62.001s-9 48.5 -9 74.5v325zM129 695.999h313v-81h-313v81z" />
    <glyph glyph-name="Ubreve" unicode="&#x16c;" horiz-adv-x="726" 
d="M72 721l98 0.000976562v-398c0 -40 2.33301 -76 7 -108s14 -59.167 28 -81.5s33.5 -39.666 58.5 -51.999s57.833 -18.5 98.5 -18.5s73.667 6 99 18s45 29.167 59 51.5s23.5 49.166 28.5 80.499s7.5 66.333 7.5 105v403h98v-407c0 -48 -4 -92.167 -12 -132.5
s-22.833 -75.333 -44.5 -105s-51.5 -52.834 -89.5 -69.501s-86.667 -25 -146 -25c-60 0 -108.833 7.66699 -146.5 23s-67.167 36.833 -88.5 64.5s-35.833 61 -43.5 100s-11.5 82.5 -11.5 130.5v421zM287 914.001c5.33301 -17.333 13.333 -32.166 24 -44.499
s27.667 -18.5 51 -18.5s40.333 6.16699 51 18.5s18.667 27.166 24 44.499l73 -23c-9.33301 -38 -27.5 -66.167 -54.5 -84.5s-58.167 -27.5 -93.5 -27.5c-36 0 -67.833 8.83301 -95.5 26.5s-45.167 45.5 -52.5 83.5z" />
    <glyph glyph-name="ubreve" unicode="&#x16d;" horiz-adv-x="584" 
d="M65 501l93 -0.000976562v-320c0 -43.333 10 -74 30 -92s47 -27 81 -27c30.667 0 58.334 4.83301 83.001 14.5s45.667 20.167 63 31.5v393h93v-405l43 -62l-65 -51l-50 52c-24 -15.333 -51.667 -28 -83 -38s-63.666 -15 -96.999 -15
c-36.667 0 -67.334 5.16699 -92.001 15.5s-44.334 24.333 -59.001 42s-25 38.334 -31 62.001s-9 48.5 -9 74.5v325zM218 735.999c5.33301 -17.333 13.333 -32.166 24 -44.499s27.667 -18.5 51 -18.5s40.333 6.16699 51 18.5s18.667 27.166 24 44.499l73 -23
c-9.33301 -38 -27.5 -66.167 -54.5 -84.5s-58.167 -27.5 -93.5 -27.5c-36 0 -67.833 8.83301 -95.5 26.5s-45.167 45.5 -52.5 83.5z" />
    <glyph glyph-name="Uring" unicode="&#x16e;" horiz-adv-x="726" 
d="M72 721l98 0.000976562v-398c0 -40 2.33301 -76 7 -108s14 -59.167 28 -81.5s33.5 -39.666 58.5 -51.999s57.833 -18.5 98.5 -18.5s73.667 6 99 18s45 29.167 59 51.5s23.5 49.166 28.5 80.499s7.5 66.333 7.5 105v403h98v-407c0 -48 -4 -92.167 -12 -132.5
s-22.833 -75.333 -44.5 -105s-51.5 -52.834 -89.5 -69.501s-86.667 -25 -146 -25c-60 0 -108.833 7.66699 -146.5 23s-67.167 36.833 -88.5 64.5s-35.833 61 -43.5 100s-11.5 82.5 -11.5 130.5v421zM372 823.001c18.667 0 34.167 6.5 46.5 19.5s18.5 28.5 18.5 46.5
s-6.33301 33.333 -19 46s-28 19 -46 19s-33.333 -6.33301 -46 -19s-19 -28 -19 -46s6.16699 -33.5 18.5 -46.5s27.833 -19.5 46.5 -19.5zM253 838.001c-6.66699 16 -10 33.001 -10 51.001s3.33301 34.833 10 50.5s15.834 29.334 27.501 41.001s25.334 20.834 41.001 27.501
s32.5 10 50.5 10s34.833 -3.33301 50.5 -10s29.334 -15.834 41.001 -27.501s20.834 -25.334 27.501 -41.001s10 -32.5 10 -50.5s-3.33301 -34.833 -10 -50.5s-15.834 -29.334 -27.501 -41.001s-25.334 -20.834 -41.001 -27.501s-32.5 -10 -50.5 -10
s-34.833 3.33301 -50.5 10s-29.334 15.834 -41.001 27.501s-20.834 25.167 -27.501 40.5z" />
    <glyph glyph-name="uring" unicode="&#x16f;" horiz-adv-x="584" 
d="M65 501l93 -0.000976562v-320c0 -43.333 10 -74 30 -92s47 -27 81 -27c30.667 0 58.334 4.83301 83.001 14.5s45.667 20.167 63 31.5v393h93v-405l43 -62l-65 -51l-50 52c-24 -15.333 -51.667 -28 -83 -38s-63.666 -15 -96.999 -15
c-36.667 0 -67.334 5.16699 -92.001 15.5s-44.334 24.333 -59.001 42s-25 38.334 -31 62.001s-9 48.5 -9 74.5v325zM297 643.999c18.667 0 34.167 6.5 46.5 19.5s18.5 28.5 18.5 46.5s-6.33301 33.5 -19 46.5s-28 19.5 -46 19.5s-33.333 -6.5 -46 -19.5s-19 -28.5 -19 -46.5
s6.16699 -33.5 18.5 -46.5s27.833 -19.5 46.5 -19.5zM178 658.999c-6.66699 16 -10 33.001 -10 51.001s3.33301 34.833 10 50.5s15.834 29.334 27.501 41.001s25.334 20.834 41.001 27.501s32.5 10 50.5 10s34.833 -3.33301 50.5 -10s29.334 -15.834 41.001 -27.501
s20.834 -25.334 27.501 -41.001s10 -32.5 10 -50.5s-3.33301 -34.833 -10 -50.5s-15.834 -29.334 -27.501 -41.001s-25.334 -20.834 -41.001 -27.501s-32.5 -10 -50.5 -10s-34.833 3.33301 -50.5 10s-29.334 15.834 -41.001 27.501s-20.834 25.167 -27.501 40.5z" />
    <glyph glyph-name="Uhungarumlaut" unicode="&#x170;" horiz-adv-x="726" 
d="M72 721l98 0.000976562v-398c0 -40 2.33301 -76 7 -108s14 -59.167 28 -81.5s33.5 -39.666 58.5 -51.999s57.833 -18.5 98.5 -18.5s73.667 6 99 18s45 29.167 59 51.5s23.5 49.166 28.5 80.499s7.5 66.333 7.5 105v403h98v-407c0 -48 -4 -92.167 -12 -132.5
s-22.833 -75.333 -44.5 -105s-51.5 -52.834 -89.5 -69.501s-86.667 -25 -146 -25c-60 0 -108.833 7.66699 -146.5 23s-67.167 36.833 -88.5 64.5s-35.833 61 -43.5 100s-11.5 82.5 -11.5 130.5v421zM513 968.001l72 -52l-135 -153l-54 37zM351 968.001l72 -52l-135 -153
l-54 37z" />
    <glyph glyph-name="uhungarumlaut" unicode="&#x171;" horiz-adv-x="584" 
d="M65 501l93 -0.000976562v-320c0 -43.333 10 -74 30 -92s47 -27 81 -27c30.667 0 58.334 4.83301 83.001 14.5s45.667 20.167 63 31.5v393h93v-405l43 -62l-65 -51l-50 52c-24 -15.333 -51.667 -28 -83 -38s-63.666 -15 -96.999 -15
c-36.667 0 -67.334 5.16699 -92.001 15.5s-44.334 24.333 -59.001 42s-25 38.334 -31 62.001s-9 48.5 -9 74.5v325zM281 797.999l75 -53l-151 -175l-55 40zM456 797.999l75 -53l-151 -175l-55 40z" />
    <glyph glyph-name="Uogonek" unicode="&#x172;" horiz-adv-x="728" 
d="M503 -230c-59.333 5.33301 -101.661 16.332 -126.994 32.999s-38 38.334 -38 65.001c0 10 1.66699 19.5 5 28.5s8 18.167 14 27.5c13.333 20.667 27.666 40.334 42.999 59.001c-6 -0.666992 -12 -1 -18 -1h-19c-60 0 -108.833 7.66699 -146.5 23
s-67.334 36.833 -89.001 64.5s-36.334 61 -44.001 100s-11.5 82.5 -11.5 130.5v421h99v-398c0 -40 2.33301 -76 7 -108s14 -59.167 28 -81.5s33.5 -39.666 58.5 -51.999s57.833 -18.5 98.5 -18.5s73.667 6 99 18s45 29.167 59 51.5s23.5 49.166 28.5 80.499
s7.5 66.333 7.5 105v403h99v-407c0 -39.333 -2.83301 -73 -8.5 -101s-14.334 -53.167 -26.001 -75.5s-26.5 -43.833 -44.5 -64.5s-39.333 -43 -64 -67c-9.33301 -9.33301 -19.333 -20.5 -30 -33.5s-21.667 -27.167 -33 -42.5c-4.66699 -6.66699 -9.33398 -14 -14.001 -22
s-7 -16.667 -7 -26c0 -5.33301 1.33301 -10.333 4 -15s7.5 -8.83398 14.5 -12.501s16.667 -7 29 -10s28.166 -5.5 47.499 -7.5z" />
    <glyph glyph-name="uogonek" unicode="&#x173;" horiz-adv-x="584" 
d="M65 501l93.001 -0.000976562v-320c0 -43.333 10 -74 30 -92s47 -27 81 -27c30.667 0 58.334 4.83301 83.001 14.5s45.667 20.167 63 31.5v393h93v-405l54 -78c-10 -11.333 -20.833 -24.5 -32.5 -39.5l-36.5 -48.5c-4.66699 -6.66699 -9.33398 -14 -14.001 -22
s-7 -16.667 -7 -26c0 -5.33301 1.33301 -10.333 4 -15s7.5 -8.83398 14.5 -12.501s16.667 -7 29 -10s28.166 -5.5 47.499 -7.5l-21 -67c-59.333 5.33301 -101.666 16.333 -126.999 33s-38 38.334 -38 65.001c0 10 1.66699 19.5 5 28.5s8 18.167 14 27.5
c21.333 31.333 42 59 62 83l-26 28c-24 -15.333 -51.667 -28 -83 -38s-63.666 -15 -96.999 -15c-36.667 0 -67.334 5.16699 -92.001 15.5s-44.334 24.333 -59.001 42s-25 38.334 -31 62.001s-9 48.5 -9 74.5v325z" />
    <glyph glyph-name="Wcircumflex" unicode="&#x174;" horiz-adv-x="969" 
d="M52 713l97.0029 14l62 -530c3.33301 -27.333 9.16602 -49.5 17.499 -66.5s18.5 -30.167 30.5 -39.5s25 -15.666 39 -18.999s28.667 -5 44 -5c38.667 0 70 11 94 33v621h97v-621c12 -11.333 26.333 -19.666 43 -24.999s34.667 -8 54 -8c14.667 0 29 1.66699 43 5
s26.833 9.66602 38.5 18.999s21.5 22.5 29.5 39.5s13.667 39.167 17 66.5l62 530l97 -14l-65 -534c-3.33301 -30 -9.66602 -56.833 -18.999 -80.5s-22.333 -43.667 -39 -60s-37.167 -29 -61.5 -38s-53.5 -13.5 -87.5 -13.5c-64.667 0 -118.334 14.333 -161.001 43
c-25.333 -14 -50.333 -24.667 -75 -32s-53.334 -11 -86.001 -11c-67.333 0 -116.833 17.167 -148.5 51.5s-50.834 81.166 -57.501 140.499zM447.003 924h77l108 -115l-52 -44l-96 83l-98 -83l-51 43z" />
    <glyph glyph-name="wcircumflex" unicode="&#x175;" horiz-adv-x="791" 
d="M43 490l93.999 11.001l39 -368c2 -16.667 6.16699 -29.834 12.5 -39.501s14 -17 23 -22s18.5 -8.33301 28.5 -10s19.667 -2.5 29 -2.5c14 0 28.167 1.83301 42.5 5.5s27.833 10.167 40.5 19.5v417h88v-417c12.667 -9.33301 26.167 -15.833 40.5 -19.5
s28.5 -5.5 42.5 -5.5c8.66699 0 18 0.833008 28 2.5s19.5 5 28.5 10s16.833 12.333 23.5 22s11 22.5 13 38.5l39 369l93 -11l-41 -369c-2 -20 -6.66699 -38.333 -14 -55s-17.666 -31.334 -30.999 -44.001s-29.833 -22.5 -49.5 -29.5s-43.167 -10.5 -70.5 -10.5
c-28.667 0 -54.5 3.5 -77.5 10.5s-45.833 16.167 -68.5 27.5c-22.667 -11.333 -45.667 -20.5 -69 -27.5s-49.333 -10.5 -78 -10.5c-28 0 -52 3.5 -72 10.5s-36.5 16.833 -49.5 29.5s-23 27.334 -30 44.001s-11.5 35 -13.5 55zM358.999 774.001h77l113 -160l-56 -39l-97 119
l-98 -118l-57 38z" />
    <glyph glyph-name="Ycircumflex" unicode="&#x176;" horiz-adv-x="664" 
d="M279 251c-15.333 4 -28.5 9.66895 -39.5 17.002s-21 16.666 -30 27.999s-17.5 24.666 -25.5 39.999s-16.667 33 -26 53l-146 305l87 36l156 -330c7.33301 -16 14 -28.667 20 -38s12 -16.5 18 -21.5s12 -8.33301 18 -10s12.667 -2.5 20 -2.5c8 0 15 0.833008 21 2.5
s12 5 18 10s12 12.5 18 22.5s13 23 21 39l156 327l87 -35l-142 -290l-28.5 -55.5c-9 -17 -18.5 -32 -28.5 -45s-21 -23.833 -33 -32.5s-26 -15 -42 -19v-252h-99v251zM301 924.002h77l108 -115l-52 -44l-96 83l-98 -83l-51 43z" />
    <glyph glyph-name="ycircumflex" unicode="&#x177;" horiz-adv-x="552" 
d="M76 -132c21.333 -5.33301 40.999 -9.5 58.999 -12.5s37 -4.5 57 -4.5c26.667 0 48.834 5.33301 66.501 16s30.834 30.334 39.501 59.001l16 60c-16 -2 -30.667 -3 -44 -3c-24.667 0 -45.667 3 -63 9s-32 15.167 -44 27.5s-22.167 27.666 -30.5 45.999
s-15.5 39.5 -21.5 63.5l-94 362l90 22l94 -364c4 -14.667 8.16699 -27.5 12.5 -38.5s10 -20.167 17 -27.5s15.667 -12.833 26 -16.5s23.166 -5.5 38.499 -5.5c10.667 0 23.667 1 39 3l118 449l85 -22l-148 -568c-7.33301 -29.333 -17.5 -53.5 -30.5 -72.5s-28 -34 -45 -45
s-35.833 -18.833 -56.5 -23.5s-43 -7 -67 -7c-19.333 0 -41 1.66699 -65 5s-45.333 8 -64 14zM249.999 774h77l113 -160l-56 -39l-97 119l-98 -118l-57 38z" />
    <glyph glyph-name="Ydieresis" unicode="&#x178;" horiz-adv-x="664" 
d="M279 251c-15.333 4 -28.5 9.66895 -39.5 17.002s-21 16.666 -30 27.999s-17.5 24.666 -25.5 39.999s-16.667 33 -26 53l-146 305l87 36l156 -330c7.33301 -16 14 -28.667 20 -38s12 -16.5 18 -21.5s12 -8.33301 18 -10s12.667 -2.5 20 -2.5c8 0 15 0.833008 21 2.5
s12 5 18 10s12 12.5 18 22.5s13 23 21 39l156 327l87 -35l-142 -290l-28.5 -55.5c-9 -17 -18.5 -32 -28.5 -45s-21 -23.833 -33 -32.5s-26 -15 -42 -19v-252h-99v251zM175 797.002c-10 13.333 -14.999 28.667 -14.999 46c0 18 5.16699 33.333 15.5 46s26.166 19 47.499 19
c20.667 0 36.167 -6.33301 46.5 -19s15.5 -28 15.5 -46c0 -17.333 -5.16699 -32.5 -15.5 -45.5s-25.833 -19.5 -46.5 -19.5c-21.333 0 -37.333 6.33301 -48 19zM401.001 797.003c-10 13.333 -14.999 28.667 -14.999 46c0 18 5.16699 33.333 15.5 46s26.166 19 47.499 19
c20.667 0 36.167 -6.33301 46.5 -19s15.5 -28 15.5 -46c0 -17.333 -5.16699 -32.5 -15.5 -45.5s-25.833 -19.5 -46.5 -19.5c-21.333 0 -37.333 6.33301 -48 19z" />
    <glyph glyph-name="Zacute" unicode="&#x179;" horiz-adv-x="626" 
d="M458 641h-391.001v80h525v-61l-449 -541c-5.33301 -6 -9.16602 -10.833 -11.499 -14.5s-3.5 -7.5 -3.5 -11.5c0 -8.66699 6.66699 -13 20 -13h446v-80h-481c-32.667 0 -56.334 6.5 -71.001 19.5s-22 31.5 -22 55.5c0 10 2.33301 21.167 7 33.5s15.334 28.5 32.001 48.5z
M411.999 962l67 -60l-166 -139l-51 43z" />
    <glyph glyph-name="zacute" unicode="&#x17a;" horiz-adv-x="503" 
d="M344 424h-295v77h418v-75l-325 -316c-4 -4 -7 -7.33301 -9 -10s-3 -5.66699 -3 -9c0 -8.66699 7 -13 21 -13h324v-78h-359c-32 0 -55.333 7.5 -70 22.5s-22 32.833 -22 53.5c0 14 3 26.5 9 37.5s14 21.167 24 30.5zM313 798l75 -53l-151 -175l-55 40z" />
    <glyph glyph-name="Zdotaccent" unicode="&#x17b;" horiz-adv-x="626" 
d="M458 641h-391.001v80h525v-61l-449 -541c-5.33301 -6 -9.16602 -10.833 -11.499 -14.5s-3.5 -7.5 -3.5 -11.5c0 -8.66699 6.66699 -13 20 -13h446v-80h-481c-32.667 0 -56.334 6.5 -71.001 19.5s-22 31.5 -22 55.5c0 10 2.33301 21.167 7 33.5s15.334 28.5 32.001 48.5z
M293.999 797c-10.667 12.667 -16 28 -16 46s5.33301 33.5 16 46.5s26.667 19.5 48 19.5s37.333 -6.5 48 -19.5s16 -28.5 16 -46.5s-5.33301 -33.333 -16 -46s-26.667 -19 -48 -19s-37.333 6.33301 -48 19z" />
    <glyph glyph-name="zdotaccent" unicode="&#x17c;" horiz-adv-x="503" 
d="M344 424h-295v77h418v-75l-325 -316c-4 -4 -7 -7.33301 -9 -10s-3 -5.66699 -3 -9c0 -8.66699 7 -13 21 -13h324v-78h-359c-32 0 -55.333 7.5 -70 22.5s-22 32.833 -22 53.5c0 14 3 26.5 9 37.5s14 21.167 24 30.5zM223 616c-10.667 12.667 -16 28 -16 46
s5.33301 33.5 16 46.5s26.667 19.5 48 19.5s37.333 -6.5 48 -19.5s16 -28.5 16 -46.5s-5.33301 -33.333 -16 -46s-26.667 -19 -48 -19s-37.333 6.33301 -48 19z" />
    <glyph glyph-name="Zcaron" unicode="&#x17d;" horiz-adv-x="626" 
d="M458 641h-391.001v80h525v-61l-449 -541c-5.33301 -6 -9.16602 -10.833 -11.499 -14.5s-3.5 -7.5 -3.5 -11.5c0 -8.66699 6.66699 -13 20 -13h446v-80h-481c-32.667 0 -56.334 6.5 -71.001 19.5s-22 31.5 -22 55.5c0 10 2.33301 21.167 7 33.5s15.334 28.5 32.001 48.5z
M191.999 880l53 44l96 -83l98 83l50 -43l-112 -116h-77z" />
    <glyph glyph-name="zcaron" unicode="&#x17e;" horiz-adv-x="503" 
d="M344 424h-295v77h418v-75l-325 -316c-4 -4 -7 -7.33301 -9 -10s-3 -5.66699 -3 -9c0 -8.66699 7 -13 21 -13h324v-78h-359c-32 0 -55.333 7.5 -70 22.5s-22 32.833 -22 53.5c0 14 3 26.5 9 37.5s14 21.167 24 30.5zM118 735l57 39l97 -119l98 118l56 -38l-118 -160h-77z
" />
    </font>
</defs>
</svg>
